<svg width="196" height="219" viewBox="0 0 180 219" fill="none" xmlns="http://www.w3.org/2000/svg">
<line x1="45.5" y1="21" x2="45.5" y2="186" stroke="black"/>
<line x1="45" y1="185.5" x2="165" y2="185.5" stroke="black"/>
<path d="M123.18 199.363C123 199.363 122.857 199.303 122.75 199.183C122.643 199.063 122.59 198.916 122.59 198.743C122.59 198.27 122.767 197.86 123.12 197.513C123.473 197.166 123.913 196.993 124.44 196.993C125.047 196.993 125.553 197.18 125.96 197.553C126.367 197.926 126.573 198.41 126.58 199.003C126.58 199.29 126.513 199.563 126.38 199.823C126.247 200.083 126.087 200.31 125.9 200.503C125.713 200.696 125.447 200.943 125.1 201.243C124.86 201.45 124.527 201.756 124.1 202.163L123.51 202.723L124.27 202.733C125.317 202.733 125.873 202.716 125.94 202.683C125.987 202.67 126.067 202.373 126.18 201.793V201.763H126.58V201.793C126.573 201.813 126.53 202.116 126.45 202.703C126.37 203.29 126.32 203.596 126.3 203.623V203.653H122.59V203.463V203.343C122.59 203.296 122.61 203.246 122.65 203.193C122.69 203.14 122.79 203.023 122.95 202.843C123.143 202.63 123.31 202.443 123.45 202.283C123.51 202.216 123.623 202.093 123.79 201.913C123.957 201.733 124.07 201.61 124.13 201.543C124.19 201.476 124.287 201.366 124.42 201.213C124.553 201.06 124.647 200.946 124.7 200.873C124.753 200.8 124.83 200.7 124.93 200.573C125.03 200.446 125.1 200.34 125.14 200.253C125.18 200.166 125.23 200.07 125.29 199.963C125.35 199.856 125.393 199.75 125.42 199.643C125.447 199.536 125.47 199.436 125.49 199.343C125.51 199.25 125.52 199.14 125.52 199.013C125.52 198.593 125.407 198.23 125.18 197.923C124.953 197.616 124.63 197.463 124.21 197.463C123.99 197.463 123.797 197.52 123.63 197.633C123.463 197.746 123.347 197.856 123.28 197.963C123.213 198.07 123.18 198.133 123.18 198.153C123.18 198.16 123.197 198.163 123.23 198.163C123.35 198.163 123.473 198.21 123.6 198.303C123.727 198.396 123.79 198.55 123.79 198.763C123.79 198.93 123.737 199.07 123.63 199.183C123.523 199.296 123.373 199.356 123.18 199.363Z" fill="black"/>
<path d="M128.46 196.823C128.467 196.823 128.707 196.806 129.18 196.773C129.653 196.74 129.897 196.72 129.91 196.713C129.99 196.713 130.03 196.743 130.03 196.803C130.03 196.876 129.91 197.38 129.67 198.313C129.417 199.3 129.29 199.803 129.29 199.823C129.29 199.836 129.313 199.82 129.36 199.773C129.767 199.413 130.2 199.233 130.66 199.233C131.02 199.233 131.31 199.323 131.53 199.503C131.75 199.683 131.863 199.946 131.87 200.293C131.87 200.633 131.743 201.16 131.49 201.873C131.237 202.586 131.11 203.013 131.11 203.153C131.117 203.246 131.133 203.31 131.16 203.343C131.187 203.376 131.237 203.393 131.31 203.393C131.497 203.393 131.67 203.293 131.83 203.093C131.99 202.893 132.12 202.62 132.22 202.273C132.24 202.2 132.26 202.156 132.28 202.143C132.3 202.13 132.353 202.123 132.44 202.123C132.573 202.123 132.64 202.15 132.64 202.203C132.64 202.21 132.627 202.26 132.6 202.353C132.493 202.746 132.323 203.07 132.09 203.323C131.863 203.61 131.593 203.753 131.28 203.753H131.23C130.917 203.753 130.69 203.663 130.55 203.483C130.41 203.303 130.34 203.113 130.34 202.913C130.34 202.806 130.46 202.413 130.7 201.733C130.94 201.053 131.063 200.543 131.07 200.203C131.07 199.81 130.923 199.613 130.63 199.613H130.58C130.027 199.613 129.547 199.94 129.14 200.593L129.07 200.723L128.73 202.073C128.517 202.94 128.393 203.413 128.36 203.493C128.273 203.673 128.127 203.763 127.92 203.763C127.827 203.763 127.747 203.733 127.68 203.673C127.613 203.613 127.577 203.553 127.57 203.493C127.57 203.4 127.813 202.386 128.3 200.453L129.04 197.493C129.04 197.406 129.017 197.353 128.97 197.333C128.923 197.313 128.793 197.296 128.58 197.283H128.37C128.33 197.243 128.31 197.216 128.31 197.203C128.31 197.19 128.317 197.126 128.33 197.013C128.363 196.886 128.407 196.823 128.46 196.823Z" fill="black"/>
<path d="M137.08 196.153C137.14 196.153 137.19 196.173 137.23 196.213C137.27 196.253 137.29 196.3 137.29 196.353C137.29 196.386 136.713 197.993 135.56 201.173C134.407 204.353 133.81 205.98 133.77 206.053C133.723 206.12 133.667 206.153 133.6 206.153C133.553 206.153 133.51 206.136 133.47 206.103C133.43 206.07 133.41 206.023 133.41 205.963C133.41 205.896 133.99 204.27 135.15 201.083C136.31 197.896 136.9 196.286 136.92 196.253C136.947 196.186 137 196.153 137.08 196.153Z" fill="black"/>
<path d="M140.96 203.223C140.86 203.31 140.713 203.403 140.52 203.503C140.327 203.603 140.123 203.653 139.91 203.653C139.49 203.653 139.153 203.503 138.9 203.203C138.647 202.903 138.517 202.52 138.51 202.053C138.51 201.353 138.767 200.71 139.28 200.123C139.793 199.536 140.363 199.24 140.99 199.233C141.303 199.233 141.593 199.393 141.86 199.713L141.89 199.673C141.903 199.653 141.92 199.633 141.94 199.613C141.96 199.593 141.99 199.566 142.03 199.533C142.07 199.5 142.113 199.476 142.16 199.463C142.207 199.45 142.26 199.44 142.32 199.433C142.413 199.433 142.49 199.463 142.55 199.523C142.61 199.583 142.643 199.646 142.65 199.713C142.65 199.813 142.46 200.62 142.08 202.133C141.7 203.646 141.5 204.42 141.48 204.453C141.36 204.813 141.103 205.11 140.71 205.343C140.317 205.576 139.867 205.696 139.36 205.703C138.42 205.703 137.95 205.476 137.95 205.023C137.95 204.85 138.01 204.696 138.13 204.563C138.25 204.43 138.403 204.363 138.59 204.363C138.69 204.363 138.783 204.393 138.87 204.453C138.957 204.513 139.003 204.616 139.01 204.763C139.01 204.83 139.003 204.893 138.99 204.953C138.977 205.013 138.953 205.06 138.92 205.093C138.887 205.126 138.86 205.16 138.84 205.193C138.82 205.226 138.797 205.253 138.77 205.273L138.75 205.293H138.76C138.827 205.313 139.027 205.323 139.36 205.323C139.613 205.323 139.813 205.283 139.96 205.203C140.113 205.13 140.257 205.02 140.39 204.873C140.523 204.726 140.617 204.57 140.67 204.403C140.71 204.276 140.763 204.07 140.83 203.783C140.917 203.463 140.96 203.276 140.96 203.223ZM141.69 200.373L141.65 200.263C141.63 200.19 141.613 200.14 141.6 200.113C141.587 200.086 141.567 200.04 141.54 199.973C141.513 199.906 141.48 199.86 141.44 199.833C141.4 199.806 141.357 199.77 141.31 199.723C141.263 199.676 141.203 199.646 141.13 199.633C141.057 199.62 140.983 199.61 140.91 199.603C140.617 199.603 140.333 199.78 140.06 200.133C139.86 200.393 139.693 200.79 139.56 201.323C139.427 201.856 139.36 202.243 139.36 202.483C139.36 203.01 139.567 203.273 139.98 203.273C140.353 203.273 140.72 203.04 141.08 202.573L141.16 202.473L141.69 200.373Z" fill="black"/>
<path d="M121.9 191C122.007 191 122.07 191.06 122.09 191.18C122.09 191.213 121.16 194.173 119.3 200.06L116.49 208.93C116.443 208.977 116.363 209 116.25 209H116.13C116.123 208.98 116.12 208.963 116.12 208.95C116.12 208.937 116.113 208.92 116.1 208.9C116.087 208.88 116.08 208.85 116.08 208.81C116.08 208.77 116.067 208.723 116.04 208.67C116.013 208.617 115.99 208.54 115.97 208.44C115.95 208.34 115.92 208.227 115.88 208.1C115.84 207.973 115.793 207.813 115.74 207.62C115.687 207.427 115.627 207.213 115.56 206.98C115.493 206.747 115.413 206.467 115.32 206.14C115.227 205.813 115.123 205.463 115.01 205.09L113.92 201.31L113.27 202.09L113 201.83L114.01 200.62L114.53 200.02L116.61 207.24L121.72 191.1C121.753 191.033 121.813 191 121.9 191Z" fill="black"/>
<path d="M142.62 191.6H122.09V191H142.62V191.6Z" fill="black"/>
<path d="M131 185.512C119.167 141.846 85.4 54.8123 45 56.0123" stroke="black"/>
<path d="M174.09 185.1C174.03 185.04 174 184.997 174 184.971C174 184.937 174.013 184.868 174.039 184.765C174.064 184.662 174.086 184.602 174.103 184.585C174.12 184.542 174.159 184.521 174.219 184.521C174.279 184.521 174.497 184.517 174.875 184.508H175.556L175.801 183.479C175.826 183.385 175.856 183.26 175.891 183.106C175.925 182.952 175.955 182.84 175.981 182.772C176.006 182.703 176.032 182.617 176.058 182.514C176.084 182.412 176.118 182.339 176.161 182.296C176.204 182.253 176.247 182.201 176.289 182.141C176.332 182.081 176.392 182.043 176.469 182.026C176.547 182.009 176.624 182 176.701 182C176.855 182.009 176.962 182.056 177.023 182.141C177.083 182.227 177.113 182.309 177.113 182.386C177.113 182.446 177.074 182.647 176.997 182.99C176.92 183.333 176.834 183.672 176.74 184.006L176.611 184.482C176.611 184.499 176.825 184.508 177.254 184.508H177.91C177.97 184.568 178 184.615 178 184.649C178 184.838 177.944 184.988 177.833 185.1H176.457L175.994 186.965C175.659 188.336 175.492 189.074 175.492 189.177C175.492 189.537 175.608 189.717 175.839 189.717C176.139 189.717 176.431 189.571 176.714 189.28C176.997 188.988 177.224 188.628 177.395 188.199C177.413 188.148 177.434 188.118 177.46 188.109C177.486 188.101 177.55 188.092 177.653 188.084H177.704C177.833 188.084 177.897 188.118 177.897 188.186C177.897 188.212 177.884 188.264 177.859 188.341C177.816 188.478 177.738 188.641 177.627 188.83C177.516 189.018 177.37 189.22 177.19 189.434C177.01 189.648 176.791 189.828 176.534 189.974C176.277 190.12 176.015 190.193 175.749 190.193C175.492 190.193 175.248 190.129 175.016 190C174.785 189.871 174.617 189.648 174.514 189.331C174.497 189.263 174.489 189.147 174.489 188.984V188.752L174.939 186.952C175.239 185.743 175.393 185.134 175.402 185.125C175.402 185.108 175.183 185.1 174.746 185.1H174.09Z" fill="black"/>
<path d="M29.9655 52.1193C29.9727 52.1193 30.2331 52.1013 30.7465 52.0651C31.26 52.0289 31.524 52.0073 31.5385 52C31.6252 52 31.6686 52.0326 31.6686 52.0977C31.6686 52.1772 31.5385 52.7232 31.2781 53.7357C31.0033 54.8061 30.8659 55.3521 30.8659 55.3738C30.8659 55.3883 30.8912 55.3702 30.9418 55.3195C31.383 54.929 31.8531 54.7337 32.3521 54.7337C32.7426 54.7337 33.0572 54.8314 33.2959 55.0266C33.5345 55.2219 33.6575 55.5076 33.6647 55.8836C33.6647 56.2525 33.5273 56.8238 33.2525 57.5977C32.9776 58.3715 32.8402 58.8343 32.8402 58.9862C32.8475 59.0875 32.8655 59.1562 32.8945 59.1923C32.9234 59.2285 32.9776 59.2466 33.0572 59.2466C33.2597 59.2466 33.4477 59.1381 33.6213 58.9211C33.7949 58.7042 33.9359 58.4076 34.0444 58.0316C34.0661 57.952 34.0878 57.905 34.1095 57.8906C34.1312 57.8761 34.189 57.8689 34.283 57.8689C34.4277 57.8689 34.5 57.8978 34.5 57.9556C34.5 57.9629 34.4855 58.0171 34.4566 58.1184C34.3409 58.5451 34.1565 58.8958 33.9034 59.1706C33.6575 59.4816 33.3646 59.6371 33.0247 59.6371H32.9704C32.6305 59.6371 32.3846 59.5395 32.2327 59.3442C32.0809 59.1489 32.0049 58.9428 32.0049 58.7259C32.0049 58.6101 32.1351 58.1835 32.3955 57.4458C32.6558 56.7081 32.7896 56.1549 32.7968 55.786C32.7968 55.3593 32.6377 55.146 32.3195 55.146H32.2653C31.665 55.146 31.1443 55.5003 30.7032 56.2091L30.6272 56.3501L30.2584 57.8146C30.027 58.7548 29.8932 59.2683 29.857 59.355C29.763 59.5503 29.6039 59.6479 29.3797 59.6479C29.2784 59.6479 29.1917 59.6154 29.1193 59.5503C29.047 59.4852 29.0072 59.4201 29 59.355C29 59.2538 29.264 58.1545 29.7919 56.0572L30.5947 52.8462C30.5947 52.7522 30.5694 52.6943 30.5187 52.6726C30.4681 52.6509 30.3271 52.6328 30.0957 52.6184H29.8679C29.8245 52.575 29.8028 52.546 29.8028 52.5316C29.8028 52.5171 29.81 52.4484 29.8245 52.3255C29.8606 52.1881 29.9076 52.1193 29.9655 52.1193Z" fill="black"/>
<path d="M22 14.1059C22 13.9829 22.0659 13.7719 22.1978 13.4729C22.3297 13.174 22.5407 12.8619 22.8308 12.5366C23.121 12.2113 23.4463 12.0531 23.8067 12.0618C24.1672 12.0618 24.4573 12.163 24.6771 12.3652C24.8969 12.5674 25.0112 12.8487 25.02 13.2092C25.0024 13.3762 24.9892 13.4685 24.9804 13.4861C24.9804 13.5125 24.9101 13.7147 24.7694 14.0928C24.6288 14.4708 24.4837 14.8972 24.3342 15.372C24.1848 15.8467 24.1144 16.2248 24.1232 16.5061C24.1232 16.8842 24.1848 17.1479 24.3078 17.2974C24.4309 17.4468 24.6156 17.526 24.8617 17.5347C25.0639 17.5347 25.253 17.4864 25.4288 17.3897C25.6046 17.293 25.7409 17.1919 25.8376 17.0864C25.9343 16.9809 26.053 16.8358 26.1937 16.6512C26.1937 16.6424 26.2157 16.5545 26.2596 16.3874C26.3036 16.2204 26.3651 15.961 26.4443 15.6093C26.5234 15.2577 26.6069 14.9324 26.6948 14.6335C27.0289 13.3147 27.2135 12.6245 27.2487 12.563C27.363 12.3256 27.552 12.2069 27.8158 12.2069C27.9301 12.2069 28.0224 12.2377 28.0927 12.2992C28.1631 12.3608 28.2114 12.4135 28.2378 12.4575C28.2642 12.5014 28.273 12.541 28.2642 12.5762C28.2642 12.6905 28.0488 13.6136 27.618 15.3456C27.1872 17.0776 26.941 18.0271 26.8795 18.1941C26.6333 18.9239 26.2069 19.5041 25.6002 19.9349C24.9936 20.3657 24.387 20.5855 23.7803 20.5943C23.3847 20.5943 23.0374 20.4976 22.7385 20.3042C22.4396 20.1107 22.2901 19.8206 22.2901 19.4338C22.2901 19.2404 22.3209 19.0777 22.3824 18.9458C22.444 18.814 22.5275 18.7172 22.633 18.6557C22.7385 18.5942 22.8264 18.5502 22.8968 18.5238C22.9671 18.4975 23.0418 18.4843 23.121 18.4843C23.5078 18.4843 23.7012 18.6689 23.7012 19.0381C23.7012 19.214 23.6485 19.3678 23.543 19.4997C23.4375 19.6316 23.3364 19.7195 23.2396 19.7635C23.1429 19.8074 23.0858 19.8294 23.0682 19.8294L23.0286 19.8426C23.0462 19.8866 23.1297 19.9393 23.2792 20.0009C23.4287 20.0624 23.5781 20.0932 23.7276 20.0932H23.8331C23.9826 20.0932 24.0968 20.0844 24.176 20.0668C24.4661 19.9877 24.7343 19.8206 24.9804 19.5657C25.2266 19.3107 25.4156 19.0381 25.5475 18.748C25.6794 18.4579 25.7805 18.2117 25.8508 18.0095C25.9211 17.8073 25.9563 17.6754 25.9563 17.6139L25.8772 17.6666C25.8244 17.7018 25.7409 17.7501 25.6266 17.8117C25.5123 17.8732 25.398 17.926 25.2837 17.9699C25.1079 18.0139 24.9365 18.0359 24.7694 18.0359C24.365 18.0359 24.0089 17.9392 23.7012 17.7458C23.3935 17.5523 23.1913 17.2402 23.0946 16.8094C23.0858 16.7479 23.0814 16.6116 23.0814 16.4006C23.0814 15.8995 23.2352 15.2445 23.543 14.4356C23.8507 13.6268 24.0045 13.1125 24.0045 12.8927C24.0045 12.8839 24.0045 12.8751 24.0045 12.8663C24.0045 12.7872 24.0045 12.7344 24.0045 12.708C24.0045 12.6817 23.9869 12.6509 23.9518 12.6157C23.9166 12.5806 23.8683 12.563 23.8067 12.563H23.754C23.5518 12.563 23.3671 12.6465 23.2001 12.8135C23.033 12.9806 22.9012 13.1608 22.8045 13.3542C22.7077 13.5477 22.633 13.7323 22.5803 13.9081C22.5275 14.084 22.4923 14.1807 22.4748 14.1983C22.4572 14.2158 22.3868 14.2246 22.2638 14.2246H22.0791C22.0264 14.1719 22 14.1323 22 14.1059Z" fill="black"/>
<path d="M29.4247 14.5939C29.4247 13.9873 29.4686 13.4114 29.5566 12.8663C29.6445 12.3212 29.7456 11.8508 29.8599 11.4552C29.9742 11.0596 30.1368 10.6727 30.3478 10.2947C30.5588 9.91665 30.7259 9.62212 30.849 9.41112C30.972 9.20011 31.1567 8.97153 31.4028 8.72535C31.649 8.47918 31.7941 8.32972 31.838 8.27697C31.882 8.22422 31.9919 8.13191 32.1677 8.00003H32.3392H32.3919C32.515 8.00003 32.5765 8.03959 32.5765 8.11872C32.5765 8.14509 32.5018 8.23741 32.3524 8.39566C32.2029 8.55391 32.0227 8.7869 31.8117 9.09461C31.6007 9.40232 31.3853 9.78037 31.1655 10.2288C30.9457 10.6771 30.761 11.2838 30.6116 12.0487C30.4621 12.8135 30.3874 13.662 30.3874 14.5939C30.3874 15.5258 30.4621 16.3698 30.6116 17.1259C30.761 17.882 30.9413 18.4931 31.1523 18.959C31.3633 19.425 31.5787 19.803 31.7985 20.0932C32.0183 20.3833 32.2029 20.6163 32.3524 20.7921C32.5018 20.9679 32.5765 21.0603 32.5765 21.0691C32.5765 21.1482 32.5106 21.1877 32.3787 21.1877H32.3392H32.1677L31.7985 20.8712C30.972 20.1239 30.3698 19.192 29.9918 18.0754C29.6137 16.9589 29.4247 15.7984 29.4247 14.5939Z" fill="black"/>
<path d="M33.6579 12.8136C33.5964 12.752 33.5656 12.7081 33.5656 12.6817C33.5656 12.6465 33.5788 12.5762 33.6052 12.4707C33.6316 12.3652 33.6535 12.3036 33.6711 12.286C33.6887 12.2421 33.7283 12.2201 33.7898 12.2201C33.8513 12.2201 34.0755 12.2157 34.4624 12.2069H35.1613L35.4119 11.1519C35.4383 11.0552 35.469 10.9277 35.5042 10.7695C35.5394 10.6112 35.5701 10.4969 35.5965 10.4266C35.6229 10.3562 35.6493 10.2683 35.6756 10.1628C35.702 10.0573 35.7372 9.98259 35.7811 9.93863C35.8251 9.89467 35.8691 9.84192 35.913 9.78038C35.957 9.71884 36.0185 9.67927 36.0977 9.66169C36.1768 9.64411 36.2559 9.63531 36.335 9.63531C36.4933 9.64411 36.6032 9.69246 36.6647 9.78038C36.7263 9.8683 36.757 9.95182 36.757 10.0309C36.757 10.0925 36.7175 10.2991 36.6384 10.6508C36.5592 11.0024 36.4713 11.3497 36.3746 11.6926L36.2427 12.1805C36.2427 12.1981 36.4625 12.2069 36.9021 12.2069H37.5747C37.6362 12.2685 37.667 12.3168 37.667 12.352C37.667 12.5454 37.6098 12.6993 37.4956 12.8136H36.0845L35.6097 14.7258C35.2668 16.1325 35.0954 16.8886 35.0954 16.9941C35.0954 17.3633 35.2141 17.5479 35.4515 17.5479C35.7592 17.5479 36.0581 17.3985 36.3482 17.0996C36.6384 16.8006 36.8713 16.4314 37.0472 15.9918C37.0648 15.939 37.0867 15.9083 37.1131 15.8995C37.1395 15.8907 37.2054 15.8819 37.3109 15.8731H37.3637C37.4956 15.8731 37.5615 15.9083 37.5615 15.9786C37.5615 16.005 37.5483 16.0577 37.5219 16.1369C37.478 16.2775 37.3988 16.4446 37.2845 16.638C37.1703 16.8314 37.0208 17.038 36.8362 17.2578C36.6515 17.4776 36.4273 17.6622 36.1636 17.8117C35.8998 17.9612 35.6317 18.0359 35.3591 18.0359C35.0954 18.0359 34.8448 17.97 34.6074 17.8381C34.3701 17.7062 34.1986 17.4776 34.0931 17.1523C34.0755 17.082 34.0667 16.9633 34.0667 16.7962V16.5589L34.5283 14.7126C34.836 13.4729 34.9943 12.8487 35.0031 12.8399C35.0031 12.8223 34.7789 12.8136 34.3305 12.8136H33.6579Z" fill="black"/>
<path d="M38.8671 8.01322L38.9198 8.00003C38.9638 8.00003 39.0078 8.00003 39.0517 8.00003H39.21L39.5792 8.31653C40.4057 9.06384 41.0079 9.99577 41.3859 11.1123C41.764 12.2289 41.953 13.3894 41.953 14.5939C41.953 15.1917 41.9091 15.7676 41.8211 16.3215C41.7332 16.8754 41.6321 17.3457 41.5178 17.7326C41.4035 18.1194 41.2409 18.5062 41.0299 18.8931C40.8189 19.2799 40.6518 19.5744 40.5287 19.7767C40.4057 19.9789 40.2254 20.2031 39.988 20.4492C39.7507 20.6954 39.61 20.8405 39.566 20.8844C39.5221 20.9284 39.421 21.0119 39.2627 21.135C39.2363 21.1614 39.2188 21.179 39.21 21.1877H39.0517C38.9814 21.1877 38.933 21.1877 38.9066 21.1877C38.8803 21.1877 38.8583 21.1746 38.8407 21.1482C38.8231 21.1218 38.8099 21.0822 38.8011 21.0295C38.8099 21.0207 38.8583 20.9636 38.9462 20.8581C40.3089 19.4426 40.9903 17.3545 40.9903 14.5939C40.9903 11.8333 40.3089 9.7452 38.9462 8.32972C38.8583 8.22422 38.8099 8.16707 38.8011 8.15828C38.8011 8.08795 38.8231 8.03959 38.8671 8.01322Z" fill="black"/>
<path d="M45.677 193.962C46.1203 193.321 46.726 193 47.4941 193C47.8741 193 48.2542 193.103 48.6342 193.309C49.0143 193.515 49.323 193.879 49.5606 194.401C49.8535 195.059 50 195.961 50 197.109C50 198.337 49.8298 199.275 49.4893 199.924C49.331 200.257 49.1132 200.522 48.8361 200.72C48.559 200.918 48.3175 201.04 48.1116 201.088C47.9058 201.135 47.7039 201.163 47.5059 201.171C47.3001 201.171 47.0942 201.147 46.8884 201.1C46.6825 201.052 46.441 200.926 46.1639 200.72C45.8868 200.514 45.669 200.249 45.5107 199.924C45.1702 199.275 45 198.337 45 197.109C45 195.732 45.2257 194.683 45.677 193.962ZM48.3492 193.819C48.1116 193.566 47.8306 193.439 47.5059 193.439C47.1734 193.439 46.8884 193.566 46.6508 193.819C46.4529 194.025 46.3222 194.31 46.2589 194.675C46.1956 195.039 46.1639 195.799 46.1639 196.955C46.1639 198.206 46.1956 199.029 46.2589 199.425C46.3222 199.821 46.4648 200.134 46.6865 200.363C46.9082 200.601 47.1813 200.72 47.5059 200.72C47.8226 200.72 48.0918 200.601 48.3135 200.363C48.5432 200.126 48.6857 199.793 48.7411 199.366C48.7965 198.938 48.8282 198.135 48.8361 196.955C48.8361 195.807 48.8044 195.051 48.7411 194.686C48.6778 194.322 48.5471 194.033 48.3492 193.819Z" fill="black"/>
</svg>
