<svg width="120" height="120" viewBox="0 0 120 100" fill="none" xmlns="http://www.w3.org/2000/svg">
<path d="M67 88.3917C67.006 88.3558 67.015 88.3079 67.0269 88.2481C67.0389 88.1882 67.0748 88.0745 67.1346 87.907C67.1945 87.7395 67.2543 87.5989 67.3141 87.4852C67.374 87.3715 67.4697 87.2608 67.6013 87.1531C67.733 87.0454 67.8646 86.9945 67.9962 87.0005C68.1279 87.0065 68.2565 87.0275 68.3822 87.0634C68.5078 87.0993 68.5976 87.1531 68.6514 87.2249C68.7053 87.2967 68.7531 87.3625 68.795 87.4224C68.8369 87.4822 68.8608 87.539 68.8668 87.5929L68.8848 87.6557C68.8848 87.6677 68.8877 87.6737 68.8937 87.6737L68.9925 87.5749C69.3515 87.192 69.7733 87.0005 70.2579 87.0005C70.3597 87.0005 70.4524 87.0065 70.5362 87.0185C70.6199 87.0304 70.6977 87.0514 70.7695 87.0813C70.8413 87.1112 70.8982 87.1411 70.94 87.1711C70.9819 87.201 71.0268 87.2369 71.0747 87.2788C71.1225 87.3206 71.1524 87.3595 71.1644 87.3954C71.1764 87.4313 71.2003 87.4702 71.2362 87.5121C71.2721 87.554 71.2841 87.5899 71.2721 87.6198C71.2601 87.6497 71.2691 87.6767 71.299 87.7006C71.329 87.7245 71.3349 87.7455 71.317 87.7634L71.3888 87.6737C71.7657 87.2249 72.2115 87.0005 72.7261 87.0005C73.0492 87.0005 73.3094 87.0813 73.5069 87.2429C73.7043 87.4044 73.8061 87.6408 73.812 87.9519C73.812 88.257 73.6984 88.7297 73.471 89.3699C73.2436 90.0102 73.1299 90.3931 73.1299 90.5187C73.1359 90.6025 73.1509 90.6594 73.1748 90.6893C73.1988 90.7192 73.2436 90.7341 73.3094 90.7341C73.477 90.7341 73.6325 90.6444 73.7761 90.4649C73.9197 90.2854 74.0364 90.0401 74.1262 89.7289C74.1441 89.6631 74.1621 89.6242 74.18 89.6123C74.198 89.6003 74.2458 89.5943 74.3236 89.5943C74.4433 89.5943 74.5031 89.6183 74.5031 89.6661C74.5031 89.6721 74.4912 89.717 74.4672 89.8007C74.4194 89.9743 74.3535 90.1448 74.2698 90.3123C74.186 90.4799 74.0484 90.6474 73.8569 90.8149C73.6655 90.9825 73.459 91.0632 73.2376 91.0572C72.9564 91.0572 72.753 90.9765 72.6273 90.8149C72.5017 90.6534 72.4389 90.4858 72.4389 90.3123C72.4389 90.1986 72.5466 89.8396 72.762 89.2353C72.9774 88.631 73.0881 88.1763 73.094 87.8711C73.094 87.5181 72.9624 87.3416 72.6991 87.3416H72.6543C72.1397 87.3416 71.7059 87.6437 71.3529 88.2481L71.2901 88.3558L70.9939 89.5584C70.7964 90.3422 70.6828 90.7641 70.6528 90.8239C70.5751 90.9854 70.4464 91.0662 70.2669 91.0662C70.1891 91.0662 70.1263 91.0453 70.0784 91.0034C70.0306 90.9615 69.9977 90.9256 69.9797 90.8957C69.9618 90.8658 69.9528 90.8359 69.9528 90.8059C69.9528 90.7401 70.0545 90.3123 70.2579 89.5225L70.581 88.2122C70.599 88.1224 70.608 88.0087 70.608 87.8711C70.608 87.5181 70.4763 87.3416 70.2131 87.3416H70.1682C69.6536 87.3416 69.2198 87.6437 68.8668 88.2481L68.804 88.3558L68.5078 89.5584C68.3104 90.3422 68.1967 90.7641 68.1668 90.8239C68.089 90.9854 67.9603 91.0662 67.7808 91.0662C67.703 91.0662 67.6402 91.0483 67.5924 91.0124C67.5445 90.9765 67.5116 90.9406 67.4936 90.9047C67.4757 90.8688 67.4697 90.8389 67.4757 90.8149C67.4757 90.7371 67.5894 90.2465 67.8167 89.343C68.0501 88.4216 68.1668 87.9399 68.1668 87.898C68.1847 87.8083 68.1937 87.7275 68.1937 87.6557C68.1937 87.4403 68.1189 87.3326 67.9693 87.3326C67.8377 87.3326 67.727 87.4164 67.6372 87.5839C67.5475 87.7514 67.4787 87.9339 67.4308 88.1314C67.3829 88.3288 67.347 88.4365 67.3231 88.4545C67.3111 88.4665 67.2633 88.4724 67.1795 88.4724H67.0539C67.018 88.4365 67 88.4096 67 88.3917Z" fill="black"/>
<path d="M77.4831 90.5816C77.3934 90.6594 77.2617 90.7432 77.0882 90.8329C76.9147 90.9227 76.7322 90.9676 76.5407 90.9676C76.1638 90.9676 75.8616 90.8329 75.6342 90.5637C75.4069 90.2944 75.2902 89.9504 75.2842 89.5315C75.2842 88.9033 75.5146 88.3259 75.9753 87.7994C76.436 87.2728 76.9476 87.0066 77.51 87.0006C77.7912 87.0006 78.0515 87.1442 78.2909 87.4314L78.3178 87.3955C78.3297 87.3775 78.3447 87.3596 78.3627 87.3416C78.3806 87.3237 78.4075 87.2998 78.4434 87.2698C78.4793 87.2399 78.5182 87.219 78.5601 87.207C78.602 87.195 78.6499 87.1861 78.7037 87.1801C78.7875 87.1801 78.8563 87.207 78.9101 87.2609C78.964 87.3147 78.9939 87.3716 78.9999 87.4314C78.9999 87.5211 78.8294 88.2451 78.4883 89.6033C78.1473 90.9616 77.9678 91.6556 77.9498 91.6856C77.8421 92.0087 77.6117 92.2749 77.2587 92.4843C76.9057 92.6938 76.5018 92.8015 76.0471 92.8074C75.2034 92.8074 74.7816 92.604 74.7816 92.1971C74.7816 92.0416 74.8355 91.9039 74.9432 91.7843C75.0509 91.6646 75.1885 91.6048 75.356 91.6048C75.4458 91.6048 75.5295 91.6317 75.6073 91.6856C75.6851 91.7394 75.727 91.8321 75.733 91.9638C75.733 92.0236 75.727 92.0805 75.715 92.1343C75.7031 92.1882 75.6821 92.23 75.6522 92.26C75.6223 92.2899 75.5983 92.3198 75.5804 92.3497C75.5624 92.3796 75.5415 92.4036 75.5176 92.4215L75.4996 92.4395H75.5086C75.5684 92.4574 75.7479 92.4664 76.0471 92.4664C76.2745 92.4664 76.454 92.4305 76.5856 92.3587C76.7232 92.2929 76.8519 92.1941 76.9715 92.0625C77.0912 91.9309 77.175 91.7903 77.2228 91.6407C77.2587 91.527 77.3066 91.3415 77.3664 91.0842C77.4442 90.797 77.4831 90.6295 77.4831 90.5816ZM78.1383 88.0237L78.1024 87.925C78.0844 87.8592 78.0695 87.8143 78.0575 87.7904C78.0455 87.7665 78.0276 87.7246 78.0037 87.6647C77.9797 87.6049 77.9498 87.563 77.9139 87.5391C77.878 87.5152 77.8391 87.4822 77.7972 87.4404C77.7553 87.3985 77.7015 87.3716 77.6357 87.3596C77.5699 87.3476 77.504 87.3386 77.4382 87.3327C77.175 87.3327 76.9207 87.4912 76.6753 87.8083C76.4958 88.0417 76.3463 88.3977 76.2266 88.8764C76.1069 89.355 76.0471 89.7021 76.0471 89.9175C76.0471 90.3902 76.2326 90.6265 76.6035 90.6265C76.9386 90.6265 77.2677 90.4171 77.5908 89.9982L77.6626 89.9085L78.1383 88.0237Z" fill="black"/>
<path d="M63.0712 110.714L64.5146 108.214H61.6278L63.0712 110.714ZM63.0712 48.5H63.3212C63.3212 48.4403 63.2998 48.3826 63.261 48.3373L63.0712 48.5ZM34.3569 15L34.888 17.8375L37.0798 15.9588L34.3569 15ZM63.3212 108.464V48.5H62.8212V108.464H63.3212ZM63.261 48.3373L36.011 16.5456L35.6314 16.871L62.8814 48.6627L63.261 48.3373Z" fill="black"/>
<path d="M29.5713 77.2142L32.4088 76.6831L30.5301 74.4913L29.5713 77.2142ZM62.9085 48.3101L31.1169 75.5601L31.4423 75.9397L63.2339 48.6898L62.9085 48.3101Z" fill="black"/>
<circle cx="62.5" cy="48.5" r="3.5" fill="black"/>
<path d="M93.4497 83.255L92.9016 80.4208L90.7212 82.3126L93.4497 83.255ZM62.6736 48.1638L91.7864 81.7193L92.1641 81.3917L63.0513 47.8362L62.6736 48.1638Z" fill="black"/>
<path d="M8 58.8598C8.00616 58.8228 8.01539 58.7736 8.0277 58.712C8.04001 58.6505 8.07695 58.5335 8.1385 58.3611C8.20006 58.1888 8.26161 58.0441 8.32317 57.9272C8.38473 57.8102 8.48322 57.6963 8.61864 57.5855C8.75407 57.4747 8.88949 57.4224 9.02492 57.4286C9.16034 57.4347 9.29269 57.4563 9.42195 57.4932C9.55122 57.5301 9.64356 57.5855 9.69896 57.6594C9.75436 57.7333 9.8036 57.801 9.84669 57.8625C9.88978 57.9241 9.91441 57.9826 9.92056 58.038L9.93903 58.1026C9.93903 58.1149 9.94211 58.1211 9.94826 58.1211L10.0498 58.0195C10.4192 57.6255 10.8531 57.4286 11.3517 57.4286C11.4564 57.4286 11.5518 57.4347 11.638 57.447C11.7242 57.4593 11.8042 57.4809 11.8781 57.5117C11.9519 57.5424 12.0104 57.5732 12.0535 57.604C12.0966 57.6348 12.1427 57.6717 12.192 57.7148C12.2412 57.7579 12.272 57.7979 12.2843 57.8348C12.2966 57.8718 12.3213 57.9118 12.3582 57.9549C12.3951 57.998 12.4074 58.0349 12.3951 58.0657C12.3828 58.0965 12.3921 58.1242 12.4228 58.1488C12.4536 58.1734 12.4598 58.1949 12.4413 58.2134L12.5152 58.1211C12.903 57.6594 13.3616 57.4286 13.891 57.4286C14.2234 57.4286 14.4911 57.5117 14.6943 57.6779C14.8974 57.8441 15.002 58.0872 15.0082 58.4073C15.0082 58.7213 14.8912 59.2075 14.6573 59.8662C14.4234 60.5249 14.3065 60.9188 14.3065 61.0481C14.3126 61.1343 14.328 61.1927 14.3526 61.2235C14.3772 61.2543 14.4234 61.2697 14.4911 61.2697C14.6635 61.2697 14.8235 61.1774 14.9713 60.9927C15.119 60.808 15.239 60.5556 15.3314 60.2355C15.3498 60.1678 15.3683 60.1278 15.3868 60.1155C15.4052 60.1032 15.4545 60.097 15.5345 60.097C15.6576 60.097 15.7192 60.1217 15.7192 60.1709C15.7192 60.1771 15.7069 60.2232 15.6822 60.3094C15.633 60.4879 15.5653 60.6634 15.4791 60.8357C15.3929 61.0081 15.2514 61.1804 15.0544 61.3528C14.8574 61.5251 14.645 61.6083 14.4173 61.6021C14.1279 61.6021 13.9187 61.519 13.7894 61.3528C13.6601 61.1866 13.5955 61.0142 13.5955 60.8357C13.5955 60.7188 13.7063 60.3494 13.9279 59.7277C14.1495 59.106 14.2634 58.6382 14.2695 58.3242C14.2695 57.961 14.1341 57.7794 13.8633 57.7794H13.8171C13.2877 57.7794 12.8414 58.0903 12.4782 58.712L12.4136 58.8228L12.1089 60.0601C11.9058 60.8665 11.7888 61.3005 11.758 61.362C11.678 61.5282 11.5457 61.6113 11.361 61.6113C11.281 61.6113 11.2163 61.5898 11.1671 61.5467C11.1178 61.5036 11.084 61.4667 11.0655 61.4359C11.047 61.4051 11.0378 61.3743 11.0378 61.3436C11.0378 61.2758 11.1425 60.8357 11.3517 60.0232L11.6842 58.6751C11.7026 58.5828 11.7119 58.4658 11.7119 58.3242C11.7119 57.961 11.5764 57.7794 11.3056 57.7794H11.2594C10.73 57.7794 10.2837 58.0903 9.92056 58.712L9.85593 58.8228L9.55122 60.0601C9.34809 60.8665 9.23113 61.3005 9.20035 61.362C9.12033 61.5282 8.98798 61.6113 8.80331 61.6113C8.72329 61.6113 8.65865 61.5929 8.60941 61.5559C8.56016 61.519 8.52631 61.4821 8.50784 61.4451C8.48937 61.4082 8.48322 61.3774 8.48937 61.3528C8.48937 61.2728 8.60633 60.768 8.84025 59.8385C9.08032 58.8905 9.20035 58.395 9.20035 58.3519C9.21882 58.2596 9.22805 58.1765 9.22805 58.1026C9.22805 57.881 9.15111 57.7702 8.99721 57.7702C8.86179 57.7702 8.74791 57.8564 8.65558 58.0287C8.56324 58.2011 8.49245 58.3888 8.44321 58.592C8.39396 58.7951 8.35703 58.9059 8.3324 58.9244C8.32009 58.9367 8.27085 58.9429 8.18467 58.9429H8.0554C8.01847 58.9059 8 58.8782 8 58.8598Z" fill="black"/>
<path d="M18.7846 61.1123C18.6923 61.1923 18.5569 61.2785 18.3784 61.3709C18.1999 61.4632 18.0121 61.5094 17.8151 61.5094C17.4273 61.5094 17.1165 61.3709 16.8826 61.0939C16.6486 60.8169 16.5286 60.4629 16.5224 60.032C16.5224 59.3857 16.7594 58.7916 17.2334 58.2499C17.7074 57.7083 18.2337 57.4343 18.8123 57.4282C19.1017 57.4282 19.3694 57.5759 19.6157 57.8714L19.6434 57.8344C19.6557 57.816 19.6711 57.7975 19.6895 57.779C19.708 57.7606 19.7357 57.736 19.7726 57.7052C19.8096 57.6744 19.8496 57.6529 19.8927 57.6405C19.9358 57.6282 19.985 57.619 20.0404 57.6128C20.1266 57.6128 20.1974 57.6405 20.2528 57.6959C20.3082 57.7513 20.3389 57.8098 20.3451 57.8714C20.3451 57.9637 20.1697 58.7085 19.8188 60.1059C19.4679 61.5032 19.2833 62.2173 19.2648 62.248C19.154 62.5804 18.917 62.8544 18.5538 63.0698C18.1906 63.2853 17.7751 63.3961 17.3073 63.4022C16.4393 63.4022 16.0054 63.1929 16.0054 62.7743C16.0054 62.6143 16.0608 62.4727 16.1716 62.3496C16.2824 62.2265 16.424 62.1649 16.5963 62.1649C16.6886 62.1649 16.7748 62.1926 16.8549 62.248C16.9349 62.3034 16.978 62.3989 16.9841 62.5343C16.9841 62.5958 16.978 62.6543 16.9657 62.7097C16.9533 62.7651 16.9318 62.8082 16.901 62.839C16.8702 62.8698 16.8456 62.9005 16.8272 62.9313C16.8087 62.9621 16.7871 62.9867 16.7625 63.0052L16.744 63.0236H16.7533C16.8148 63.0421 16.9995 63.0513 17.3073 63.0513C17.5412 63.0513 17.7259 63.0144 17.8613 62.9405C18.0029 62.8728 18.1352 62.7713 18.2583 62.6358C18.3815 62.5004 18.4676 62.3558 18.5169 62.2019C18.5538 62.0849 18.6031 61.8941 18.6646 61.6294C18.7446 61.3339 18.7846 61.1616 18.7846 61.1123ZM19.4587 58.4808L19.4218 58.3792C19.4033 58.3115 19.3879 58.2653 19.3756 58.2407C19.3633 58.2161 19.3448 58.173 19.3202 58.1114C19.2956 58.0499 19.2648 58.0068 19.2279 57.9822C19.1909 57.9576 19.1509 57.9237 19.1078 57.8806C19.0647 57.8375 19.0093 57.8098 18.9416 57.7975C18.8739 57.7852 18.8062 57.776 18.7385 57.7698C18.4676 57.7698 18.206 57.9329 17.9536 58.2592C17.769 58.4993 17.6151 58.8655 17.492 59.358C17.3688 59.8504 17.3073 60.2074 17.3073 60.429C17.3073 60.9153 17.4981 61.1585 17.8798 61.1585C18.2245 61.1585 18.563 60.943 18.8954 60.5121L18.9693 60.4198L19.4587 58.4808Z" fill="black"/>
<path d="M24.5815 58.592C24.5815 58.3458 24.4984 58.1334 24.3322 57.9549C24.166 57.7764 23.9259 57.6871 23.612 57.6871C23.3904 57.6871 23.1996 57.7271 23.0395 57.8071C22.8549 57.9241 22.7625 58.0841 22.7625 58.2873C22.7564 58.3181 22.7564 58.3581 22.7625 58.4073C22.7687 58.4566 22.8179 58.5304 22.9103 58.6289C23.0026 58.7274 23.1349 58.8044 23.3073 58.8598C23.4181 58.8905 23.5535 58.9182 23.7136 58.9429C23.8736 58.9675 24.009 58.9952 24.1199 59.026C24.2307 59.0567 24.3291 59.0967 24.4153 59.146C24.52 59.1952 24.6215 59.2568 24.72 59.3307C24.8185 59.4045 24.917 59.5307 25.0155 59.7092C25.114 59.8877 25.1663 60.0786 25.1725 60.2817C25.1725 60.6634 25.0555 60.9773 24.8216 61.2235C24.5877 61.4697 24.2091 61.5959 23.6859 61.6021H23.612C23.2919 61.6021 22.9964 61.4913 22.7256 61.2697L22.6517 61.3343L22.5686 61.4174C22.5317 61.4544 22.4948 61.4882 22.4578 61.519L22.3563 61.6113H22.2824H22.2455C22.227 61.6113 22.1993 61.5929 22.1624 61.5559V60.8265V60.2909C22.1624 60.1617 22.1685 60.0847 22.1808 60.0601C22.1931 60.0355 22.2239 60.0201 22.2732 60.0139H22.3563C22.4301 60.0139 22.4794 60.0262 22.504 60.0509C22.5286 60.0755 22.544 60.1124 22.5502 60.1617C22.5563 60.2109 22.5779 60.294 22.6148 60.411C22.6517 60.5279 22.7102 60.6572 22.7902 60.7988C23.0057 61.1127 23.3042 61.2697 23.6859 61.2697C24.283 61.2697 24.5815 61.0296 24.5815 60.5495C24.5815 60.371 24.5261 60.2263 24.4153 60.1155C24.2922 59.9678 24.0367 59.857 23.6489 59.7831C23.2611 59.7092 23.0057 59.6384 22.8826 59.5707C22.661 59.4661 22.4855 59.3245 22.3563 59.146C22.227 58.9675 22.1624 58.7767 22.1624 58.5735C22.1624 58.3334 22.2147 58.1303 22.3193 57.9641C22.424 57.7979 22.5563 57.6748 22.7164 57.5948C22.8764 57.5147 23.0303 57.4593 23.178 57.4286C23.3258 57.3978 23.4612 57.3824 23.5843 57.3824H23.6859C23.9321 57.3824 24.1476 57.4286 24.3322 57.5209L24.4707 57.5948L24.5538 57.5301C24.6154 57.4747 24.6831 57.4224 24.757 57.3732H24.8308H24.8678C24.8862 57.3732 24.9139 57.3916 24.9509 57.4286V58.6474L24.8955 58.7028H24.6369C24.6 58.6658 24.5815 58.6289 24.5815 58.592Z" fill="black"/>
<path d="M26.1317 55.8859C26.1317 55.7136 26.1871 55.5781 26.2979 55.4796C26.4087 55.3811 26.5441 55.3319 26.7041 55.3319C26.8457 55.3442 26.9688 55.3965 27.0735 55.4889C27.1781 55.5812 27.2304 55.7136 27.2304 55.8859C27.2304 56.0706 27.1781 56.2091 27.0735 56.3014C26.9688 56.3938 26.8396 56.4399 26.6857 56.4399C26.5318 56.4399 26.4025 56.3938 26.2979 56.3014C26.1932 56.2091 26.1378 56.0706 26.1317 55.8859ZM27.7752 61.5091C27.6829 61.4906 27.3628 61.4814 26.8149 61.4814C26.7472 61.4814 26.6333 61.4814 26.4733 61.4814C26.3133 61.4814 26.1594 61.4875 26.0116 61.4999L25.8085 61.5091H25.7346V61.0844H25.8824C26.0547 61.0844 26.2055 61.0751 26.3348 61.0567C26.3902 61.032 26.4241 60.9982 26.4364 60.9551C26.4487 60.912 26.4548 60.7827 26.4548 60.5673V59.6162V58.8037C26.4548 58.4836 26.4487 58.2805 26.4364 58.1943C26.4241 58.1081 26.381 58.0496 26.3071 58.0188C26.2209 57.9758 26.0763 57.9542 25.8731 57.9542H25.7716V57.7418C25.7716 57.6003 25.7777 57.5295 25.79 57.5295L25.8824 57.5202C25.9439 57.5141 26.0301 57.5079 26.1409 57.5018C26.2517 57.4956 26.3625 57.4895 26.4733 57.4833C26.5779 57.4771 26.6887 57.471 26.8057 57.4648C26.9227 57.4587 27.0119 57.4494 27.0735 57.4371C27.135 57.4248 27.1689 57.4217 27.175 57.4279H27.2027V60.9366C27.2335 60.9982 27.2705 61.0351 27.3135 61.0474C27.3566 61.0597 27.4644 61.072 27.6367 61.0844H27.8491V61.5091H27.7752Z" fill="black"/>
<path d="M28.4405 61.0844H28.5697C28.8098 61.0844 28.9545 61.0413 29.0037 60.9551V60.8812C29.0037 60.8258 29.0037 60.755 29.0037 60.6688C29.0037 60.5827 29.0037 60.4873 29.0037 60.3826C29.0037 60.278 29.0068 60.1579 29.0129 60.0225C29.0191 59.8871 29.0191 59.7578 29.0129 59.6347C29.0129 59.4439 29.0129 59.2407 29.0129 59.0253C29.0129 58.8098 29.0099 58.6283 29.0037 58.4805V58.2681C28.9852 58.1512 28.9421 58.0742 28.8744 58.0373C28.8067 58.0004 28.6682 57.9727 28.4589 57.9542H28.2927V57.7418C28.2927 57.6003 28.2989 57.5295 28.3112 57.5295L28.4035 57.5202C28.4651 57.5141 28.5513 57.5079 28.6621 57.5018C28.7729 57.4956 28.8867 57.4895 29.0037 57.4833C29.1083 57.4771 29.2191 57.471 29.3361 57.4648C29.4531 57.4587 29.5423 57.4494 29.6039 57.4371C29.6654 57.4248 29.6993 57.4217 29.7054 57.4279H29.7331V57.7972C29.7331 58.0312 29.7362 58.1481 29.7424 58.1481C29.7485 58.1481 29.7639 58.1327 29.7885 58.1019C29.8132 58.0712 29.8501 58.025 29.8993 57.9634C29.9486 57.9019 30.0071 57.8465 30.0748 57.7972C30.1425 57.748 30.2318 57.6895 30.3426 57.6218C30.4534 57.5541 30.5703 57.5048 30.6934 57.4741C30.8165 57.4433 30.9735 57.4279 31.1643 57.4279C31.8661 57.4525 32.257 57.8003 32.337 58.4713C32.3431 58.5144 32.3462 58.9422 32.3462 59.7547V60.5488C32.3462 60.7827 32.3524 60.9212 32.3647 60.9643C32.377 61.0074 32.4109 61.0382 32.4663 61.0567C32.5955 61.0751 32.7463 61.0844 32.9187 61.0844H33.0664V61.5091H32.9926L32.771 61.4999C32.6294 61.4937 32.4755 61.4906 32.3093 61.4906C32.1431 61.4906 32.0261 61.4875 31.9584 61.4814C31.3244 61.4814 30.9797 61.4906 30.9243 61.5091H30.8504V61.0844H30.9981C31.3736 61.0844 31.5614 61.0351 31.5614 60.9366C31.5675 60.9243 31.5706 60.4996 31.5706 59.6624C31.5644 58.8314 31.5583 58.3913 31.5521 58.342C31.5152 58.1697 31.4536 58.0404 31.3675 57.9542C31.2813 57.868 31.2074 57.8157 31.1459 57.7972C31.0843 57.7788 31.0043 57.7726 30.9058 57.7788C30.6288 57.7788 30.3856 57.8834 30.1764 58.0927C30.0101 58.2589 29.9055 58.4282 29.8624 58.6006C29.8193 58.7729 29.7947 59.0284 29.7885 59.3669V59.9579V60.5119C29.7885 60.6965 29.7916 60.8197 29.7978 60.8812C29.8039 60.9428 29.8132 60.9828 29.8255 61.0013C29.8378 61.0197 29.8655 61.0382 29.9086 61.0567C30.0378 61.0751 30.1887 61.0844 30.361 61.0844H30.5088V61.5091H30.4349L30.2225 61.4999C30.0748 61.4937 29.9178 61.4906 29.7516 61.4906C29.5854 61.4906 29.4685 61.4875 29.4007 61.4814C28.7667 61.4814 28.422 61.4906 28.3666 61.5091H28.2927V61.0844H28.4405Z" fill="black"/>
<path d="M35.0575 59.6629C35.0575 59.035 35.1775 58.3733 35.4176 57.6777C35.6577 56.9821 35.9839 56.3819 36.3963 55.8772C36.8088 55.3724 37.2366 55.0831 37.6798 55.0092C37.686 55.0092 37.7106 55.0092 37.7537 55.0092C37.7968 55.0092 37.8337 55.0062 37.8645 55C38.1969 55.0246 38.4554 55.1754 38.6401 55.4524C38.8802 55.8218 39.0002 56.3173 39.0002 56.939C39.0002 57.6469 38.8617 58.3671 38.5847 59.0997C38.3077 59.8322 37.9537 60.4324 37.5228 60.9002C37.0919 61.368 36.6795 61.6019 36.2855 61.6019H36.2209C35.9993 61.6019 35.8085 61.5404 35.6484 61.4173C35.4884 61.2941 35.3684 61.131 35.2883 60.9279C35.2083 60.7247 35.1498 60.5185 35.1129 60.3092C35.076 60.1 35.0575 59.8845 35.0575 59.6629ZM38.2707 56.2834C38.2707 55.6556 38.1076 55.3416 37.7814 55.3416C37.5598 55.3416 37.3443 55.4801 37.135 55.7571C36.9257 56.0341 36.7534 56.3481 36.618 56.699C36.4825 57.0498 36.3779 57.3576 36.304 57.6223C36.2301 57.887 36.1901 58.0409 36.184 58.084C36.4856 58.0901 36.7842 58.0932 37.0796 58.0932L37.9753 58.084C37.9814 58.0778 38.0061 57.9763 38.0491 57.7793C38.0922 57.5823 38.1415 57.3361 38.1969 57.0406C38.2523 56.7451 38.2769 56.4927 38.2707 56.2834ZM35.7777 60.2908C35.7777 60.9433 35.9408 61.2695 36.2671 61.2695C36.3594 61.2695 36.4579 61.2387 36.5626 61.1772C36.6672 61.1156 36.7934 60.9987 36.9411 60.8263C37.0889 60.654 37.2366 60.3862 37.3843 60.023C37.5321 59.6598 37.6798 59.2105 37.8275 58.6749L37.8737 58.5179H36.0732C36.0732 58.5364 36.0455 58.6534 35.9901 58.8688C35.9347 59.0843 35.8854 59.3243 35.8423 59.589C35.7993 59.8537 35.7777 60.0876 35.7777 60.2908Z" fill="black"/>
<path d="M82 58.9785C82.0063 58.9404 82.0159 58.8897 82.0286 58.8262C82.0412 58.7628 82.0793 58.6422 82.1428 58.4646C82.2062 58.2869 82.2697 58.1378 82.3331 58.0173C82.3966 57.8967 82.4981 57.7793 82.6377 57.6651C82.7773 57.5509 82.9168 57.497 83.0564 57.5033C83.196 57.5097 83.3324 57.5319 83.4657 57.5699C83.5989 57.608 83.6941 57.6651 83.7512 57.7413C83.8083 57.8174 83.8591 57.8872 83.9035 57.9506C83.9479 58.0141 83.9733 58.0744 83.9796 58.1315L83.9986 58.1981C83.9986 58.2108 84.0018 58.2171 84.0082 58.2171L84.1129 58.1124C84.4936 57.7064 84.9409 57.5033 85.4548 57.5033C85.5627 57.5033 85.661 57.5097 85.7498 57.5224C85.8387 57.5351 85.9212 57.5573 85.9973 57.589C86.0734 57.6207 86.1337 57.6524 86.1781 57.6842C86.2225 57.7159 86.2701 57.754 86.3209 57.7984C86.3716 57.8428 86.4034 57.884 86.4161 57.9221C86.4288 57.9602 86.4541 58.0014 86.4922 58.0458C86.5303 58.0902 86.543 58.1283 86.5303 58.16C86.5176 58.1917 86.5271 58.2203 86.5588 58.2457C86.5905 58.2711 86.5969 58.2933 86.5779 58.3123L86.654 58.2171C87.0537 57.7413 87.5264 57.5033 88.0721 57.5033C88.4147 57.5033 88.6907 57.589 88.9001 57.7603C89.1095 57.9316 89.2173 58.1822 89.2237 58.5122C89.2237 58.8358 89.1031 59.337 88.862 60.0159C88.6209 60.6948 88.5004 61.1009 88.5004 61.2341C88.5067 61.323 88.5226 61.3832 88.548 61.415C88.5733 61.4467 88.6209 61.4626 88.6907 61.4626C88.8684 61.4626 89.0333 61.3674 89.1856 61.177C89.3379 60.9867 89.4616 60.7265 89.5568 60.3966C89.5758 60.3268 89.5949 60.2856 89.6139 60.2729C89.6329 60.2602 89.6837 60.2538 89.7662 60.2538C89.8931 60.2538 89.9565 60.2792 89.9565 60.33C89.9565 60.3363 89.9438 60.3839 89.9185 60.4727C89.8677 60.6567 89.7979 60.8376 89.7091 61.0152C89.6202 61.1929 89.4743 61.3706 89.2713 61.5482C89.0682 61.7259 88.8493 61.8115 88.6146 61.8052C88.3164 61.8052 88.1006 61.7195 87.9674 61.5482C87.8342 61.3769 87.7675 61.1992 87.7675 61.0152C87.7675 60.8947 87.8817 60.514 88.1102 59.8732C88.3386 59.2323 88.456 58.7501 88.4623 58.4265C88.4623 58.0522 88.3227 57.865 88.0435 57.865H87.9959C87.4503 57.865 86.9903 58.1854 86.6159 58.8262L86.5493 58.9404L86.2352 60.2158C86.0258 61.047 85.9053 61.4943 85.8736 61.5577C85.7911 61.729 85.6547 61.8147 85.4643 61.8147C85.3818 61.8147 85.3152 61.7925 85.2645 61.7481C85.2137 61.7037 85.1788 61.6656 85.1598 61.6339C85.1407 61.6021 85.1312 61.5704 85.1312 61.5387C85.1312 61.4689 85.2391 61.0152 85.4548 60.1777L85.7974 58.7882C85.8165 58.693 85.826 58.5724 85.826 58.4265C85.826 58.0522 85.6864 57.865 85.4072 57.865H85.3596C84.814 57.865 84.354 58.1854 83.9796 58.8262L83.913 58.9404L83.5989 60.2158C83.3895 61.047 83.269 61.4943 83.2373 61.5577C83.1548 61.729 83.0184 61.8147 82.828 61.8147C82.7455 61.8147 82.6789 61.7957 82.6281 61.7576C82.5774 61.7195 82.5425 61.6815 82.5235 61.6434C82.5044 61.6053 82.4981 61.5736 82.5044 61.5482C82.5044 61.4657 82.625 60.9454 82.8661 59.9874C83.1135 59.0102 83.2373 58.4995 83.2373 58.4551C83.2563 58.3599 83.2658 58.2742 83.2658 58.1981C83.2658 57.9697 83.1865 57.8555 83.0279 57.8555C82.8883 57.8555 82.7709 57.9443 82.6757 58.122C82.5806 58.2996 82.5076 58.4931 82.4568 58.7025C82.4061 58.9119 82.368 59.0261 82.3426 59.0451C82.3299 59.0578 82.2792 59.0642 82.1903 59.0642H82.0571C82.019 59.0261 82 58.9976 82 58.9785Z" fill="black"/>
<path d="M93.1167 61.3006C93.0215 61.3831 92.8819 61.472 92.6979 61.5671C92.5139 61.6623 92.3204 61.7099 92.1174 61.7099C91.7176 61.7099 91.3972 61.5671 91.1561 61.2816C90.915 60.9961 90.7913 60.6313 90.7849 60.1871C90.7849 59.5209 91.0292 58.9086 91.5178 58.3503C92.0063 57.7919 92.5488 57.5096 93.1452 57.5032C93.4434 57.5032 93.7195 57.6555 93.9732 57.96L94.0018 57.922C94.0145 57.9029 94.0304 57.8839 94.0494 57.8649C94.0684 57.8458 94.097 57.8205 94.135 57.7887C94.1731 57.757 94.2144 57.7348 94.2588 57.7221C94.3032 57.7094 94.3539 57.6999 94.411 57.6936C94.4999 57.6936 94.5728 57.7221 94.6299 57.7792C94.6871 57.8363 94.7188 57.8966 94.7251 57.96C94.7251 58.0552 94.5443 58.823 94.1826 60.2632C93.821 61.7035 93.6306 62.4396 93.6116 62.4713C93.4974 62.8139 93.2531 63.0963 92.8787 63.3183C92.5044 63.5404 92.0761 63.6546 91.5939 63.6609C90.6993 63.6609 90.252 63.4452 90.252 63.0138C90.252 62.8488 90.3091 62.7029 90.4233 62.576C90.5375 62.4491 90.6834 62.3856 90.8611 62.3856C90.9562 62.3856 91.0451 62.4142 91.1276 62.4713C91.21 62.5284 91.2544 62.6267 91.2608 62.7663C91.2608 62.8298 91.2544 62.89 91.2418 62.9471C91.2291 63.0043 91.2069 63.0487 91.1751 63.0804C91.1434 63.1121 91.118 63.1438 91.099 63.1756C91.08 63.2073 91.0578 63.2327 91.0324 63.2517L91.0133 63.2707H91.0229C91.0863 63.2898 91.2767 63.2993 91.5939 63.2993C91.835 63.2993 92.0254 63.2612 92.1649 63.1851C92.3109 63.1153 92.4473 63.0106 92.5742 62.871C92.7011 62.7314 92.7899 62.5823 92.8407 62.4237C92.8787 62.3031 92.9295 62.1064 92.993 61.8336C93.0754 61.5291 93.1167 61.3514 93.1167 61.3006ZM93.8115 58.5882L93.7734 58.4835C93.7543 58.4137 93.7385 58.3661 93.7258 58.3407C93.7131 58.3154 93.6941 58.2709 93.6687 58.2075C93.6433 58.144 93.6116 58.0996 93.5735 58.0743C93.5354 58.0489 93.4942 58.014 93.4498 57.9696C93.4054 57.9251 93.3483 57.8966 93.2785 57.8839C93.2087 57.8712 93.1389 57.8617 93.0691 57.8554C92.7899 57.8554 92.5203 58.0235 92.2601 58.3598C92.0698 58.6072 91.9111 58.9847 91.7843 59.4923C91.6574 59.9999 91.5939 60.3679 91.5939 60.5964C91.5939 61.0976 91.7906 61.3482 92.184 61.3482C92.5393 61.3482 92.8883 61.1262 93.2309 60.682L93.307 60.5868L93.8115 58.5882Z" fill="black"/>
<path d="M99.8037 58.8068C99.8037 58.8068 99.7371 58.8068 99.6038 58.8068C99.4706 58.8068 99.3564 58.7592 99.2612 58.6641C99.166 58.5689 99.1152 58.4483 99.1089 58.3024C99.1089 58.1565 99.1565 58.0359 99.2517 57.9407C99.2834 57.909 99.2993 57.89 99.2993 57.8836C99.2993 57.8773 99.2675 57.8709 99.2041 57.8646C99.0391 57.8392 98.8837 57.8265 98.7377 57.8265C98.4268 57.8265 98.173 57.928 97.9763 58.1311C97.6781 58.4293 97.529 58.9274 97.529 59.6253C97.529 60.1456 97.6274 60.5548 97.8241 60.8531C98.0842 61.2401 98.4332 61.4336 98.871 61.4336C99.1311 61.4336 99.3405 61.3511 99.4991 61.1862C99.6577 61.0212 99.7719 60.8245 99.8417 60.5961C99.8544 60.5453 99.8703 60.5136 99.8893 60.5009C99.9084 60.4882 99.9591 60.4819 100.042 60.4819H100.175C100.213 60.5199 100.232 60.5485 100.232 60.5675C100.232 60.5929 100.219 60.6437 100.194 60.7198C100.169 60.7959 100.118 60.9006 100.042 61.0339C99.9655 61.1671 99.8735 61.2877 99.7656 61.3955C99.6577 61.5034 99.5055 61.6018 99.3088 61.6906C99.1121 61.7794 98.8932 61.8207 98.6521 61.8143C98.1064 61.8143 97.6305 61.6113 97.2245 61.2052C96.8184 60.7991 96.6122 60.2884 96.6058 59.6729C96.6058 59.013 96.812 58.4769 97.2245 58.0645C97.6369 57.652 98.1159 57.4458 98.6616 57.4458C99.2073 57.4458 99.5879 57.5315 99.8037 57.7028C100.019 57.8741 100.127 58.0772 100.127 58.3119C100.127 58.4578 100.073 58.5752 99.9655 58.6641L99.8037 58.8068Z" fill="black"/>
<path d="M100.775 59.673C100.775 59.0702 100.981 58.5499 101.393 58.1121C101.806 57.6743 102.304 57.4523 102.887 57.4459C103.458 57.4459 103.95 57.6616 104.363 58.0931C104.775 58.5245 104.984 59.048 104.991 59.6635C104.991 60.2662 104.788 60.7738 104.382 61.1862C103.976 61.5987 103.477 61.8049 102.887 61.8049C102.272 61.8049 101.768 61.5923 101.374 61.1672C100.981 60.7421 100.781 60.244 100.775 59.673ZM102.887 61.4242C103.661 61.4242 104.049 60.9071 104.049 59.8728V59.5683V59.3304C104.049 59.1908 104.045 59.0702 104.039 58.9687C104.033 58.8672 104.01 58.7466 103.972 58.607C103.934 58.4674 103.884 58.3532 103.82 58.2644C103.757 58.1756 103.658 58.0867 103.525 57.9979C103.392 57.9091 103.236 57.8456 103.059 57.8076C103.027 57.8012 102.976 57.7981 102.906 57.7981C102.716 57.7981 102.535 57.8361 102.364 57.9123C102.091 58.0519 101.913 58.2454 101.831 58.4928C101.748 58.7403 101.707 59.0321 101.707 59.3684V59.5588C101.707 60.1679 101.768 60.5962 101.888 60.8436C102.091 61.2307 102.424 61.4242 102.887 61.4242Z" fill="black"/>
<path d="M108.074 58.7025C108.074 58.4487 107.989 58.2298 107.818 58.0458C107.646 57.8618 107.399 57.7698 107.075 57.7698C106.847 57.7698 106.65 57.8111 106.485 57.8935C106.295 58.0141 106.2 58.1791 106.2 58.3884C106.193 58.4202 106.193 58.4614 106.2 58.5122C106.206 58.5629 106.257 58.6391 106.352 58.7406C106.447 58.8421 106.583 58.9214 106.761 58.9785C106.875 59.0102 107.015 59.0388 107.18 59.0642C107.345 59.0896 107.484 59.1181 107.599 59.1498C107.713 59.1816 107.814 59.2228 107.903 59.2736C108.011 59.3243 108.116 59.3878 108.217 59.4639C108.319 59.54 108.42 59.6701 108.522 59.8541C108.623 60.0381 108.677 60.2348 108.684 60.4442C108.684 60.8376 108.563 61.1612 108.322 61.415C108.081 61.6688 107.691 61.7988 107.151 61.8052H107.075C106.745 61.8052 106.441 61.691 106.161 61.4626L106.085 61.5292L106 61.6148C105.962 61.6529 105.924 61.6878 105.885 61.7195L105.781 61.8147H105.705H105.667C105.648 61.8147 105.619 61.7957 105.581 61.7576V61.0057V60.4537C105.581 60.3205 105.587 60.2412 105.6 60.2158C105.613 60.1904 105.644 60.1745 105.695 60.1682H105.781C105.857 60.1682 105.908 60.1809 105.933 60.2063C105.958 60.2316 105.974 60.2697 105.981 60.3205C105.987 60.3712 106.009 60.4569 106.047 60.5774C106.085 60.698 106.146 60.8312 106.228 60.9772C106.45 61.3008 106.758 61.4626 107.151 61.4626C107.767 61.4626 108.074 61.2151 108.074 60.7202C108.074 60.5362 108.017 60.3871 107.903 60.2729C107.776 60.1206 107.513 60.0064 107.113 59.9303C106.714 59.8541 106.45 59.7812 106.323 59.7114C106.095 59.6035 105.914 59.4576 105.781 59.2736C105.648 59.0896 105.581 58.8929 105.581 58.6835C105.581 58.436 105.635 58.2266 105.743 58.0553C105.851 57.884 105.987 57.7571 106.152 57.6746C106.317 57.5922 106.476 57.5351 106.628 57.5033C106.78 57.4716 106.92 57.4557 107.047 57.4557H107.151C107.405 57.4557 107.627 57.5033 107.818 57.5985L107.96 57.6746L108.046 57.608C108.109 57.5509 108.179 57.497 108.255 57.4462H108.331H108.37C108.389 57.4462 108.417 57.4653 108.455 57.5033V58.7596L108.398 58.8167H108.132C108.094 58.7787 108.074 58.7406 108.074 58.7025Z" fill="black"/>
<path d="M110.936 59.8062C110.936 59.159 111.06 58.477 111.307 57.76C111.555 57.043 111.891 56.4244 112.316 55.9041C112.741 55.3838 113.182 55.0856 113.639 55.0095C113.645 55.0095 113.671 55.0095 113.715 55.0095C113.76 55.0095 113.798 55.0063 113.829 54.9999C114.172 55.0253 114.439 55.1808 114.629 55.4663C114.876 55.847 115 56.3578 115 56.9986C115 57.7283 114.857 58.4706 114.572 59.2257C114.286 59.9807 113.921 60.5993 113.477 61.0815C113.033 61.5638 112.608 61.8049 112.202 61.8049H112.135C111.907 61.8049 111.71 61.7414 111.545 61.6145C111.38 61.4876 111.257 61.3195 111.174 61.1101C111.092 60.9007 111.031 60.6882 110.993 60.4724C110.955 60.2567 110.936 60.0346 110.936 59.8062ZM114.248 56.3229C114.248 55.6757 114.08 55.3521 113.744 55.3521C113.515 55.3521 113.293 55.4948 113.078 55.7804C112.862 56.0659 112.684 56.3895 112.545 56.7511C112.405 57.1128 112.297 57.43 112.221 57.7029C112.145 57.9757 112.104 58.1343 112.097 58.1787C112.408 58.1851 112.716 58.1883 113.02 58.1883L113.944 58.1787C113.95 58.1724 113.975 58.0677 114.02 57.8647C114.064 57.6616 114.115 57.4078 114.172 57.1033C114.229 56.7987 114.255 56.5386 114.248 56.3229ZM111.679 60.4534C111.679 61.126 111.847 61.4622 112.183 61.4622C112.278 61.4622 112.38 61.4305 112.487 61.3671C112.595 61.3036 112.725 61.1831 112.878 61.0054C113.03 60.8278 113.182 60.5517 113.335 60.1774C113.487 59.803 113.639 59.3399 113.791 58.7879L113.839 58.6261H111.983C111.983 58.6451 111.955 58.7657 111.897 58.9877C111.84 59.2098 111.79 59.4573 111.745 59.7301C111.701 60.0029 111.679 60.244 111.679 60.4534Z" fill="black"/>
<path d="M50.1808 24.284C50.0603 24.284 50 24.2586 50 24.2079C50 24.1762 50.0508 23.9985 50.1523 23.6749C50.2538 23.3514 50.3616 23.031 50.4758 22.7137L50.6376 22.2474C50.6694 22.1332 50.7106 22.0507 50.7613 22H55.2152H56.0717C56.2748 22 56.3953 22.0031 56.4334 22.0095C56.4714 22.0158 56.4937 22.0444 56.5 22.0951C56.5 22.1332 56.4461 22.4948 56.3382 23.1801C56.2304 23.8653 56.1701 24.2111 56.1574 24.2174C56.1574 24.2618 56.0971 24.284 55.9766 24.284C55.9195 24.284 55.8814 24.284 55.8624 24.284C55.8433 24.284 55.8243 24.2682 55.8053 24.2364L55.7862 24.2079C55.7862 24.1698 55.8053 24.0271 55.8433 23.7796C55.8814 23.5322 55.9004 23.3387 55.9004 23.1991C55.9004 22.977 55.8592 22.8089 55.7767 22.6947C55.6942 22.5805 55.5198 22.5012 55.2533 22.4568C55.2216 22.4504 55.0376 22.4441 54.7013 22.4377C54.4095 22.4377 54.2255 22.4409 54.1493 22.4473C54.0732 22.4536 54.0161 22.479 53.978 22.5234C53.9717 22.5297 53.7465 23.4148 53.3023 25.1786C52.8582 26.9424 52.6362 27.8401 52.6362 27.8719C52.6362 27.948 52.9153 27.9924 53.4736 28.0051C53.6767 28.0051 53.8067 28.0083 53.8638 28.0146C53.9209 28.021 53.9495 28.0495 53.9495 28.1003C53.9495 28.132 53.94 28.1764 53.9209 28.2335C53.8956 28.3477 53.867 28.4143 53.8353 28.4334L53.8163 28.4429C53.7972 28.4429 53.775 28.4429 53.7496 28.4429C53.7179 28.4429 53.553 28.4397 53.2548 28.4334C52.9566 28.427 52.5283 28.4238 51.97 28.4238C51.1515 28.4238 50.6313 28.4302 50.4092 28.4429H50.2665C50.2284 28.4048 50.2094 28.3763 50.2094 28.3572C50.2094 28.3382 50.2157 28.2811 50.2284 28.1859C50.2538 28.1034 50.2855 28.0432 50.3236 28.0051H50.59H50.6947C51.2023 28.0051 51.5037 27.9765 51.5988 27.9194C51.6052 27.9131 51.6115 27.9099 51.6179 27.9099C51.6496 27.8909 51.6813 27.8274 51.713 27.7196C51.7448 27.6117 51.8716 27.1137 52.0937 26.2254C52.2016 25.794 52.2904 25.4419 52.3602 25.1691C52.8043 23.4243 53.0264 22.5329 53.0264 22.4948C53.0264 22.4631 52.9344 22.4473 52.7504 22.4473H52.4553C52.0303 22.4473 51.7511 22.4663 51.6179 22.5044C51.3324 22.5678 51.1103 22.6979 50.9517 22.8946C50.7931 23.0912 50.6218 23.4592 50.4378 23.9985C50.3934 24.1381 50.3616 24.2206 50.3426 24.2459C50.3236 24.2713 50.2792 24.284 50.2094 24.284H50.1808Z" fill="black"/>
</svg>
