<svg width="219" height="187" viewBox="0 0 219 187" fill="none" xmlns="http://www.w3.org/2000/svg">
<line x1="3" y1="0.5" x2="216" y2="0.5" stroke="black"/>
<line x1="110.5" y1="1" x2="110.5" y2="153" stroke="black" stroke-dasharray="2 2"/>
<path d="M110.5 0.5L164.5 142.5" stroke="black"/>
<circle cx="164.5" cy="142.5" r="10.5" fill="black"/>
<path d="M185 141.153C185.014 141.072 185.034 140.963 185.061 140.828C185.088 140.692 185.169 140.434 185.305 140.055C185.441 139.675 185.576 139.357 185.712 139.099C185.847 138.842 186.064 138.591 186.362 138.347C186.661 138.103 186.959 137.987 187.257 138.001C187.555 138.015 187.847 138.062 188.132 138.143C188.416 138.225 188.62 138.347 188.742 138.509C188.864 138.672 188.972 138.821 189.067 138.957C189.162 139.092 189.216 139.221 189.23 139.343L189.27 139.486C189.27 139.513 189.277 139.526 189.291 139.526L189.514 139.302C190.328 138.435 191.283 138.001 192.382 138.001C192.612 138.001 192.822 138.015 193.012 138.042C193.202 138.069 193.378 138.116 193.541 138.184C193.703 138.252 193.832 138.32 193.927 138.387C194.022 138.455 194.124 138.537 194.232 138.631C194.341 138.726 194.408 138.814 194.435 138.896C194.463 138.977 194.517 139.065 194.598 139.16C194.679 139.255 194.707 139.336 194.679 139.404C194.652 139.472 194.673 139.533 194.74 139.587C194.808 139.641 194.822 139.689 194.781 139.73L194.944 139.526C195.798 138.509 196.808 138.001 197.974 138.001C198.706 138.001 199.295 138.184 199.743 138.55C200.19 138.916 200.421 139.452 200.434 140.157C200.434 140.848 200.177 141.919 199.661 143.369C199.146 144.82 198.889 145.688 198.889 145.972C198.902 146.162 198.936 146.291 198.99 146.359C199.045 146.426 199.146 146.46 199.295 146.46C199.675 146.46 200.028 146.257 200.353 145.85C200.678 145.444 200.943 144.888 201.146 144.183C201.187 144.034 201.227 143.946 201.268 143.919C201.309 143.891 201.417 143.878 201.593 143.878C201.864 143.878 202 143.932 202 144.041C202 144.054 201.973 144.156 201.919 144.346C201.81 144.739 201.661 145.125 201.471 145.505C201.281 145.884 200.97 146.264 200.536 146.643C200.102 147.023 199.634 147.206 199.133 147.192C198.496 147.192 198.035 147.009 197.75 146.643C197.465 146.277 197.323 145.898 197.323 145.505C197.323 145.247 197.567 144.434 198.055 143.064C198.543 141.695 198.794 140.665 198.807 139.974C198.807 139.174 198.509 138.774 197.913 138.774H197.811C196.645 138.774 195.662 139.458 194.862 140.828L194.72 141.072L194.049 143.797C193.602 145.572 193.344 146.528 193.276 146.664C193.1 147.03 192.809 147.213 192.402 147.213C192.226 147.213 192.083 147.165 191.975 147.07C191.866 146.976 191.792 146.894 191.751 146.826C191.711 146.759 191.69 146.691 191.69 146.623C191.69 146.474 191.921 145.505 192.382 143.715L193.114 140.746C193.154 140.543 193.175 140.285 193.175 139.974C193.175 139.174 192.876 138.774 192.28 138.774H192.178C191.012 138.774 190.03 139.458 189.23 140.828L189.087 141.072L188.416 143.797C187.969 145.572 187.711 146.528 187.644 146.664C187.467 147.03 187.176 147.213 186.769 147.213C186.593 147.213 186.451 147.172 186.342 147.091C186.234 147.009 186.159 146.928 186.118 146.847C186.078 146.765 186.064 146.698 186.078 146.643C186.078 146.467 186.335 145.356 186.85 143.308C187.379 141.221 187.644 140.129 187.644 140.035C187.684 139.831 187.705 139.648 187.705 139.486C187.705 138.997 187.535 138.753 187.196 138.753C186.898 138.753 186.647 138.943 186.444 139.323C186.24 139.702 186.085 140.116 185.976 140.563C185.868 141.011 185.786 141.255 185.732 141.295C185.705 141.322 185.596 141.336 185.407 141.336H185.122C185.041 141.255 185 141.194 185 141.153Z" fill="black"/>
<path d="M47 98L49.8868 93L44.1133 93L47 98ZM46.5 44L46.5 93.5L47.5 93.5L47.5 44L46.5 44Z" fill="black"/>
<path d="M34.4043 67.4894C34.1915 67.6738 33.8794 67.8724 33.4681 68.0851C33.0567 68.2979 32.6241 68.4043 32.1702 68.4043C31.2766 68.4043 30.5603 68.0851 30.0213 67.4468C29.4823 66.8085 29.2057 65.9929 29.1915 65C29.1915 63.5107 29.7376 62.1419 30.8298 60.8937C31.922 59.6454 33.1348 59.0142 34.4681 59C35.1348 59 35.7518 59.3405 36.3191 60.0213L36.383 59.9362C36.4113 59.8937 36.4468 59.8511 36.4894 59.8085C36.5319 59.766 36.5957 59.7093 36.6809 59.6383C36.766 59.5674 36.8582 59.5178 36.9574 59.4894C37.0567 59.461 37.1702 59.4397 37.2979 59.4256C37.4965 59.4256 37.6596 59.4894 37.7872 59.6171C37.9149 59.7447 37.9858 59.8795 38 60.0213C38 60.2341 37.5957 61.9504 36.7872 65.1702C35.9787 68.3901 35.5532 70.0355 35.5106 70.1064C35.2553 70.8724 34.7092 71.5036 33.8723 72C33.0355 72.4965 32.078 72.7518 31 72.766C29 72.766 28 72.2837 28 71.3192C28 70.9504 28.1277 70.6241 28.383 70.3405C28.6383 70.0568 28.9645 69.9149 29.3617 69.9149C29.5745 69.9149 29.773 69.9788 29.9574 70.1064C30.1418 70.2341 30.2411 70.4539 30.2553 70.766C30.2553 70.9078 30.2411 71.0426 30.2128 71.1702C30.1844 71.2979 30.1348 71.3972 30.0638 71.4681C29.9929 71.539 29.9362 71.61 29.8936 71.6809C29.8511 71.7518 29.8014 71.8085 29.7447 71.8511L29.7021 71.8937H29.7234C29.8652 71.9362 30.2908 71.9575 31 71.9575C31.539 71.9575 31.9645 71.8724 32.2766 71.7022C32.6028 71.5461 32.9078 71.3121 33.1915 71C33.4752 70.688 33.6738 70.3546 33.7872 70C33.8723 69.7305 33.9858 69.2908 34.1277 68.6809C34.3121 68 34.4043 67.6029 34.4043 67.4894ZM35.9574 61.4256L35.8723 61.1915C35.8298 61.0355 35.7943 60.9291 35.766 60.8724C35.7376 60.8156 35.695 60.7163 35.6383 60.5745C35.5816 60.4327 35.5106 60.3334 35.4255 60.2766C35.3404 60.2199 35.2482 60.1419 35.1489 60.0426C35.0496 59.9433 34.922 59.8795 34.766 59.8511C34.6099 59.8227 34.4539 59.8015 34.2979 59.7873C33.6738 59.7873 33.0709 60.1632 32.4894 60.9149C32.0638 61.4681 31.7092 62.3121 31.4255 63.4468C31.1418 64.5816 31 65.4043 31 65.9149C31 67.0355 31.4397 67.5958 32.3191 67.5958C33.1135 67.5958 33.8936 67.0993 34.6596 66.1064L34.8298 65.8937L35.9574 61.4256Z" fill="black"/>
<path d="M118 68.6441C118 67.2108 118.274 65.7003 118.822 64.1125C119.37 62.5246 120.115 61.1546 121.056 60.0024C121.998 58.8502 122.974 58.1898 123.986 58.0211C124 58.0211 124.056 58.0211 124.155 58.0211C124.253 58.0211 124.337 58.0141 124.407 58.0001C125.166 58.0563 125.756 58.4005 126.178 59.0328C126.726 59.8759 127 61.0071 127 62.4263C127 64.0422 126.684 65.6862 126.052 67.3584C125.419 69.0305 124.611 70.4005 123.628 71.4684C122.644 72.5364 121.703 73.0703 120.803 73.0703H120.656C120.15 73.0703 119.714 72.9298 119.349 72.6488C118.984 72.3677 118.71 71.9954 118.527 71.5317C118.344 71.068 118.211 70.5972 118.126 70.1195C118.042 69.6417 118 69.1499 118 68.6441ZM125.335 60.9298C125.335 59.4965 124.963 58.7799 124.218 58.7799C123.712 58.7799 123.22 59.0961 122.742 59.7284C122.265 60.3607 121.871 61.0773 121.562 61.8783C121.253 62.6792 121.014 63.3818 120.845 63.986C120.677 64.5902 120.585 64.9415 120.571 65.0399C121.26 65.0539 121.941 65.0609 122.616 65.0609L124.66 65.0399C124.674 65.0258 124.731 64.794 124.829 64.3443C124.927 63.8947 125.04 63.3326 125.166 62.6581C125.293 61.9837 125.349 61.4075 125.335 60.9298ZM119.644 70.0773C119.644 71.5668 120.016 72.3115 120.761 72.3115C120.972 72.3115 121.197 72.2413 121.436 72.1008C121.674 71.9602 121.963 71.6933 122.3 71.2998C122.637 70.9064 122.974 70.2951 123.311 69.4661C123.649 68.6371 123.986 67.6113 124.323 66.3888L124.429 66.0305H120.319C120.319 66.0727 120.255 66.3396 120.129 66.8314C120.002 67.3232 119.89 67.8712 119.792 68.4755C119.693 69.0797 119.644 69.6136 119.644 70.0773Z" fill="black"/>
<mask id="path-9-inside-1_40_285" fill="white">
<path d="M97 1H110V14H97V1Z"/>
</mask>
<path d="M97 1H110V14H97V1Z" fill="#E8E8E8"/>
<path d="M97 14H96V15H97V14ZM110 13H97V15H110V13ZM98 14V1H96V14H98Z" fill="black" mask="url(#path-9-inside-1_40_285)"/>
<path d="M150.559 81.5395C150.559 81.9737 150.724 82.1908 151.053 82.1908C151.539 82.1908 151.954 81.5 152.296 80.1184C152.375 79.8553 152.441 79.7171 152.493 79.704C152.52 79.6908 152.586 79.6842 152.691 79.6842H152.77C152.888 79.6842 152.967 79.6842 153.007 79.6842C153.046 79.6842 153.079 79.6974 153.105 79.7237C153.132 79.75 153.145 79.7961 153.145 79.8619C153.132 79.9408 153.112 80.0461 153.086 80.1777C153.059 80.3092 152.987 80.5592 152.868 80.9277C152.75 81.2961 152.618 81.6053 152.474 81.8553C152.329 82.1053 152.125 82.3487 151.862 82.5856C151.599 82.8224 151.296 82.9342 150.954 82.9211C150.48 82.9211 150.039 82.7763 149.632 82.4869C149.224 82.1974 149.013 81.7106 149 81.0263C149 80.8684 149.007 80.7566 149.02 80.6908L150.303 75.5987C151.132 72.2434 151.546 70.5132 151.546 70.4079C151.546 70.3684 151.539 70.3355 151.526 70.3092C151.513 70.2829 151.487 70.2566 151.447 70.2303C151.408 70.204 151.375 70.1908 151.349 70.1908C151.322 70.1908 151.27 70.1842 151.191 70.1711C151.112 70.1579 151.059 70.1513 151.033 70.1513C151.007 70.1513 150.947 70.1448 150.855 70.1316C150.763 70.1184 150.697 70.1184 150.658 70.1316C150.526 70.1316 150.441 70.1316 150.401 70.1316C150.362 70.1316 150.309 70.125 150.243 70.1119C150.178 70.0987 150.138 70.079 150.125 70.0527C150.112 70.0263 150.105 69.9869 150.105 69.9342C150.105 69.9079 150.118 69.8158 150.145 69.6579C150.211 69.4079 150.283 69.2698 150.362 69.2434C150.441 69.2171 150.914 69.1777 151.783 69.125C151.98 69.1119 152.204 69.0987 152.454 69.0855C152.704 69.0724 152.901 69.0527 153.046 69.0263C153.191 69 153.263 68.9934 153.263 69.0066C153.421 69.0066 153.5 69.0592 153.5 69.1645C153.5 69.3092 153.02 71.2829 152.059 75.0856C151.099 78.8882 150.605 80.8816 150.579 81.0658C150.579 81.0921 150.579 81.1448 150.579 81.2237C150.579 81.3027 150.572 81.3684 150.559 81.4211V81.5395Z" fill="black"/>
</svg>
