<svg width="143" height="206" viewBox="0 0 143 206" fill="none" xmlns="http://www.w3.org/2000/svg">
<line x1="10.5" y1="18" x2="10.5" y2="183" stroke="black"/>
<line x1="10" y1="182.5" x2="130" y2="182.5" stroke="black"/>
<path d="M88.18 196.363C88 196.363 87.8567 196.303 87.75 196.183C87.6433 196.063 87.59 195.916 87.59 195.743C87.59 195.27 87.7667 194.86 88.12 194.513C88.4733 194.166 88.9133 193.993 89.44 193.993C90.0467 193.993 90.5533 194.18 90.96 194.553C91.3667 194.926 91.5733 195.41 91.58 196.003C91.58 196.29 91.5133 196.563 91.38 196.823C91.2467 197.083 91.0867 197.31 90.9 197.503C90.7133 197.696 90.4467 197.943 90.1 198.243C89.86 198.45 89.5267 198.756 89.1 199.163L88.51 199.723L89.27 199.733C90.3167 199.733 90.8733 199.716 90.94 199.683C90.9867 199.67 91.0667 199.373 91.18 198.793V198.763H91.58V198.793C91.5733 198.813 91.53 199.116 91.45 199.703C91.37 200.29 91.32 200.596 91.3 200.623V200.653H87.59V200.463V200.343C87.59 200.296 87.61 200.246 87.65 200.193C87.69 200.14 87.79 200.023 87.95 199.843C88.1433 199.63 88.31 199.443 88.45 199.283C88.51 199.216 88.6233 199.093 88.79 198.913C88.9567 198.733 89.07 198.61 89.13 198.543C89.19 198.476 89.2867 198.366 89.42 198.213C89.5533 198.06 89.6467 197.946 89.7 197.873C89.7533 197.8 89.83 197.7 89.93 197.573C90.03 197.446 90.1 197.34 90.14 197.253C90.18 197.166 90.23 197.07 90.29 196.963C90.35 196.856 90.3933 196.75 90.42 196.643C90.4467 196.536 90.47 196.436 90.49 196.343C90.51 196.25 90.52 196.14 90.52 196.013C90.52 195.593 90.4067 195.23 90.18 194.923C89.9533 194.616 89.63 194.463 89.21 194.463C88.99 194.463 88.7967 194.52 88.63 194.633C88.4633 194.746 88.3467 194.856 88.28 194.963C88.2133 195.07 88.18 195.133 88.18 195.153C88.18 195.16 88.1967 195.163 88.23 195.163C88.35 195.163 88.4733 195.21 88.6 195.303C88.7267 195.396 88.79 195.55 88.79 195.763C88.79 195.93 88.7367 196.07 88.63 196.183C88.5233 196.296 88.3733 196.356 88.18 196.363Z" fill="black"/>
<path d="M93.46 193.823C93.4666 193.823 93.7066 193.806 94.18 193.773C94.6533 193.74 94.8966 193.72 94.91 193.713C94.99 193.713 95.03 193.743 95.03 193.803C95.03 193.876 94.91 194.38 94.67 195.313C94.4166 196.3 94.29 196.803 94.29 196.823C94.29 196.836 94.3133 196.82 94.36 196.773C94.7666 196.413 95.2 196.233 95.66 196.233C96.02 196.233 96.31 196.323 96.53 196.503C96.75 196.683 96.8633 196.946 96.87 197.293C96.87 197.633 96.7433 198.16 96.49 198.873C96.2366 199.586 96.11 200.013 96.11 200.153C96.1166 200.246 96.1333 200.31 96.16 200.343C96.1866 200.376 96.2366 200.393 96.31 200.393C96.4966 200.393 96.67 200.293 96.83 200.093C96.99 199.893 97.12 199.62 97.22 199.273C97.24 199.2 97.26 199.156 97.28 199.143C97.3 199.13 97.3533 199.123 97.44 199.123C97.5733 199.123 97.64 199.15 97.64 199.203C97.64 199.21 97.6266 199.26 97.6 199.353C97.4933 199.746 97.3233 200.07 97.09 200.323C96.8633 200.61 96.5933 200.753 96.28 200.753H96.23C95.9166 200.753 95.69 200.663 95.55 200.483C95.41 200.303 95.34 200.113 95.34 199.913C95.34 199.806 95.46 199.413 95.7 198.733C95.94 198.053 96.0633 197.543 96.07 197.203C96.07 196.81 95.9233 196.613 95.63 196.613H95.58C95.0266 196.613 94.5466 196.94 94.14 197.593L94.07 197.723L93.73 199.073C93.5166 199.94 93.3933 200.413 93.36 200.493C93.2733 200.673 93.1266 200.763 92.92 200.763C92.8266 200.763 92.7466 200.733 92.68 200.673C92.6133 200.613 92.5766 200.553 92.57 200.493C92.57 200.4 92.8133 199.386 93.3 197.453L94.04 194.493C94.04 194.406 94.0166 194.353 93.97 194.333C93.9233 194.313 93.7933 194.296 93.58 194.283H93.37C93.33 194.243 93.31 194.216 93.31 194.203C93.31 194.19 93.3166 194.126 93.33 194.013C93.3633 193.886 93.4066 193.823 93.46 193.823Z" fill="black"/>
<path d="M102.08 193.153C102.14 193.153 102.19 193.173 102.23 193.213C102.27 193.253 102.29 193.3 102.29 193.353C102.29 193.386 101.713 194.993 100.56 198.173C99.4066 201.353 98.81 202.98 98.77 203.053C98.7233 203.12 98.6666 203.153 98.6 203.153C98.5533 203.153 98.51 203.136 98.47 203.103C98.43 203.07 98.41 203.023 98.41 202.963C98.41 202.896 98.99 201.27 100.15 198.083C101.31 194.896 101.9 193.286 101.92 193.253C101.947 193.186 102 193.153 102.08 193.153Z" fill="black"/>
<path d="M105.96 200.223C105.86 200.31 105.713 200.403 105.52 200.503C105.327 200.603 105.123 200.653 104.91 200.653C104.49 200.653 104.153 200.503 103.9 200.203C103.647 199.903 103.517 199.52 103.51 199.053C103.51 198.353 103.767 197.71 104.28 197.123C104.793 196.536 105.363 196.24 105.99 196.233C106.303 196.233 106.593 196.393 106.86 196.713L106.89 196.673C106.903 196.653 106.92 196.633 106.94 196.613C106.96 196.593 106.99 196.566 107.03 196.533C107.07 196.5 107.113 196.476 107.16 196.463C107.207 196.45 107.26 196.44 107.32 196.433C107.413 196.433 107.49 196.463 107.55 196.523C107.61 196.583 107.643 196.646 107.65 196.713C107.65 196.813 107.46 197.62 107.08 199.133C106.7 200.646 106.5 201.42 106.48 201.453C106.36 201.813 106.103 202.11 105.71 202.343C105.317 202.576 104.867 202.696 104.36 202.703C103.42 202.703 102.95 202.476 102.95 202.023C102.95 201.85 103.01 201.696 103.13 201.563C103.25 201.43 103.403 201.363 103.59 201.363C103.69 201.363 103.783 201.393 103.87 201.453C103.957 201.513 104.003 201.616 104.01 201.763C104.01 201.83 104.003 201.893 103.99 201.953C103.977 202.013 103.953 202.06 103.92 202.093C103.887 202.126 103.86 202.16 103.84 202.193C103.82 202.226 103.797 202.253 103.77 202.273L103.75 202.293H103.76C103.827 202.313 104.027 202.323 104.36 202.323C104.613 202.323 104.813 202.283 104.96 202.203C105.113 202.13 105.257 202.02 105.39 201.873C105.523 201.726 105.617 201.57 105.67 201.403C105.71 201.276 105.763 201.07 105.83 200.783C105.917 200.463 105.96 200.276 105.96 200.223ZM106.69 197.373L106.65 197.263C106.63 197.19 106.613 197.14 106.6 197.113C106.587 197.086 106.567 197.04 106.54 196.973C106.513 196.906 106.48 196.86 106.44 196.833C106.4 196.806 106.357 196.77 106.31 196.723C106.263 196.676 106.203 196.646 106.13 196.633C106.057 196.62 105.983 196.61 105.91 196.603C105.617 196.603 105.333 196.78 105.06 197.133C104.86 197.393 104.693 197.79 104.56 198.323C104.427 198.856 104.36 199.243 104.36 199.483C104.36 200.01 104.567 200.273 104.98 200.273C105.353 200.273 105.72 200.04 106.08 199.573L106.16 199.473L106.69 197.373Z" fill="black"/>
<path d="M86.9 188C87.0067 188 87.07 188.06 87.09 188.18C87.09 188.213 86.16 191.173 84.3 197.06L81.49 205.93C81.4433 205.977 81.3633 206 81.25 206H81.13C81.1233 205.98 81.12 205.963 81.12 205.95C81.12 205.937 81.1133 205.92 81.1 205.9C81.0867 205.88 81.08 205.85 81.08 205.81C81.08 205.77 81.0667 205.723 81.04 205.67C81.0133 205.617 80.99 205.54 80.97 205.44C80.95 205.34 80.92 205.227 80.88 205.1C80.84 204.973 80.7933 204.813 80.74 204.62C80.6867 204.427 80.6267 204.213 80.56 203.98C80.4933 203.747 80.4133 203.467 80.32 203.14C80.2267 202.813 80.1233 202.463 80.01 202.09L78.92 198.31L78.27 199.09L78 198.83L79.01 197.62L79.53 197.02L81.61 204.24L86.72 188.1C86.7533 188.033 86.8133 188 86.9 188Z" fill="black"/>
<path d="M107.62 188.6H87.09V188H107.62V188.6Z" fill="black"/>
<path d="M96 182.512C84.1667 138.846 50.4 51.8123 10 53.0123" stroke="black"/>
<path d="M139.09 181.1C139.03 181.04 139 180.997 139 180.971C139 180.937 139.013 180.868 139.039 180.765C139.064 180.662 139.086 180.602 139.103 180.585C139.12 180.542 139.159 180.521 139.219 180.521C139.279 180.521 139.497 180.517 139.875 180.508H140.556L140.801 179.479C140.826 179.385 140.856 179.26 140.891 179.106C140.925 178.952 140.955 178.84 140.981 178.772C141.006 178.703 141.032 178.617 141.058 178.514C141.084 178.412 141.118 178.339 141.161 178.296C141.204 178.253 141.247 178.202 141.289 178.141C141.332 178.081 141.392 178.043 141.469 178.026C141.547 178.009 141.624 178 141.701 178C141.855 178.009 141.962 178.056 142.023 178.141C142.083 178.227 142.113 178.309 142.113 178.386C142.113 178.446 142.074 178.647 141.997 178.99C141.92 179.333 141.834 179.672 141.74 180.006L141.611 180.482C141.611 180.499 141.825 180.508 142.254 180.508H142.91C142.97 180.568 143 180.615 143 180.65C143 180.838 142.944 180.988 142.833 181.1H141.457L140.994 182.965C140.659 184.337 140.492 185.074 140.492 185.177C140.492 185.537 140.608 185.717 140.839 185.717C141.139 185.717 141.431 185.571 141.714 185.28C141.997 184.988 142.224 184.628 142.395 184.199C142.413 184.148 142.434 184.118 142.46 184.109C142.486 184.101 142.55 184.092 142.653 184.084H142.704C142.833 184.084 142.897 184.118 142.897 184.187C142.897 184.212 142.884 184.264 142.859 184.341C142.816 184.478 142.738 184.641 142.627 184.83C142.516 185.018 142.37 185.22 142.19 185.434C142.01 185.648 141.791 185.829 141.534 185.974C141.277 186.12 141.015 186.193 140.749 186.193C140.492 186.193 140.248 186.129 140.016 186C139.785 185.871 139.617 185.648 139.514 185.331C139.497 185.263 139.489 185.147 139.489 184.984V184.752L139.939 182.952C140.239 181.743 140.393 181.134 140.402 181.125C140.402 181.108 140.183 181.1 139.746 181.1H139.09Z" fill="black"/>
<path d="M1.96548 49.1194C1.97272 49.1194 2.23307 49.1013 2.74655 49.0651C3.26003 49.0289 3.524 49.0073 3.53846 49C3.62525 49 3.66864 49.0326 3.66864 49.0977C3.66864 49.1772 3.53846 49.7232 3.27811 50.7357C3.00329 51.8061 2.86588 52.3521 2.86588 52.3738C2.86588 52.3883 2.89119 52.3702 2.94181 52.3195C3.38297 51.929 3.85306 51.7337 4.35207 51.7337C4.7426 51.7337 5.0572 51.8314 5.29586 52.0266C5.53452 52.2219 5.65746 52.5076 5.66469 52.8836C5.66469 53.2525 5.52728 53.8238 5.25247 54.5977C4.97765 55.3715 4.84024 55.8343 4.84024 55.9862C4.84747 56.0875 4.86555 56.1562 4.89448 56.1923C4.92341 56.2285 4.97765 56.2466 5.0572 56.2466C5.2597 56.2466 5.44773 56.1381 5.6213 55.9211C5.79487 55.7042 5.9359 55.4076 6.04438 55.0316C6.06608 54.952 6.08777 54.905 6.10947 54.8906C6.13116 54.8761 6.18902 54.8689 6.28304 54.8689C6.42768 54.8689 6.5 54.8978 6.5 54.9556C6.5 54.9629 6.48554 55.0171 6.45661 55.1184C6.34089 55.5451 6.15648 55.8958 5.90335 56.1706C5.65746 56.4816 5.36456 56.6371 5.02465 56.6371H4.97041C4.63051 56.6371 4.38462 56.5395 4.23274 56.3442C4.08087 56.1489 4.00493 55.9428 4.00493 55.7259C4.00493 55.6101 4.13511 55.1835 4.39546 54.4458C4.65582 53.7081 4.78961 53.1549 4.79684 52.786C4.79684 52.3593 4.63774 52.146 4.31953 52.146H4.26529C3.66502 52.146 3.14431 52.5003 2.70316 53.2091L2.62722 53.3501L2.25838 54.8146C2.02696 55.7548 1.89316 56.2683 1.857 56.355C1.76298 56.5503 1.60388 56.6479 1.37968 56.6479C1.27844 56.6479 1.19165 56.6154 1.11933 56.5503C1.04701 56.4852 1.00723 56.4201 1 56.355C1 56.2538 1.26397 55.1545 1.79191 53.0572L2.59467 49.8462C2.59467 49.7522 2.56936 49.6943 2.51874 49.6726C2.46811 49.6509 2.32709 49.6328 2.09566 49.6184H1.86785C1.82446 49.575 1.80276 49.546 1.80276 49.5316C1.80276 49.5171 1.80999 49.4484 1.82446 49.3255C1.86062 49.1881 1.90763 49.1194 1.96548 49.1194Z" fill="black"/>
<path d="M0 6.10591C0 5.98283 0.0659386 5.77182 0.197816 5.4729C0.329693 5.17398 0.540696 4.86187 0.830826 4.53658C1.12096 4.21128 1.44625 4.05303 1.80672 4.06182C2.16718 4.06182 2.45731 4.16292 2.67711 4.36514C2.8969 4.56735 3.01119 4.84868 3.01999 5.20915C3.0024 5.37619 2.98922 5.46851 2.98042 5.48609C2.98042 5.51247 2.91009 5.71468 2.76942 6.09273C2.62875 6.47077 2.48369 6.89718 2.33423 7.37193C2.18476 7.84669 2.11443 8.22474 2.12322 8.50608C2.12322 8.88413 2.18476 9.14788 2.30785 9.29734C2.43094 9.4468 2.61556 9.52593 2.86173 9.53472C3.06395 9.53472 3.25297 9.48636 3.42881 9.38965C3.60464 9.29294 3.74091 9.19184 3.83762 9.08634C3.93433 8.98084 4.05302 8.83577 4.19369 8.65114C4.19369 8.64235 4.21567 8.55443 4.25963 8.38739C4.30359 8.22034 4.36513 7.96099 4.44426 7.60931C4.52339 7.25764 4.60691 6.93234 4.69483 6.63342C5.02891 5.31465 5.21354 4.62449 5.24871 4.56295C5.363 4.32557 5.55203 4.20688 5.81578 4.20688C5.93008 4.20688 6.02239 4.23765 6.09272 4.2992C6.16306 4.36074 6.21141 4.41349 6.23779 4.45745C6.26416 4.50141 6.27296 4.54097 6.26416 4.57614C6.26416 4.69043 6.04876 5.61357 5.61797 7.34556C5.18717 9.07755 4.941 10.0271 4.87945 10.1941C4.63328 10.9238 4.20688 11.5041 3.60025 11.9349C2.99361 12.3657 2.38698 12.5855 1.78034 12.5943C1.38471 12.5943 1.03743 12.4976 0.738512 12.3041C0.43959 12.1107 0.29013 11.8206 0.29013 11.4337C0.29013 11.2403 0.320901 11.0777 0.382444 10.9458C0.443986 10.8139 0.527509 10.7172 0.63301 10.6557C0.738512 10.5941 0.82643 10.5502 0.896765 10.5238C0.967099 10.4974 1.04183 10.4842 1.12096 10.4842C1.5078 10.4842 1.70122 10.6689 1.70122 11.0381C1.70122 11.214 1.64846 11.3678 1.54296 11.4997C1.43746 11.6316 1.33636 11.7195 1.23965 11.7634C1.14294 11.8074 1.08579 11.8294 1.0682 11.8294L1.02864 11.8426C1.04623 11.8865 1.12975 11.9393 1.27921 12.0008C1.42867 12.0624 1.57813 12.0931 1.72759 12.0931H1.83309C1.98255 12.0931 2.09685 12.0843 2.17597 12.0668C2.4661 11.9876 2.73425 11.8206 2.98042 11.5656C3.22659 11.3107 3.41562 11.0381 3.5475 10.748C3.67937 10.4579 3.78048 10.2117 3.85081 10.0095C3.92115 9.80727 3.95631 9.67539 3.95631 9.61385L3.87719 9.6666C3.82444 9.70176 3.74091 9.75012 3.62662 9.81166C3.51233 9.8732 3.39803 9.92595 3.28374 9.96991C3.1079 10.0139 2.93646 10.0359 2.76942 10.0359C2.365 10.0359 2.00893 9.93914 1.70122 9.74572C1.3935 9.5523 1.19129 9.24019 1.09458 8.80939C1.08579 8.74785 1.08139 8.61158 1.08139 8.40058C1.08139 7.89944 1.23525 7.24445 1.54296 6.43561C1.85068 5.62676 2.00453 5.11244 2.00453 4.89264C2.00453 4.88385 2.00453 4.87506 2.00453 4.86627C2.00453 4.78714 2.00453 4.73439 2.00453 4.70802C2.00453 4.68164 1.98695 4.65087 1.95178 4.6157C1.91661 4.58053 1.86826 4.56295 1.80672 4.56295H1.75397C1.55175 4.56295 1.36713 4.64647 1.20008 4.81352C1.03304 4.98056 0.90116 5.16079 0.804451 5.35421C0.707741 5.54763 0.63301 5.73226 0.580259 5.9081C0.527509 6.08393 0.492341 6.18064 0.474758 6.19823C0.457174 6.21581 0.38684 6.2246 0.263754 6.2246H0.0791263C0.0263754 6.17185 0 6.13229 0 6.10591Z" fill="black"/>
<path d="M7.42468 6.59386C7.42468 5.98722 7.46864 5.41136 7.55656 4.86627C7.64448 4.32117 7.74558 3.85081 7.85988 3.45518C7.97417 3.05955 8.13682 2.67271 8.34782 2.29466C8.55883 1.91661 8.72587 1.62209 8.84896 1.41109C8.97204 1.20008 9.15667 0.971495 9.40284 0.725324C9.64901 0.479153 9.79408 0.329693 9.83803 0.276942C9.88199 0.224191 9.99189 0.131877 10.1677 -2.98023e-07H10.3392H10.3919C10.515 -2.98023e-07 10.5765 0.0395628 10.5765 0.118689C10.5765 0.145065 10.5018 0.237379 10.3524 0.395631C10.2029 0.553884 10.0227 0.786867 9.81166 1.09458C9.60066 1.40229 9.38526 1.78034 9.16546 2.22872C8.94567 2.67711 8.76104 3.28374 8.61158 4.04863C8.46212 4.81352 8.38739 5.66192 8.38739 6.59386C8.38739 7.52579 8.46212 8.3698 8.61158 9.1259C8.76104 9.88199 8.94127 10.493 9.15227 10.959C9.36328 11.425 9.57868 11.803 9.79847 12.0931C10.0183 12.3833 10.2029 12.6162 10.3524 12.7921C10.5018 12.9679 10.5765 13.0602 10.5765 13.069C10.5765 13.1482 10.5106 13.1877 10.3787 13.1877H10.3392H10.1677L9.79847 12.8712C8.97204 12.1239 8.3698 11.192 7.99175 10.0754C7.61371 8.95885 7.42468 7.79833 7.42468 6.59386Z" fill="black"/>
<path d="M11.6579 4.81352C11.5964 4.75198 11.5656 4.70802 11.5656 4.68165C11.5656 4.64648 11.5788 4.57614 11.6052 4.47064C11.6316 4.36514 11.6535 4.3036 11.6711 4.28601C11.6887 4.24206 11.7283 4.22008 11.7898 4.22008C11.8513 4.22008 12.0755 4.21568 12.4624 4.20689H13.1613L13.4119 3.15187C13.4383 3.05516 13.469 2.92768 13.5042 2.76943C13.5394 2.61118 13.5701 2.49688 13.5965 2.42655C13.6229 2.35621 13.6493 2.26829 13.6756 2.16279C13.702 2.05729 13.7372 1.98256 13.7811 1.9386C13.8251 1.89464 13.8691 1.84189 13.913 1.78035C13.957 1.71881 14.0185 1.67924 14.0977 1.66166C14.1768 1.64408 14.2559 1.63528 14.335 1.63528C14.4933 1.64408 14.6032 1.69243 14.6647 1.78035C14.7263 1.86827 14.757 1.95179 14.757 2.03092C14.757 2.09246 14.7175 2.29907 14.6384 2.65074C14.5592 3.00241 14.4713 3.34969 14.3746 3.69257L14.2427 4.18051C14.2427 4.1981 14.4625 4.20689 14.9021 4.20689H15.5747C15.6362 4.26843 15.667 4.31679 15.667 4.35195C15.667 4.54537 15.6098 4.69923 15.4956 4.81352H14.0845L13.6097 6.72574C13.2668 8.13243 13.0954 8.88853 13.0954 8.99403C13.0954 9.36328 13.2141 9.54791 13.4515 9.54791C13.7592 9.54791 14.0581 9.39845 14.3482 9.09953C14.6384 8.80061 14.8713 8.43135 15.0472 7.99176C15.0648 7.93901 15.0867 7.90824 15.1131 7.89945C15.1395 7.89066 15.2054 7.88186 15.3109 7.87307H15.3637C15.4956 7.87307 15.5615 7.90824 15.5615 7.97857C15.5615 8.00495 15.5483 8.0577 15.5219 8.13683C15.478 8.2775 15.3988 8.44454 15.2845 8.63796C15.1703 8.83138 15.0208 9.03799 14.8362 9.25778C14.6515 9.47758 14.4273 9.66221 14.1636 9.81167C13.8998 9.96113 13.6317 10.0359 13.3591 10.0359C13.0954 10.0359 12.8448 9.96992 12.6074 9.83804C12.3701 9.70617 12.1986 9.47758 12.0931 9.15228C12.0755 9.08195 12.0667 8.96326 12.0667 8.79621V8.55883L12.5283 6.71255C12.836 5.47291 12.9943 4.84869 13.0031 4.8399C13.0031 4.82232 12.7789 4.81352 12.3305 4.81352H11.6579Z" fill="black"/>
<path d="M16.8671 0.0131874L16.9198 -2.98023e-07C16.9638 -2.98023e-07 17.0078 -2.98023e-07 17.0517 -2.98023e-07H17.21L17.5792 0.316505C18.4057 1.06381 19.0079 1.99574 19.3859 3.1123C19.764 4.22886 19.953 5.38938 19.953 6.59386C19.953 7.1917 19.9091 7.76756 19.8211 8.32145C19.7332 8.87533 19.6321 9.34569 19.5178 9.73253C19.4035 10.1194 19.2409 10.5062 19.0299 10.8931C18.8189 11.2799 18.6518 11.5744 18.5287 11.7766C18.4057 11.9788 18.2254 12.203 17.988 12.4492C17.7507 12.6954 17.61 12.8404 17.566 12.8844C17.5221 12.9284 17.421 13.0119 17.2627 13.135C17.2363 13.1613 17.2188 13.1789 17.21 13.1877H17.0517C16.9814 13.1877 16.933 13.1877 16.9066 13.1877C16.8803 13.1877 16.8583 13.1745 16.8407 13.1482C16.8231 13.1218 16.8099 13.0822 16.8011 13.0295C16.8099 13.0207 16.8583 12.9635 16.9462 12.858C18.3089 11.4425 18.9903 9.35448 18.9903 6.59386C18.9903 3.83323 18.3089 1.74517 16.9462 0.329693C16.8583 0.224191 16.8099 0.167044 16.8011 0.158252C16.8011 0.0879178 16.8231 0.0395628 16.8671 0.0131874Z" fill="black"/>
</svg>
