<svg width="180" height="183" viewBox="0 0 180 183" fill="none" xmlns="http://www.w3.org/2000/svg">
<path d="M162 133L157 130.113L157 135.887L162 133ZM-4.37114e-08 133.5L157.5 133.5L157.5 132.5L4.37114e-08 132.5L-4.37114e-08 133.5Z" fill="black"/>
<path d="M52 24L49.1133 29L54.8868 29L52 24ZM52.5 183L52.5 28.5L51.5 28.5L51.5 183L52.5 183Z" fill="black"/>
<path d="M170.349 131.142C170.445 130.567 170.815 129.903 171.458 129.15C172.101 128.397 172.895 128.014 173.84 128C174.319 128 174.757 128.123 175.154 128.37C175.551 128.616 175.845 128.924 176.037 129.294C176.612 128.431 177.303 128 178.111 128C178.617 128 179.055 128.15 179.425 128.452C179.795 128.753 179.986 129.157 180 129.663C180 130.06 179.904 130.382 179.713 130.628C179.521 130.875 179.336 131.025 179.158 131.08C178.98 131.135 178.823 131.162 178.686 131.162C178.426 131.162 178.214 131.087 178.049 130.936C177.885 130.786 177.803 130.587 177.803 130.341C177.803 129.711 178.145 129.28 178.83 129.047C178.679 128.869 178.405 128.78 178.008 128.78C177.83 128.78 177.7 128.794 177.618 128.821C177.098 129.04 176.715 129.492 176.468 130.176C175.647 133.202 175.236 134.968 175.236 135.474C175.236 135.858 175.346 136.131 175.565 136.296C175.784 136.46 176.023 136.542 176.283 136.542C176.79 136.542 177.29 136.316 177.782 135.864C178.275 135.413 178.611 134.858 178.789 134.201C178.83 134.064 178.871 133.989 178.912 133.975C178.953 133.962 179.062 133.948 179.24 133.934H179.322C179.528 133.934 179.63 133.989 179.63 134.098C179.63 134.112 179.617 134.187 179.589 134.324C179.37 135.105 178.946 135.796 178.316 136.398C177.687 137.001 176.954 137.302 176.119 137.302C175.161 137.302 174.435 136.871 173.943 136.008C173.381 136.857 172.738 137.281 172.012 137.281H171.889C171.218 137.281 170.739 137.103 170.452 136.747C170.164 136.391 170.014 136.015 170 135.618C170 135.18 170.13 134.824 170.39 134.55C170.65 134.276 170.958 134.14 171.314 134.14C171.903 134.14 172.197 134.427 172.197 135.002C172.197 135.276 172.115 135.515 171.951 135.721C171.786 135.926 171.629 136.063 171.478 136.131C171.328 136.2 171.239 136.234 171.211 136.234L171.15 136.255C171.15 136.268 171.191 136.296 171.273 136.337C171.355 136.378 171.465 136.426 171.602 136.48C171.739 136.535 171.869 136.556 171.992 136.542C172.485 136.542 172.909 136.234 173.265 135.618C173.388 135.399 173.546 134.934 173.737 134.222C173.929 133.51 174.12 132.771 174.312 132.004C174.504 131.237 174.613 130.786 174.641 130.649C174.709 130.279 174.743 130.012 174.743 129.848C174.743 129.465 174.641 129.191 174.435 129.027C174.23 128.862 173.997 128.78 173.737 128.78C173.19 128.78 172.676 128.999 172.197 129.437C171.718 129.875 171.383 130.437 171.191 131.121C171.164 131.244 171.129 131.313 171.088 131.326C171.047 131.34 170.938 131.354 170.76 131.367H170.472C170.39 131.285 170.349 131.21 170.349 131.142Z" fill="black"/>
<path d="M47 3.26205C47 3.06567 47.1052 2.729 47.3156 2.25206C47.526 1.77512 47.8627 1.27713 48.3256 0.758107C48.7885 0.239082 49.3076 -0.0134169 49.8827 0.000610834C50.4578 0.000610834 50.9207 0.161929 51.2714 0.484567C51.6221 0.807204 51.8045 1.25609 51.8185 1.83123C51.7905 2.09775 51.7694 2.24504 51.7554 2.2731C51.7554 2.31518 51.6432 2.63782 51.4187 3.24101C51.1943 3.8442 50.9628 4.52455 50.7244 5.28204C50.4859 6.03954 50.3737 6.64273 50.3877 7.09162C50.3877 7.69481 50.4859 8.11564 50.6823 8.35411C50.8787 8.59258 51.1732 8.71883 51.566 8.73286C51.8887 8.73286 52.1903 8.65571 52.4708 8.5014C52.7514 8.3471 52.9688 8.18578 53.1231 8.01745C53.2774 7.84911 53.4668 7.61766 53.6912 7.32307C53.6912 7.30905 53.7263 7.16877 53.7964 6.90224C53.8666 6.63572 53.9648 6.2219 54.091 5.66079C54.2173 5.09968 54.3505 4.58066 54.4908 4.10372C55.0238 1.99956 55.3184 0.898384 55.3745 0.80019C55.5569 0.421442 55.8585 0.232068 56.2793 0.232068C56.4617 0.232068 56.609 0.281165 56.7212 0.379359C56.8334 0.477553 56.9106 0.561719 56.9527 0.631858C56.9947 0.701996 57.0088 0.765121 56.9947 0.821232C56.9947 1.00359 56.6511 2.4765 55.9637 5.23996C55.2763 8.00342 54.8836 9.51841 54.7854 9.78494C54.3926 10.9492 53.7123 11.8751 52.7443 12.5624C51.7764 13.2498 50.8085 13.6005 49.8406 13.6145C49.2094 13.6145 48.6553 13.4602 48.1783 13.1516C47.7014 12.843 47.4629 12.3801 47.4629 11.7628C47.4629 11.4542 47.512 11.1947 47.6102 10.9843C47.7084 10.7739 47.8417 10.6196 48.01 10.5214C48.1783 10.4232 48.3186 10.3531 48.4308 10.311C48.543 10.2689 48.6623 10.2479 48.7885 10.2479C49.4058 10.2479 49.7144 10.5424 49.7144 11.1316C49.7144 11.4122 49.6302 11.6576 49.4619 11.8681C49.2935 12.0785 49.1322 12.2187 48.9779 12.2889C48.8236 12.359 48.7324 12.3941 48.7044 12.3941L48.6412 12.4151C48.6693 12.4853 48.8026 12.5694 49.041 12.6676C49.2795 12.7658 49.518 12.8149 49.7564 12.8149H49.9248C50.1632 12.8149 50.3456 12.8009 50.4719 12.7728C50.9348 12.6466 51.3626 12.3801 51.7554 11.9733C52.1482 11.5665 52.4498 11.1316 52.6602 10.6687C52.8706 10.2058 53.0319 9.81299 53.1441 9.49036C53.2564 9.16772 53.3125 8.9573 53.3125 8.85911L53.1862 8.94328C53.1021 8.99939 52.9688 9.07654 52.7864 9.17473C52.6041 9.27293 52.4217 9.35709 52.2393 9.42723C51.9588 9.49737 51.6853 9.53244 51.4187 9.53244C50.7735 9.53244 50.2053 9.37813 49.7144 9.06952C49.2234 8.76091 48.9008 8.26293 48.7464 7.57557C48.7324 7.47738 48.7254 7.25995 48.7254 6.92328C48.7254 6.12371 48.9709 5.07864 49.4619 3.78809C49.9528 2.49754 50.1983 1.67692 50.1983 1.32623C50.1983 1.3122 50.1983 1.29817 50.1983 1.28415C50.1983 1.1579 50.1983 1.07373 50.1983 1.03165C50.1983 0.989564 50.1703 0.940467 50.1142 0.884356C50.058 0.828246 49.9809 0.80019 49.8827 0.80019H49.7985C49.4759 0.80019 49.1813 0.933453 48.9148 1.19998C48.6483 1.46651 48.4378 1.75407 48.2835 2.06268C48.1292 2.37129 48.01 2.66588 47.9258 2.94643C47.8417 3.22698 47.7856 3.38129 47.7575 3.40934C47.7294 3.4374 47.6172 3.45143 47.4208 3.45143H47.1262C47.0421 3.36726 47 3.30414 47 3.26205Z" fill="black"/>
<circle cx="106.75" cy="77.75" r="2.75" fill="black"/>
<path d="M98.2957 143.775C98.3769 143.288 98.6901 142.726 99.2352 142.088C99.7803 141.45 100.453 141.125 101.253 141.114C101.659 141.114 102.03 141.218 102.367 141.427C102.703 141.636 102.952 141.897 103.115 142.21C103.602 141.479 104.187 141.114 104.872 141.114C105.301 141.114 105.672 141.241 105.985 141.497C106.298 141.752 106.461 142.094 106.472 142.523C106.472 142.859 106.391 143.132 106.229 143.341C106.066 143.549 105.91 143.677 105.759 143.723C105.608 143.77 105.475 143.793 105.359 143.793C105.138 143.793 104.959 143.729 104.82 143.602C104.68 143.474 104.611 143.306 104.611 143.097C104.611 142.564 104.901 142.198 105.481 142.001C105.353 141.85 105.121 141.775 104.785 141.775C104.634 141.775 104.524 141.786 104.454 141.81C104.013 141.995 103.689 142.378 103.48 142.958C102.784 145.521 102.436 147.017 102.436 147.446C102.436 147.771 102.529 148.003 102.715 148.142C102.9 148.281 103.103 148.351 103.323 148.351C103.753 148.351 104.176 148.159 104.593 147.777C105.011 147.394 105.295 146.924 105.446 146.368C105.481 146.252 105.515 146.188 105.55 146.176C105.585 146.165 105.678 146.153 105.829 146.141H105.898C106.072 146.141 106.159 146.188 106.159 146.281C106.159 146.292 106.147 146.356 106.124 146.472C105.939 147.133 105.579 147.719 105.046 148.229C104.512 148.739 103.892 148.995 103.184 148.995C102.372 148.995 101.758 148.629 101.34 147.899C100.865 148.618 100.32 148.977 99.7049 148.977H99.6005C99.0322 148.977 98.6263 148.826 98.3827 148.525C98.1392 148.223 98.0116 147.904 98 147.568C98 147.197 98.1102 146.895 98.3305 146.663C98.5509 146.431 98.8118 146.315 99.1134 146.315C99.6121 146.315 99.8615 146.559 99.8615 147.046C99.8615 147.278 99.7919 147.481 99.6527 147.655C99.5135 147.829 99.3801 147.945 99.2526 148.003C99.125 148.061 99.0496 148.09 99.0264 148.09L98.9742 148.107C98.9742 148.119 99.009 148.142 99.0786 148.177C99.1482 148.212 99.241 148.252 99.3569 148.299C99.4729 148.345 99.5831 148.362 99.6875 148.351C100.105 148.351 100.465 148.09 100.766 147.568C100.87 147.382 101.004 146.988 101.166 146.385C101.329 145.782 101.491 145.156 101.653 144.506C101.816 143.857 101.908 143.474 101.932 143.358C101.99 143.045 102.019 142.819 102.019 142.679C102.019 142.355 101.932 142.123 101.758 141.984C101.584 141.844 101.387 141.775 101.166 141.775C100.702 141.775 100.267 141.96 99.8615 142.332C99.4555 142.703 99.1714 143.178 99.009 143.758C98.9858 143.862 98.9568 143.92 98.922 143.932C98.8872 143.944 98.7945 143.955 98.6437 143.967H98.4001C98.3305 143.897 98.2957 143.833 98.2957 143.775Z" fill="black"/>
<path d="M108.523 144.218C108.982 143.554 109.609 143.222 110.405 143.222C110.798 143.222 111.192 143.328 111.586 143.541C111.979 143.755 112.299 144.132 112.545 144.673C112.848 145.353 113 146.288 113 147.477C113 148.748 112.824 149.72 112.471 150.392C112.307 150.737 112.082 151.011 111.795 151.216C111.508 151.421 111.258 151.548 111.044 151.597C110.831 151.647 110.622 151.675 110.417 151.684C110.204 151.684 109.991 151.659 109.778 151.61C109.564 151.561 109.314 151.429 109.027 151.216C108.74 151.003 108.515 150.728 108.351 150.392C107.998 149.72 107.822 148.748 107.822 147.477C107.822 146.05 108.056 144.964 108.523 144.218ZM111.29 144.07C111.044 143.808 110.753 143.677 110.417 143.677C110.073 143.677 109.778 143.808 109.532 144.07C109.327 144.283 109.191 144.579 109.126 144.956C109.06 145.333 109.027 146.12 109.027 147.317C109.027 148.613 109.06 149.466 109.126 149.876C109.191 150.286 109.339 150.609 109.568 150.847C109.798 151.093 110.081 151.216 110.417 151.216C110.745 151.216 111.024 151.093 111.254 150.847C111.491 150.601 111.639 150.257 111.696 149.814C111.754 149.371 111.787 148.539 111.795 147.317C111.795 146.128 111.762 145.345 111.696 144.968C111.631 144.591 111.495 144.292 111.29 144.07Z" fill="black"/>
<path d="M22 76.7961C22 76.6433 22.0818 76.3814 22.2455 76.0104C22.4092 75.6394 22.6711 75.252 23.0312 74.8483C23.3913 74.4445 23.7951 74.2481 24.2425 74.259C24.6899 74.259 25.05 74.3845 25.3228 74.6355C25.5956 74.8865 25.7375 75.2357 25.7484 75.6831C25.7265 75.8904 25.7102 76.005 25.6993 76.0268C25.6993 76.0595 25.612 76.3105 25.4374 76.7797C25.2628 77.249 25.0827 77.7782 24.8972 78.3675C24.7117 78.9567 24.6244 79.426 24.6353 79.7752C24.6353 80.2444 24.7117 80.5718 24.8645 80.7573C25.0172 80.9428 25.2464 81.041 25.5519 81.0519C25.8029 81.0519 26.0375 80.9919 26.2558 80.8718C26.474 80.7518 26.6432 80.6263 26.7632 80.4954C26.8832 80.3644 27.0306 80.1844 27.2052 79.9552C27.2052 79.9443 27.2324 79.8352 27.287 79.6278C27.3416 79.4205 27.4179 79.0986 27.5162 78.6621C27.6144 78.2256 27.718 77.8219 27.8272 77.4508C28.2418 75.814 28.471 74.9574 28.5146 74.881C28.6565 74.5864 28.8911 74.4391 29.2185 74.4391C29.3603 74.4391 29.4749 74.4773 29.5622 74.5536C29.6495 74.63 29.7095 74.6955 29.7423 74.7501C29.775 74.8046 29.7859 74.8537 29.775 74.8974C29.775 75.0392 29.5076 76.185 28.9729 78.3347C28.4382 80.4845 28.1327 81.663 28.0563 81.8703C27.7508 82.776 27.2215 83.4962 26.4686 84.0309C25.7156 84.5656 24.9627 84.8385 24.2097 84.8494C23.7187 84.8494 23.2876 84.7293 22.9166 84.4893C22.5456 84.2492 22.3601 83.8891 22.3601 83.4089C22.3601 83.1689 22.3983 82.967 22.4747 82.8033C22.5511 82.6396 22.6547 82.5196 22.7857 82.4432C22.9166 82.3668 23.0258 82.3123 23.1131 82.2795C23.2003 82.2468 23.2931 82.2304 23.3913 82.2304C23.8715 82.2304 24.1115 82.4596 24.1115 82.9179C24.1115 83.1361 24.0461 83.3271 23.9151 83.4908C23.7842 83.6545 23.6587 83.7636 23.5386 83.8182C23.4186 83.8727 23.3477 83.9 23.3258 83.9L23.2767 83.9164C23.2986 83.9709 23.4022 84.0364 23.5877 84.1128C23.7732 84.1892 23.9588 84.2274 24.1443 84.2274H24.2752C24.4607 84.2274 24.6026 84.2165 24.7008 84.1946C25.0609 84.0964 25.3937 83.8891 25.6993 83.5726C26.0048 83.2562 26.2394 82.9179 26.4031 82.5578C26.5668 82.1977 26.6923 81.8921 26.7796 81.6412C26.8669 81.3902 26.9105 81.2265 26.9105 81.1501L26.8123 81.2156C26.7468 81.2592 26.6432 81.3192 26.5013 81.3956C26.3595 81.472 26.2176 81.5375 26.0757 81.5921C25.8575 81.6466 25.6447 81.6739 25.4374 81.6739C24.9354 81.6739 24.4935 81.5539 24.1115 81.3138C23.7296 81.0737 23.4786 80.6863 23.3586 80.1516C23.3477 80.0752 23.3422 79.9061 23.3422 79.6442C23.3422 79.0222 23.5332 78.2092 23.9151 77.2053C24.297 76.2014 24.488 75.563 24.488 75.2902C24.488 75.2793 24.488 75.2684 24.488 75.2575C24.488 75.1593 24.488 75.0938 24.488 75.0611C24.488 75.0283 24.4662 74.9901 24.4225 74.9465C24.3789 74.9028 24.3189 74.881 24.2425 74.881H24.177C23.926 74.881 23.6969 74.9847 23.4895 75.192C23.2822 75.3993 23.1185 75.623 22.9985 75.8631C22.8784 76.1032 22.7857 76.3323 22.7202 76.5506C22.6547 76.7688 22.6111 76.8889 22.5893 76.9107C22.5674 76.9325 22.4801 76.9434 22.3274 76.9434H22.0982C22.0327 76.878 22 76.8288 22 76.7961Z" fill="black"/>
<path d="M30.7874 77.1799C31.2195 76.5549 31.8097 76.2425 32.558 76.2425C32.9283 76.2425 33.2987 76.3428 33.669 76.5434C34.0393 76.744 34.3402 77.0989 34.5716 77.608C34.8571 78.2484 34.9998 79.1279 34.9998 80.2466C34.9998 81.4424 34.8339 82.3566 34.5022 82.9892C34.3479 83.3133 34.1357 83.5717 33.8657 83.7646C33.5957 83.9575 33.3604 84.077 33.1598 84.1233C32.9592 84.1696 32.7625 84.1966 32.5696 84.2043C32.369 84.2043 32.1684 84.1812 31.9678 84.1349C31.7672 84.0886 31.5319 83.9652 31.2619 83.7646C30.9919 83.564 30.7797 83.3056 30.6254 82.9892C30.2937 82.3566 30.1278 81.4424 30.1278 80.2466C30.1278 78.9042 30.3477 77.8819 30.7874 77.1799ZM33.3912 77.041C33.1598 76.7941 32.8859 76.6707 32.5696 76.6707C32.2456 76.6707 31.9678 76.7941 31.7364 77.041C31.5435 77.2416 31.4162 77.5193 31.3545 77.8742C31.2928 78.2291 31.2619 78.9697 31.2619 80.0961C31.2619 81.3151 31.2928 82.1174 31.3545 82.5032C31.4162 82.8889 31.5551 83.1937 31.7711 83.4174C31.9871 83.6489 32.2533 83.7646 32.5696 83.7646C32.8782 83.7646 33.1405 83.6489 33.3565 83.4174C33.5803 83.186 33.7191 82.8619 33.7731 82.4453C33.8271 82.0287 33.858 81.2457 33.8657 80.0961C33.8657 78.9774 33.8349 78.2407 33.7731 77.8858C33.7114 77.5309 33.5841 77.2493 33.3912 77.041Z" fill="black"/>
<line x1="106.5" y1="133" x2="106.5" y2="78" stroke="black" stroke-dasharray="2 2"/>
<line x1="107" y1="78.5" x2="52" y2="78.5" stroke="black" stroke-dasharray="2 2"/>
<path d="M108.301 56.594C108.1 56.594 108 56.5272 108 56.3935C108 55.8477 108.468 55.1961 109.403 54.4387C110.339 53.6813 111.587 53.2469 113.146 53.1355C113.168 53.1355 113.263 53.1355 113.43 53.1355C113.597 53.1355 113.798 53.1355 114.032 53.1355C114.265 53.1355 114.494 53.1299 114.717 53.1188H115.418C117.223 53.1188 118.515 53.4975 119.295 54.2549C119.551 54.5222 119.723 54.8063 119.813 55.107C119.891 55.2964 119.929 55.5136 119.929 55.7586C119.929 57.0173 119.228 58.2036 117.824 59.3174C116.421 60.4313 114.828 61.0272 113.046 61.1052H112.895C112.684 61.1052 112.578 61.0383 112.578 60.9047C112.578 60.8267 112.628 60.7209 112.728 60.5872C112.829 60.4536 113.001 60.3199 113.246 60.1862C113.491 60.0526 113.781 59.9746 114.115 59.9523C116.042 59.8075 117.317 59.0668 117.941 57.7302C118.153 57.3069 118.259 56.917 118.259 56.5606C118.259 56.1373 118.142 55.7698 117.908 55.4579C117.674 55.146 117.362 54.9121 116.972 54.7561C116.582 54.6002 116.165 54.4777 115.719 54.3886C115.274 54.2995 114.817 54.2605 114.349 54.2716H113.865L113.831 54.4554C113.653 56.0148 113.341 57.6355 112.895 59.3174C112.45 60.9994 112.06 62.2803 111.726 63.1603C111.392 64.0402 111.169 64.5693 111.058 64.7475C110.924 64.9703 110.712 65.1485 110.423 65.2822C110.133 65.4158 109.894 65.4827 109.704 65.4827C109.559 65.4827 109.487 65.4158 109.487 65.2822C109.487 65.2265 109.554 65.0316 109.688 64.6974C109.821 64.3632 109.994 63.901 110.205 63.3106C110.417 62.7203 110.645 62.0687 110.89 61.3558C111.136 60.6429 111.364 59.7574 111.576 58.6992C111.787 57.6411 111.971 56.5829 112.127 55.5247C112.138 55.4467 112.155 55.3019 112.177 55.0903C112.199 54.8787 112.216 54.6949 112.227 54.5389C112.238 54.383 112.249 54.2995 112.261 54.2883H112.194C111.514 54.2883 110.918 54.4276 110.406 54.706C110.05 54.8842 109.771 55.2741 109.571 55.8756C109.448 56.0538 109.264 56.2097 109.019 56.3434C108.774 56.4771 108.535 56.5606 108.301 56.594Z" fill="black"/>
<path d="M121.5 60.354C121.5 59.5855 121.556 58.8559 121.667 58.1653C121.778 57.4747 121.907 56.8788 122.051 56.3775C122.196 55.8763 122.402 55.3862 122.669 54.9072C122.937 54.4283 123.148 54.0551 123.304 53.7878C123.46 53.5205 123.694 53.2309 124.006 52.919C124.318 52.6071 124.502 52.4177 124.558 52.3509C124.613 52.2841 124.752 52.1671 124.975 52H125.192H125.259C125.415 52 125.493 52.0502 125.493 52.1504C125.493 52.1838 125.398 52.3008 125.209 52.5013C125.02 52.7018 124.791 52.9969 124.524 53.3868C124.257 53.7766 123.984 54.2556 123.705 54.8237C123.427 55.3917 123.193 56.1603 123.004 57.1294C122.814 58.0984 122.72 59.1733 122.72 60.354C122.72 61.5347 122.814 62.604 123.004 63.562C123.193 64.5199 123.421 65.294 123.689 65.8844C123.956 66.4747 124.229 66.9537 124.507 67.3212C124.786 67.6888 125.02 67.984 125.209 68.2068C125.398 68.4295 125.493 68.5465 125.493 68.5576C125.493 68.6579 125.41 68.708 125.243 68.708H125.192H124.975L124.507 68.307C123.46 67.3602 122.697 66.1795 122.218 64.7649C121.739 63.3503 121.5 61.88 121.5 60.354Z" fill="black"/>
<path d="M127.298 59.7029C127.376 59.2351 127.676 58.6949 128.2 58.0823C128.724 57.4696 129.37 57.1578 130.138 57.1466C130.528 57.1466 130.884 57.2469 131.207 57.4474C131.53 57.6479 131.77 57.8985 131.926 58.1992C132.394 57.4975 132.956 57.1466 133.613 57.1466C134.026 57.1466 134.382 57.2691 134.683 57.5142C134.983 57.7592 135.139 58.0878 135.151 58.5C135.151 58.823 135.073 59.0847 134.917 59.2852C134.761 59.4857 134.61 59.6083 134.465 59.6528C134.321 59.6974 134.193 59.7196 134.081 59.7196C133.87 59.7196 133.697 59.6584 133.563 59.5359C133.43 59.4133 133.363 59.2518 133.363 59.0513C133.363 58.5389 133.641 58.1881 134.198 57.9987C134.076 57.8539 133.853 57.7815 133.53 57.7815C133.385 57.7815 133.279 57.7927 133.212 57.8149C132.789 57.9932 132.477 58.3607 132.277 58.9177C131.608 61.3793 131.274 62.8162 131.274 63.2283C131.274 63.5402 131.363 63.763 131.542 63.8966C131.72 64.0303 131.915 64.0971 132.126 64.0971C132.539 64.0971 132.945 63.9133 133.346 63.5458C133.747 63.1782 134.02 62.7271 134.165 62.1924C134.198 62.081 134.232 62.0198 134.265 62.0086C134.298 61.9975 134.388 61.9864 134.532 61.9752H134.599C134.766 61.9752 134.85 62.0198 134.85 62.1089C134.85 62.12 134.839 62.1813 134.816 62.2927C134.638 62.9276 134.293 63.4901 133.78 63.9802C133.268 64.4703 132.672 64.7153 131.993 64.7153C131.213 64.7153 130.623 64.3645 130.222 63.6627C129.765 64.3533 129.241 64.6986 128.651 64.6986H128.551C128.005 64.6986 127.615 64.5538 127.381 64.2642C127.147 63.9746 127.025 63.6683 127.014 63.3453C127.014 62.9888 127.12 62.6992 127.331 62.4765C127.543 62.2537 127.793 62.1423 128.083 62.1423C128.562 62.1423 128.801 62.3762 128.801 62.844C128.801 63.0668 128.735 63.2617 128.601 63.4288C128.467 63.5959 128.339 63.7073 128.217 63.763C128.094 63.8187 128.022 63.8465 128 63.8465L127.949 63.8632C127.949 63.8744 127.983 63.8966 128.05 63.9301C128.116 63.9635 128.206 64.0025 128.317 64.047C128.428 64.0916 128.534 64.1083 128.634 64.0971C129.035 64.0971 129.381 63.8465 129.67 63.3453C129.771 63.1671 129.899 62.7883 130.055 62.2091C130.211 61.6299 130.366 61.0284 130.522 60.4047C130.678 59.7809 130.767 59.4133 130.79 59.3019C130.845 59.0012 130.873 58.784 130.873 58.6503C130.873 58.3384 130.79 58.1157 130.623 57.982C130.456 57.8483 130.266 57.7815 130.055 57.7815C129.609 57.7815 129.191 57.9597 128.801 58.3162C128.412 58.6726 128.139 59.1293 127.983 59.6862C127.961 59.7865 127.933 59.8422 127.899 59.8533C127.866 59.8644 127.777 59.8756 127.632 59.8867H127.398C127.331 59.8199 127.298 59.7586 127.298 59.7029Z" fill="black"/>
<path d="M137.12 60.1265C137.561 59.4887 138.163 59.1697 138.927 59.1697C139.305 59.1697 139.683 59.2721 140.061 59.4769C140.439 59.6816 140.746 60.0439 140.983 60.5636C141.274 61.2172 141.42 62.115 141.42 63.2569C141.42 64.4775 141.25 65.4107 140.912 66.0564C140.754 66.3872 140.538 66.651 140.262 66.8479C139.987 67.0448 139.746 67.1668 139.542 67.2141C139.337 67.2613 139.136 67.2889 138.939 67.2968C138.734 67.2968 138.53 67.2731 138.325 67.2259C138.12 67.1786 137.88 67.0526 137.604 66.8479C137.329 66.6431 137.112 66.3793 136.955 66.0564C136.616 65.4107 136.447 64.4775 136.447 63.2569C136.447 61.8866 136.671 60.8432 137.12 60.1265ZM139.778 59.9848C139.542 59.7328 139.262 59.6068 138.939 59.6068C138.608 59.6068 138.325 59.7328 138.089 59.9848C137.892 60.1895 137.762 60.473 137.699 60.8353C137.636 61.1975 137.604 61.9535 137.604 63.1033C137.604 64.3476 137.636 65.1666 137.699 65.5603C137.762 65.9541 137.904 66.2651 138.124 66.4935C138.345 66.7298 138.616 66.8479 138.939 66.8479C139.254 66.8479 139.522 66.7298 139.742 66.4935C139.971 66.2572 140.113 65.9265 140.168 65.5012C140.223 65.076 140.254 64.2767 140.262 63.1033C140.262 61.9614 140.231 61.2094 140.168 60.8471C140.105 60.4849 139.975 60.1974 139.778 59.9848Z" fill="black"/>
<path d="M144.032 63.9459C144.032 63.9459 144.032 63.8067 144.032 63.5282C144.032 63.2497 144.121 63.0103 144.299 62.8098C144.478 62.6093 144.717 62.509 145.018 62.509C145.33 62.509 145.608 62.6483 145.853 62.9267C146.098 63.2052 146.226 63.6953 146.238 64.397C146.238 64.7869 146.187 65.1656 146.087 65.5332C145.987 65.9007 145.87 66.2182 145.736 66.4855C145.603 66.7529 145.458 66.9812 145.302 67.1706C145.146 67.3599 145.012 67.5103 144.901 67.6217C144.79 67.7331 144.717 67.7832 144.684 67.772C144.639 67.772 144.567 67.7219 144.467 67.6217C144.366 67.5214 144.316 67.449 144.316 67.4045C144.316 67.3599 144.377 67.2708 144.5 67.1371C144.622 67.0035 144.762 66.8364 144.918 66.6359C145.074 66.4354 145.218 66.1569 145.352 65.8005C145.486 65.4441 145.575 65.0375 145.619 64.5808V64.3803L145.603 64.397C145.58 64.4082 145.553 64.4193 145.519 64.4304C145.486 64.4416 145.452 64.4583 145.419 64.4806C145.385 64.5028 145.335 64.514 145.268 64.514C145.202 64.514 145.135 64.5196 145.068 64.5307C144.767 64.5307 144.522 64.436 144.333 64.2467L144.032 63.9459Z" fill="black"/>
<path d="M150.509 59.7355C150.509 59.5795 150.592 59.3122 150.759 58.9335C150.926 58.5548 151.194 58.1594 151.561 57.7472C151.929 57.3351 152.341 57.1346 152.798 57.1458C153.254 57.1458 153.622 57.2738 153.9 57.53C154.179 57.7862 154.324 58.1427 154.335 58.5993C154.313 58.811 154.296 58.9279 154.285 58.9502C154.285 58.9836 154.196 59.2398 154.017 59.7188C153.839 60.1977 153.655 60.738 153.466 61.3395C153.277 61.9409 153.188 62.4199 153.199 62.7763C153.199 63.2553 153.277 63.5895 153.433 63.7788C153.589 63.9682 153.822 64.0684 154.134 64.0796C154.391 64.0796 154.63 64.0183 154.853 63.8958C155.076 63.7732 155.248 63.6452 155.371 63.5115C155.493 63.3778 155.644 63.194 155.822 62.9601C155.822 62.949 155.85 62.8376 155.905 62.626C155.961 62.4143 156.039 62.0857 156.139 61.6402C156.24 61.1947 156.345 60.7825 156.457 60.4038C156.88 58.733 157.114 57.8586 157.159 57.7807C157.303 57.4799 157.543 57.3295 157.877 57.3295C158.022 57.3295 158.139 57.3685 158.228 57.4465C158.317 57.5245 158.378 57.5913 158.412 57.647C158.445 57.7027 158.456 57.7528 158.445 57.7974C158.445 57.9422 158.172 59.1117 157.626 61.306C157.081 63.5004 156.769 64.7033 156.691 64.915C156.379 65.8395 155.839 66.5746 155.07 67.1204C154.301 67.6662 153.533 67.9447 152.764 67.9558C152.263 67.9558 151.823 67.8333 151.444 67.5882C151.066 67.3432 150.876 66.9756 150.876 66.4855C150.876 66.2405 150.915 66.0344 150.993 65.8673C151.071 65.7002 151.177 65.5777 151.311 65.4997C151.444 65.4218 151.556 65.3661 151.645 65.3327C151.734 65.2992 151.829 65.2825 151.929 65.2825C152.419 65.2825 152.664 65.5164 152.664 65.9843C152.664 66.207 152.597 66.402 152.464 66.569C152.33 66.7361 152.202 66.8475 152.079 66.9032C151.957 66.9589 151.884 66.9867 151.862 66.9867L151.812 67.0035C151.834 67.0591 151.94 67.126 152.129 67.204C152.319 67.2819 152.508 67.3209 152.697 67.3209H152.831C153.02 67.3209 153.165 67.3098 153.266 67.2875C153.633 67.1872 153.973 66.9756 154.285 66.6526C154.597 66.3296 154.836 65.9843 155.003 65.6167C155.17 65.2491 155.298 64.9372 155.387 64.681C155.477 64.4249 155.521 64.2578 155.521 64.1798L155.421 64.2466C155.354 64.2912 155.248 64.3525 155.103 64.4304C154.959 64.5084 154.814 64.5752 154.669 64.6309C154.446 64.6866 154.229 64.7145 154.017 64.7145C153.505 64.7145 153.054 64.5919 152.664 64.3469C152.274 64.1018 152.018 63.7064 151.895 63.1606C151.884 63.0827 151.879 62.91 151.879 62.6427C151.879 62.0078 152.074 61.1779 152.464 60.1532C152.853 59.1284 153.048 58.4768 153.048 58.1984C153.048 58.1872 153.048 58.1761 153.048 58.1649C153.048 58.0647 153.048 57.9979 153.048 57.9644C153.048 57.931 153.026 57.892 152.982 57.8475C152.937 57.8029 152.876 57.7807 152.798 57.7807H152.731C152.475 57.7807 152.241 57.8865 152.029 58.0981C151.818 58.3097 151.65 58.5381 151.528 58.7831C151.405 59.0282 151.311 59.2621 151.244 59.4849C151.177 59.7076 151.132 59.8302 151.11 59.8524C151.088 59.8747 150.999 59.8859 150.843 59.8859H150.609C150.542 59.819 150.509 59.7689 150.509 59.7355Z" fill="black"/>
<path d="M159.478 60.1261C159.919 59.4882 160.522 59.1692 161.286 59.1692C161.664 59.1692 162.042 59.2716 162.42 59.4764C162.798 59.6811 163.105 60.0434 163.341 60.5631C163.633 61.2167 163.778 62.1145 163.778 63.2564C163.778 64.477 163.609 65.4102 163.27 66.0559C163.113 66.3867 162.896 66.6505 162.621 66.8474C162.345 67.0443 162.105 67.1663 161.9 67.2136C161.695 67.2608 161.494 67.2884 161.298 67.2963C161.093 67.2963 160.888 67.2726 160.683 67.2254C160.479 67.1781 160.238 67.0521 159.963 66.8474C159.687 66.6426 159.471 66.3788 159.313 66.0559C158.974 65.4102 158.805 64.477 158.805 63.2564C158.805 61.8861 159.03 60.8427 159.478 60.1261ZM162.136 59.9843C161.9 59.7323 161.62 59.6063 161.298 59.6063C160.967 59.6063 160.683 59.7323 160.447 59.9843C160.25 60.1891 160.12 60.4726 160.057 60.8348C159.994 61.1971 159.963 61.9531 159.963 63.1028C159.963 64.3471 159.994 65.1661 160.057 65.5598C160.12 65.9536 160.262 66.2646 160.483 66.493C160.703 66.7293 160.975 66.8474 161.298 66.8474C161.613 66.8474 161.88 66.7293 162.101 66.493C162.329 66.2568 162.471 65.926 162.526 65.5008C162.581 65.0755 162.613 64.2762 162.621 63.1028C162.621 61.9609 162.589 61.2089 162.526 60.8466C162.463 60.4844 162.333 60.1969 162.136 59.9843Z" fill="black"/>
<path d="M166.09 52.0167L166.157 52C166.213 52 166.269 52 166.324 52H166.525L166.993 52.401C168.04 53.3478 168.803 54.5285 169.282 55.9431C169.761 57.3577 170 58.828 170 60.354C170 61.1114 169.944 61.841 169.833 62.5428C169.722 63.2445 169.593 63.8404 169.449 64.3305C169.304 64.8206 169.098 65.3107 168.83 65.8008C168.563 66.2909 168.352 66.6641 168.196 66.9203C168.04 67.1764 167.811 67.4605 167.511 67.7724C167.21 68.0842 167.032 68.268 166.976 68.3237C166.92 68.3794 166.792 68.4852 166.592 68.6412C166.558 68.6746 166.536 68.6969 166.525 68.708H166.324C166.235 68.708 166.174 68.708 166.14 68.708C166.107 68.708 166.079 68.6913 166.057 68.6579C166.035 68.6245 166.018 68.5743 166.007 68.5075C166.018 68.4964 166.079 68.424 166.191 68.2903C167.917 66.497 168.78 63.8516 168.78 60.354C168.78 56.8565 167.917 54.2111 166.191 52.4177C166.079 52.2841 166.018 52.2117 166.007 52.2005C166.007 52.1114 166.035 52.0502 166.09 52.0167Z" fill="black"/>
</svg>
