<svg width="283" height="272" viewBox="0 0 283 272" fill="none" xmlns="http://www.w3.org/2000/svg">
<line x1="122.5" y1="26" x2="122.5" y2="253" stroke="black"/>
<line x1="21" y1="153.5" x2="255" y2="153.5" stroke="black"/>
<path d="M28.7195 182.812C175.622 153.818 222.656 21.7349 222.656 21.7349" stroke="black"/>
<line x1="179.738" y1="92.6089" x2="179.738" y2="154.463" stroke="black" stroke-width="0.5" stroke-dasharray="1 1"/>
<line x1="197.778" y1="68.1252" x2="197.778" y2="153.174" stroke="black" stroke-width="0.5" stroke-dasharray="1 1"/>
<line x1="121.5" y1="69.1638" x2="197.528" y2="69.1637" stroke="black" stroke-width="0.5" stroke-dasharray="1 1"/>
<line x1="121.5" y1="92.3589" x2="179.488" y2="92.3589" stroke="black" stroke-width="0.5" stroke-dasharray="1 1"/>
<line x1="96.8141" y1="206.543" x2="235.548" y2="15.8529" stroke="black" stroke-width="0.5"/>
<path d="M197.777 165.859C197.845 165.449 198.108 164.977 198.566 164.441C199.024 163.905 199.59 163.632 200.262 163.622C200.603 163.622 200.915 163.71 201.197 163.885C201.48 164.061 201.69 164.28 201.826 164.543C202.235 163.929 202.727 163.622 203.302 163.622C203.663 163.622 203.975 163.729 204.238 163.944C204.501 164.158 204.637 164.446 204.647 164.806C204.647 165.089 204.579 165.318 204.443 165.493C204.306 165.669 204.175 165.776 204.048 165.815C203.921 165.854 203.809 165.873 203.712 165.873C203.527 165.873 203.375 165.82 203.259 165.713C203.142 165.605 203.083 165.464 203.083 165.289C203.083 164.84 203.327 164.533 203.814 164.368C203.707 164.241 203.512 164.178 203.229 164.178C203.103 164.178 203.01 164.187 202.952 164.207C202.581 164.363 202.308 164.684 202.133 165.172C201.548 167.325 201.256 168.582 201.256 168.943C201.256 169.216 201.334 169.411 201.49 169.528C201.646 169.645 201.816 169.703 202.001 169.703C202.362 169.703 202.718 169.542 203.069 169.221C203.419 168.899 203.658 168.504 203.785 168.037C203.814 167.939 203.843 167.886 203.872 167.876C203.902 167.866 203.98 167.856 204.106 167.847H204.165C204.311 167.847 204.384 167.886 204.384 167.964C204.384 167.973 204.374 168.027 204.355 168.124C204.199 168.68 203.897 169.172 203.449 169.601C203 170.03 202.479 170.244 201.884 170.244C201.202 170.244 200.686 169.937 200.335 169.323C199.935 169.927 199.477 170.229 198.961 170.229H198.873C198.396 170.229 198.055 170.103 197.85 169.849C197.645 169.596 197.538 169.328 197.528 169.045C197.528 168.733 197.621 168.48 197.806 168.285C197.991 168.09 198.211 167.993 198.464 167.993C198.883 167.993 199.093 168.197 199.093 168.607C199.093 168.802 199.034 168.972 198.917 169.118C198.8 169.265 198.688 169.362 198.581 169.411C198.474 169.459 198.41 169.484 198.391 169.484L198.347 169.498C198.347 169.508 198.376 169.528 198.435 169.557C198.493 169.586 198.571 169.62 198.669 169.659C198.766 169.698 198.859 169.713 198.946 169.703C199.297 169.703 199.599 169.484 199.853 169.045C199.94 168.889 200.052 168.558 200.189 168.051C200.325 167.545 200.462 167.018 200.598 166.473C200.735 165.927 200.813 165.605 200.832 165.508C200.881 165.245 200.905 165.055 200.905 164.938C200.905 164.665 200.832 164.47 200.686 164.353C200.54 164.236 200.374 164.178 200.189 164.178C199.799 164.178 199.434 164.334 199.093 164.645C198.751 164.957 198.513 165.357 198.376 165.844C198.357 165.932 198.332 165.98 198.303 165.99C198.274 166 198.196 166.01 198.069 166.019H197.865C197.806 165.961 197.777 165.907 197.777 165.859Z" fill="black"/>
<path d="M206.37 166.23C206.756 165.672 207.283 165.393 207.951 165.393C208.282 165.393 208.613 165.483 208.944 165.662C209.274 165.841 209.543 166.158 209.75 166.613C210.005 167.184 210.132 167.97 210.132 168.969C210.132 170.037 209.984 170.853 209.688 171.418C209.55 171.707 209.36 171.938 209.119 172.111C208.878 172.283 208.668 172.39 208.489 172.431C208.31 172.472 208.134 172.496 207.962 172.503C207.783 172.503 207.603 172.483 207.424 172.441C207.245 172.4 207.035 172.29 206.794 172.111C206.553 171.931 206.363 171.701 206.226 171.418C205.929 170.853 205.781 170.037 205.781 168.969C205.781 167.77 205.977 166.857 206.37 166.23ZM208.695 166.106C208.489 165.886 208.244 165.775 207.962 165.775C207.672 165.775 207.424 165.886 207.218 166.106C207.045 166.285 206.932 166.533 206.877 166.85C206.821 167.167 206.794 167.829 206.794 168.834C206.794 169.923 206.821 170.64 206.877 170.984C206.932 171.329 207.056 171.601 207.249 171.8C207.442 172.007 207.679 172.111 207.962 172.111C208.237 172.111 208.472 172.007 208.664 171.8C208.864 171.594 208.988 171.304 209.037 170.932C209.085 170.56 209.112 169.861 209.119 168.834C209.119 167.835 209.092 167.177 209.037 166.861C208.981 166.544 208.868 166.292 208.695 166.106Z" fill="black"/>
<path d="M215.344 166.619C215.344 166.619 215.344 166.556 215.344 166.429C215.344 166.302 215.413 166.205 215.549 166.136H219.92V163.944L219.934 161.751C220.032 161.625 220.124 161.561 220.212 161.561C220.339 161.561 220.436 161.634 220.504 161.78V166.136H224.86C225.007 166.214 225.08 166.312 225.08 166.429C225.08 166.546 225.007 166.643 224.86 166.721H220.504V171.077C220.426 171.214 220.339 171.282 220.241 171.282H220.212H220.183C220.066 171.282 219.978 171.214 219.92 171.077V166.721H215.549C215.413 166.653 215.344 166.556 215.344 166.429V166.619Z" fill="black"/>
<path d="M229.892 170.083C229.843 170.044 229.819 170.01 229.819 169.981C229.819 169.961 230.642 168.256 232.289 164.865C233.936 161.473 234.779 159.758 234.818 159.719C234.847 159.651 234.984 159.617 235.227 159.617C235.451 159.617 235.588 159.651 235.637 159.719C235.666 159.758 236.504 161.473 238.151 164.865C239.798 168.256 240.626 169.961 240.636 169.981C240.636 170.01 240.611 170.044 240.563 170.083H229.892ZM236.557 165.055L234.759 161.371L231.149 168.738L234.745 168.753H238.355C238.355 168.734 237.756 167.501 236.557 165.055Z" fill="black"/>
<path d="M242.083 165.859C242.151 165.449 242.414 164.977 242.872 164.441C243.33 163.905 243.895 163.632 244.568 163.622C244.909 163.622 245.221 163.71 245.503 163.885C245.786 164.061 245.995 164.28 246.132 164.543C246.541 163.929 247.033 163.622 247.608 163.622C247.969 163.622 248.281 163.729 248.544 163.944C248.807 164.158 248.943 164.446 248.953 164.806C248.953 165.089 248.885 165.318 248.748 165.493C248.612 165.669 248.48 165.776 248.354 165.815C248.227 165.854 248.115 165.873 248.018 165.873C247.832 165.873 247.681 165.82 247.564 165.713C247.447 165.605 247.389 165.464 247.389 165.289C247.389 164.84 247.633 164.533 248.12 164.368C248.013 164.241 247.818 164.178 247.535 164.178C247.408 164.178 247.316 164.187 247.257 164.207C246.887 164.363 246.614 164.684 246.439 165.172C245.854 167.325 245.562 168.582 245.562 168.943C245.562 169.216 245.64 169.411 245.796 169.528C245.952 169.645 246.122 169.703 246.307 169.703C246.668 169.703 247.024 169.542 247.374 169.221C247.725 168.899 247.964 168.504 248.091 168.037C248.12 167.939 248.149 167.886 248.178 167.876C248.208 167.866 248.286 167.856 248.412 167.847H248.471C248.617 167.847 248.69 167.886 248.69 167.964C248.69 167.973 248.68 168.027 248.661 168.124C248.505 168.68 248.203 169.172 247.754 169.601C247.306 170.03 246.785 170.244 246.19 170.244C245.508 170.244 244.992 169.937 244.641 169.323C244.241 169.927 243.783 170.229 243.267 170.229H243.179C242.702 170.229 242.361 170.103 242.156 169.849C241.951 169.596 241.844 169.328 241.834 169.045C241.834 168.733 241.927 168.48 242.112 168.285C242.297 168.09 242.516 167.993 242.77 167.993C243.189 167.993 243.398 168.197 243.398 168.607C243.398 168.802 243.34 168.972 243.223 169.118C243.106 169.265 242.994 169.362 242.887 169.411C242.78 169.459 242.716 169.484 242.697 169.484L242.653 169.498C242.653 169.508 242.682 169.528 242.741 169.557C242.799 169.586 242.877 169.62 242.974 169.659C243.072 169.698 243.164 169.713 243.252 169.703C243.603 169.703 243.905 169.484 244.158 169.045C244.246 168.889 244.358 168.558 244.495 168.051C244.631 167.545 244.768 167.018 244.904 166.473C245.04 165.927 245.118 165.605 245.138 165.508C245.187 165.245 245.211 165.055 245.211 164.938C245.211 164.665 245.138 164.47 244.992 164.353C244.846 164.236 244.68 164.178 244.495 164.178C244.105 164.178 243.739 164.334 243.398 164.645C243.057 164.957 242.819 165.357 242.682 165.844C242.663 165.932 242.638 165.98 242.609 165.99C242.58 166 242.502 166.01 242.375 166.019H242.17C242.112 165.961 242.083 165.907 242.083 165.859Z" fill="black"/>
<path d="M34.8482 75.954C34.8688 75.954 34.8997 75.9643 34.9409 75.9849C34.9822 76.0055 35.0389 76.021 35.111 76.0313C35.1832 76.0416 35.2451 76.0468 35.2966 76.0468C35.4306 76.0468 35.5543 75.9797 35.6677 75.8457C35.7811 75.7117 35.8636 75.5622 35.9151 75.3973C36.0182 75.1189 36.1935 74.3303 36.4409 73.0314C36.6883 71.7325 36.9254 70.4954 37.1522 69.3202C37.379 68.1449 37.4924 67.5522 37.4924 67.5419V67.4955H36.7656C36.2811 67.4955 36.0234 67.4852 35.9925 67.4646C35.9512 67.4336 35.9306 67.3821 35.9306 67.3099L36.0388 66.8769C36.0595 66.8254 36.1007 66.7996 36.1625 66.7996C36.2244 66.7996 36.4667 66.7945 36.8893 66.7842C37.3842 66.7842 37.6316 66.779 37.6316 66.7687C37.6316 66.7481 37.678 66.4904 37.7707 65.9955C37.8635 65.5007 37.9254 65.2017 37.9563 65.0987C38.3377 63.3977 39.0903 62.5472 40.214 62.5472C40.5954 62.5678 40.9098 62.6812 41.1572 62.8874C41.4046 63.0936 41.5284 63.3667 41.5284 63.7069C41.5284 64.0781 41.4201 64.3461 41.2036 64.511C40.9871 64.676 40.7706 64.7636 40.5542 64.7739C40.1006 64.7739 39.8738 64.5574 39.8738 64.1245C39.8738 63.9286 39.9305 63.7585 40.0439 63.6142C40.1573 63.4698 40.281 63.3616 40.415 63.2894L40.5542 63.2121C40.3892 63.1503 40.2346 63.1193 40.0903 63.1193C39.9665 63.1193 39.848 63.1709 39.7346 63.274C39.6212 63.3771 39.5439 63.5214 39.5026 63.7069C39.4305 64.0059 39.348 64.408 39.2552 64.9131C39.1625 65.4182 39.08 65.8461 39.0078 66.1966C38.9357 66.5471 38.8996 66.7326 38.8996 66.7532C38.8996 66.7739 39.1831 66.7842 39.7501 66.7842C40.214 66.7842 40.482 66.7893 40.5542 66.7996C40.6263 66.8099 40.683 66.8409 40.7243 66.8924C40.7346 66.9336 40.7243 67.0213 40.6933 67.1553C40.6624 67.2893 40.6366 67.3718 40.616 67.4027C40.5954 67.4542 40.549 67.48 40.4768 67.48C40.4047 67.48 40.1263 67.4852 39.6418 67.4955H38.7759L38.4202 69.382C37.9254 71.9386 37.58 73.5365 37.3842 74.1757C37.1058 75.0519 36.745 75.7014 36.3017 76.1241C35.9203 76.454 35.544 76.6189 35.1729 76.6189C34.843 76.6189 34.544 76.521 34.276 76.3251C34.008 76.1292 33.874 75.8509 33.874 75.4901C33.874 75.1086 33.9822 74.8303 34.1987 74.655C34.4152 74.4798 34.6317 74.3922 34.8482 74.3922C35.3018 74.3922 35.5285 74.6087 35.5285 75.0416C35.5285 75.2375 35.4718 75.4076 35.3585 75.5519C35.2451 75.6962 35.1213 75.8045 34.9873 75.8767L34.8482 75.954Z" fill="black"/>
<path d="M42.9819 69.5831C42.9819 68.8717 43.0335 68.1965 43.1366 67.5573C43.2397 66.9182 43.3582 66.3667 43.4922 65.9028C43.6262 65.4389 43.817 64.9853 44.0644 64.542C44.3118 64.0987 44.5077 63.7533 44.652 63.5059C44.7963 63.2585 45.0128 62.9905 45.3014 62.7018C45.5901 62.4132 45.7602 62.2379 45.8117 62.1761C45.8633 62.1142 45.9921 62.006 46.1983 61.8513H46.3993H46.4612C46.6055 61.8513 46.6777 61.8977 46.6777 61.9905C46.6777 62.0214 46.5901 62.1297 46.4148 62.3152C46.2396 62.5008 46.0282 62.774 45.7808 63.1348C45.5334 63.4956 45.2808 63.9389 45.0231 64.4647C44.7654 64.9904 44.5489 65.7017 44.3736 66.5986C44.1984 67.4955 44.1108 68.4903 44.1108 69.5831C44.1108 70.6758 44.1984 71.6655 44.3736 72.552C44.5489 73.4386 44.7602 74.1551 45.0076 74.7014C45.2551 75.2478 45.5076 75.6911 45.7653 76.0313C46.0231 76.3715 46.2396 76.6447 46.4148 76.8509C46.5901 77.057 46.6777 77.1653 46.6777 77.1756C46.6777 77.2684 46.6004 77.3148 46.4457 77.3148H46.3993H46.1983L45.7653 76.9436C44.7963 76.0674 44.0901 74.9746 43.6469 73.6654C43.2036 72.3562 42.9819 70.9954 42.9819 69.5831Z" fill="black"/>
<path d="M48.3478 68.98C48.4199 68.547 48.6983 68.047 49.1828 67.48C49.6673 66.9131 50.2652 66.6244 50.9766 66.6141C51.3374 66.6141 51.6673 66.7069 51.9662 66.8924C52.2652 67.078 52.4868 67.3099 52.6311 67.5883C53.0641 66.9388 53.5847 66.6141 54.1929 66.6141C54.5744 66.6141 54.9043 66.7275 55.1826 66.9543C55.4609 67.1811 55.6053 67.4852 55.6156 67.8666C55.6156 68.1656 55.5434 68.4078 55.3991 68.5934C55.2548 68.779 55.1156 68.8924 54.9816 68.9336C54.8476 68.9748 54.729 68.9955 54.6259 68.9955C54.4301 68.9955 54.2703 68.9388 54.1466 68.8254C54.0229 68.712 53.961 68.5625 53.961 68.3769C53.961 67.9027 54.2187 67.578 54.7342 67.4027C54.6208 67.2687 54.4146 67.2017 54.1156 67.2017C53.9816 67.2017 53.8837 67.212 53.8218 67.2326C53.4301 67.3976 53.1414 67.7378 52.9559 68.2532C52.3373 70.5315 52.0281 71.8613 52.0281 72.2428C52.0281 72.5314 52.1105 72.7376 52.2755 72.8613C52.4404 72.985 52.6208 73.0469 52.8167 73.0469C53.1981 73.0469 53.5744 72.8768 53.9455 72.5366C54.3167 72.1964 54.5692 71.7789 54.7032 71.284C54.7342 71.181 54.7651 71.1243 54.796 71.1139C54.8269 71.1036 54.9094 71.0933 55.0434 71.083H55.1053C55.2599 71.083 55.3372 71.1243 55.3372 71.2067C55.3372 71.217 55.3269 71.2737 55.3063 71.3768C55.1414 71.9644 54.8218 72.485 54.3476 72.9386C53.8734 73.3922 53.3218 73.619 52.693 73.619C51.9714 73.619 51.425 73.2943 51.0539 72.6448C50.6312 73.284 50.1467 73.6036 49.6003 73.6036H49.5075C49.0024 73.6036 48.6416 73.4695 48.4251 73.2015C48.2086 72.9335 48.0952 72.65 48.0849 72.351C48.0849 72.0211 48.1828 71.7531 48.3787 71.5469C48.5746 71.3407 48.8065 71.2377 49.0746 71.2377C49.5178 71.2377 49.7395 71.4541 49.7395 71.8871C49.7395 72.0933 49.6776 72.2737 49.5539 72.4283C49.4302 72.583 49.3117 72.6861 49.1983 72.7376C49.0849 72.7891 49.0179 72.8149 48.9972 72.8149L48.9509 72.8304C48.9509 72.8407 48.9818 72.8613 49.0436 72.8922C49.1055 72.9232 49.188 72.9592 49.291 73.0005C49.3941 73.0417 49.4921 73.0572 49.5849 73.0469C49.956 73.0469 50.2756 72.8149 50.5436 72.351C50.6364 72.1861 50.7549 71.8356 50.8992 71.2995C51.0436 70.7634 51.1879 70.2068 51.3322 69.6295C51.4765 69.0522 51.559 68.712 51.5796 68.6089C51.6312 68.3305 51.6569 68.1295 51.6569 68.0058C51.6569 67.7171 51.5796 67.511 51.425 67.3873C51.2704 67.2636 51.0951 67.2017 50.8992 67.2017C50.4869 67.2017 50.1003 67.3666 49.7395 67.6965C49.3787 68.0264 49.1261 68.4491 48.9818 68.9645C48.9612 69.0573 48.9354 69.1089 48.9045 69.1192C48.8735 69.1295 48.7911 69.1398 48.657 69.1501H48.4406C48.3787 69.0882 48.3478 69.0315 48.3478 68.98Z" fill="black"/>
<path d="M57.4382 69.3729C57.8464 68.7825 58.4039 68.4873 59.1109 68.4873C59.4608 68.4873 59.8106 68.5821 60.1604 68.7716C60.5103 68.9611 60.7945 69.2963 61.0132 69.7774C61.2829 70.3823 61.4177 71.2132 61.4177 72.27C61.4177 73.3997 61.261 74.2634 60.9476 74.861C60.8018 75.1672 60.6014 75.4113 60.3463 75.5935C60.0912 75.7757 59.8689 75.8887 59.6794 75.9324C59.4899 75.9762 59.3041 76.0017 59.1218 76.009C58.9324 76.009 58.7429 75.9871 58.5534 75.9434C58.3639 75.8996 58.1416 75.783 57.8865 75.5935C57.6314 75.404 57.4309 75.1599 57.2852 74.861C56.9718 74.2634 56.8151 73.3997 56.8151 72.27C56.8151 71.0018 57.0228 70.0361 57.4382 69.3729ZM59.8981 69.2417C59.6794 69.0084 59.4207 68.8918 59.1218 68.8918C58.8157 68.8918 58.5534 69.0084 58.3347 69.2417C58.1525 69.4312 58.0322 69.6936 57.9739 70.0288C57.9156 70.3641 57.8865 71.0638 57.8865 72.1279C57.8865 73.2795 57.9156 74.0375 57.9739 74.4019C58.0322 74.7663 58.1634 75.0542 58.3675 75.2656C58.5716 75.4842 58.823 75.5935 59.1218 75.5935C59.4134 75.5935 59.6612 75.4842 59.8653 75.2656C60.0766 75.0469 60.2078 74.7408 60.2588 74.3472C60.3099 73.9536 60.339 73.2139 60.3463 72.1279C60.3463 71.0711 60.3172 70.375 60.2588 70.0398C60.2005 69.7045 60.0803 69.4385 59.8981 69.2417Z" fill="black"/>
<path d="M66.9316 69.7842C66.9316 69.7842 66.9316 69.7171 66.9316 69.5831C66.9316 69.4491 67.0038 69.346 67.1481 69.2739H71.7717V66.9543L71.7872 64.6348C71.8902 64.5008 71.9882 64.4338 72.081 64.4338C72.215 64.4338 72.3181 64.5111 72.3902 64.6658V69.2739H76.9983C77.153 69.3563 77.2303 69.4594 77.2303 69.5831C77.2303 69.7068 77.153 69.8099 76.9983 69.8924H72.3902V74.5005C72.3078 74.6448 72.215 74.717 72.1119 74.717H72.081H72.05C71.9263 74.717 71.8335 74.6448 71.7717 74.5005V69.8924H67.1481C67.0038 69.8202 66.9316 69.7171 66.9316 69.5831V69.7842Z" fill="black"/>
<path d="M82.3208 73.449C82.2693 73.4077 82.2435 73.3717 82.2435 73.3407C82.2435 73.3201 83.1146 71.516 84.8568 67.9285C86.5991 64.341 87.4908 62.5266 87.532 62.4854C87.5629 62.4133 87.7073 62.3772 87.965 62.3772C88.2021 62.3772 88.3464 62.4133 88.398 62.4854C88.4289 62.5266 89.3155 64.341 91.0577 67.9285C92.7999 71.516 93.6761 73.3201 93.6865 73.3407C93.6865 73.3717 93.6607 73.4077 93.6091 73.449H82.3208ZM89.3722 68.1296L87.4702 64.2328L83.6507 72.0263L87.4547 72.0418H91.2742C91.2742 72.0212 90.6402 70.7171 89.3722 68.1296Z" fill="black"/>
<path d="M95.2173 68.98C95.2894 68.547 95.5678 68.047 96.0523 67.48C96.5368 66.9131 97.1347 66.6244 97.8461 66.6141C98.2069 66.6141 98.5368 66.7069 98.8357 66.8924C99.1347 67.078 99.3563 67.3099 99.5007 67.5883C99.9336 66.9388 100.454 66.6141 101.062 66.6141C101.444 66.6141 101.774 66.7275 102.052 66.9543C102.33 67.1811 102.475 67.4852 102.485 67.8666C102.485 68.1656 102.413 68.4078 102.269 68.5934C102.124 68.779 101.985 68.8924 101.851 68.9336C101.717 68.9748 101.599 68.9955 101.495 68.9955C101.3 68.9955 101.14 68.9388 101.016 68.8254C100.892 68.712 100.831 68.5625 100.831 68.3769C100.831 67.9027 101.088 67.578 101.604 67.4027C101.49 67.2687 101.284 67.2017 100.985 67.2017C100.851 67.2017 100.753 67.212 100.691 67.2326C100.3 67.3976 100.011 67.7378 99.8254 68.2532C99.2068 70.5315 98.8976 71.8613 98.8976 72.2428C98.8976 72.5314 98.98 72.7376 99.145 72.8613C99.3099 72.985 99.4903 73.0469 99.6862 73.0469C100.068 73.0469 100.444 72.8768 100.815 72.5366C101.186 72.1964 101.439 71.7789 101.573 71.284C101.604 71.181 101.635 71.1243 101.666 71.1139C101.696 71.1036 101.779 71.0933 101.913 71.083H101.975C102.129 71.083 102.207 71.1243 102.207 71.2067C102.207 71.217 102.196 71.2737 102.176 71.3768C102.011 71.9644 101.691 72.485 101.217 72.9386C100.743 73.3922 100.191 73.619 99.5625 73.619C98.8409 73.619 98.2945 73.2943 97.9234 72.6448C97.5007 73.284 97.0162 73.6036 96.4698 73.6036H96.377C95.8719 73.6036 95.5111 73.4695 95.2946 73.2015C95.0781 72.9335 94.9647 72.65 94.9544 72.351C94.9544 72.0211 95.0523 71.7531 95.2482 71.5469C95.4441 71.3407 95.676 71.2377 95.9441 71.2377C96.3873 71.2377 96.609 71.4541 96.609 71.8871C96.609 72.0933 96.5471 72.2737 96.4234 72.4283C96.2997 72.583 96.1812 72.6861 96.0678 72.7376C95.9544 72.7891 95.8874 72.8149 95.8667 72.8149L95.8204 72.8304C95.8204 72.8407 95.8513 72.8613 95.9131 72.8922C95.975 72.9232 96.0575 72.9592 96.1606 73.0005C96.2636 73.0417 96.3616 73.0572 96.4544 73.0469C96.8255 73.0469 97.1451 72.8149 97.4131 72.351C97.5059 72.1861 97.6244 71.8356 97.7687 71.2995C97.9131 70.7634 98.0574 70.2068 98.2017 69.6295C98.346 69.0522 98.4285 68.712 98.4491 68.6089C98.5007 68.3305 98.5265 68.1295 98.5265 68.0058C98.5265 67.7171 98.4491 67.511 98.2945 67.3873C98.1399 67.2636 97.9646 67.2017 97.7687 67.2017C97.3564 67.2017 96.9698 67.3666 96.609 67.6965C96.2482 68.0264 95.9956 68.4491 95.8513 68.9645C95.8307 69.0573 95.8049 69.1089 95.774 69.1192C95.743 69.1295 95.6606 69.1398 95.5266 69.1501H95.3101C95.2482 69.0882 95.2173 69.0315 95.2173 68.98Z" fill="black"/>
<path d="M104.186 61.8668L104.248 61.8513C104.299 61.8513 104.351 61.8513 104.403 61.8513H104.588L105.021 62.2225C105.99 63.0987 106.696 64.1915 107.14 65.5007C107.583 66.8099 107.805 68.1707 107.805 69.5831C107.805 70.2841 107.753 70.9593 107.65 71.6088C107.547 72.2582 107.428 72.8098 107.294 73.2633C107.16 73.7169 106.969 74.1705 106.722 74.6241C106.475 75.0777 106.279 75.4231 106.134 75.6602C105.99 75.8973 105.779 76.1602 105.5 76.4488C105.222 76.7375 105.057 76.9076 105.006 76.9591C104.954 77.0106 104.836 77.1086 104.65 77.2529C104.619 77.2838 104.598 77.3044 104.588 77.3148H104.403C104.32 77.3148 104.263 77.3148 104.232 77.3148C104.202 77.3148 104.176 77.2993 104.155 77.2684C104.135 77.2374 104.119 77.1911 104.109 77.1292C104.119 77.1189 104.176 77.0519 104.279 76.9282C105.877 75.2684 106.676 72.8201 106.676 69.5831C106.676 66.346 105.877 63.8977 104.279 62.2379C104.176 62.1142 104.119 62.0472 104.109 62.0369C104.109 61.9544 104.135 61.8977 104.186 61.8668Z" fill="black"/>
<path d="M74.7954 101.557C74.816 101.557 74.8469 101.567 74.8881 101.588C74.9294 101.609 74.9861 101.624 75.0582 101.634C75.1304 101.645 75.1923 101.65 75.2438 101.65C75.3778 101.65 75.5015 101.583 75.6149 101.449C75.7283 101.315 75.8108 101.165 75.8623 101C75.9654 100.722 76.1407 99.9335 76.3881 98.6345C76.6355 97.3356 76.8726 96.0985 77.0994 94.9233C77.3262 93.7481 77.4396 93.1553 77.4396 93.145V93.0986H76.7128C76.2283 93.0986 75.9706 93.0883 75.9397 93.0677C75.8984 93.0368 75.8778 92.9852 75.8778 92.9131L75.986 92.4801C76.0067 92.4285 76.0479 92.4028 76.1098 92.4028C76.1716 92.4028 76.4139 92.3976 76.8365 92.3873C77.3314 92.3873 77.5788 92.3822 77.5788 92.3719C77.5788 92.3512 77.6252 92.0935 77.7179 91.5987C77.8107 91.1038 77.8726 90.8049 77.9035 90.7018C78.2849 89.0008 79.0375 88.1503 80.1612 88.1503C80.5426 88.171 80.857 88.2844 81.1044 88.4905C81.3519 88.6967 81.4756 88.9699 81.4756 89.3101C81.4756 89.6812 81.3673 89.9492 81.1508 90.1142C80.9343 90.2791 80.7179 90.3668 80.5014 90.3771C80.0478 90.3771 79.821 90.1606 79.821 89.7276C79.821 89.5317 79.8777 89.3616 79.9911 89.2173C80.1045 89.073 80.2282 88.9647 80.3622 88.8926L80.5014 88.8153C80.3364 88.7534 80.1818 88.7225 80.0375 88.7225C79.9138 88.7225 79.7952 88.774 79.6818 88.8771C79.5684 88.9802 79.4911 89.1245 79.4499 89.3101C79.3777 89.6091 79.2952 90.0111 79.2024 90.5162C79.1097 91.0214 79.0272 91.4492 78.955 91.7997C78.8829 92.1502 78.8468 92.3358 78.8468 92.3564C78.8468 92.377 79.1303 92.3873 79.6973 92.3873C80.1612 92.3873 80.4292 92.3925 80.5014 92.4028C80.5735 92.4131 80.6302 92.444 80.6715 92.4956C80.6818 92.5368 80.6715 92.6244 80.6405 92.7584C80.6096 92.8925 80.5838 92.9749 80.5632 93.0058C80.5426 93.0574 80.4962 93.0832 80.424 93.0832C80.3519 93.0832 80.0735 93.0883 79.589 93.0986H78.7231L78.3674 94.9852C77.8726 97.5418 77.5272 99.1397 77.3314 99.7788C77.053 100.655 76.6922 101.305 76.2489 101.727C75.8675 102.057 75.4912 102.222 75.1201 102.222C74.7902 102.222 74.4912 102.124 74.2232 101.928C73.9552 101.732 73.8212 101.454 73.8212 101.093C73.8212 100.712 73.9294 100.433 74.1459 100.258C74.3624 100.083 74.5789 99.9953 74.7954 99.9953C75.249 99.9953 75.4758 100.212 75.4758 100.645C75.4758 100.841 75.4191 101.011 75.3057 101.155C75.1923 101.299 75.0685 101.408 74.9345 101.48L74.7954 101.557Z" fill="black"/>
<path d="M82.9291 95.1861C82.9291 94.4748 82.9807 93.7996 83.0838 93.1604C83.1869 92.5213 83.3054 91.9697 83.4394 91.5058C83.5734 91.0419 83.7642 90.5884 84.0116 90.1451C84.259 89.7018 84.4549 89.3564 84.5992 89.109C84.7435 88.8616 84.96 88.5936 85.2487 88.3049C85.5373 88.0163 85.7074 87.841 85.7589 87.7792C85.8105 87.7173 85.9393 87.6091 86.1455 87.4544H86.3466H86.4084C86.5527 87.4544 86.6249 87.5008 86.6249 87.5936C86.6249 87.6245 86.5373 87.7328 86.362 87.9183C86.1868 88.1039 85.9754 88.3771 85.728 88.7379C85.4806 89.0987 85.228 89.542 84.9703 90.0677C84.7126 90.5935 84.4961 91.3048 84.3208 92.2017C84.1456 93.0986 84.058 94.0934 84.058 95.1861C84.058 96.2789 84.1456 97.2685 84.3208 98.1551C84.4961 99.0417 84.7074 99.7582 84.9548 100.305C85.2023 100.851 85.4548 101.294 85.7126 101.634C85.9703 101.975 86.1868 102.248 86.362 102.454C86.5373 102.66 86.6249 102.768 86.6249 102.779C86.6249 102.871 86.5476 102.918 86.3929 102.918H86.3466H86.1455L85.7126 102.547C84.7435 101.67 84.0373 100.578 83.5941 99.2685C83.1508 97.9592 82.9291 96.5985 82.9291 95.1861Z" fill="black"/>
<path d="M88.2949 94.5831C88.367 94.1501 88.6454 93.6501 89.1299 93.0831C89.6144 92.5161 90.2123 92.2275 90.9236 92.2172C91.2845 92.2172 91.6143 92.31 91.9133 92.4955C92.2123 92.6811 92.4339 92.913 92.5782 93.1914C93.0112 92.5419 93.5318 92.2172 94.14 92.2172C94.5215 92.2172 94.8513 92.3306 95.1297 92.5574C95.408 92.7842 95.5524 93.0883 95.5627 93.4697C95.5627 93.7687 95.4905 94.0109 95.3462 94.1965C95.2019 94.3821 95.0627 94.4955 94.9287 94.5367C94.7946 94.5779 94.6761 94.5985 94.573 94.5985C94.3771 94.5985 94.2173 94.5418 94.0936 94.4284C93.9699 94.315 93.9081 94.1656 93.9081 93.98C93.9081 93.5058 94.1658 93.1811 94.6813 93.0058C94.5679 92.8718 94.3617 92.8048 94.0627 92.8048C93.9287 92.8048 93.8308 92.8151 93.7689 92.8357C93.3772 93.0007 93.0885 93.3409 92.903 93.8563C92.2844 96.1346 91.9752 97.4644 91.9752 97.8459C91.9752 98.1345 92.0576 98.3407 92.2226 98.4644C92.3875 98.5881 92.5679 98.65 92.7638 98.65C93.1452 98.65 93.5215 98.4799 93.8926 98.1397C94.2637 97.7995 94.5163 97.382 94.6503 96.8871C94.6813 96.784 94.7122 96.7273 94.7431 96.717C94.774 96.7067 94.8565 96.6964 94.9905 96.6861H95.0524C95.207 96.6861 95.2843 96.7273 95.2843 96.8098C95.2843 96.8201 95.274 96.8768 95.2534 96.9799C95.0885 97.5675 94.7689 98.0881 94.2947 98.5417C93.8205 98.9953 93.2689 99.2221 92.6401 99.2221C91.9185 99.2221 91.3721 98.8974 91.001 98.2479C90.5783 98.8871 90.0938 99.2066 89.5474 99.2066H89.4546C88.9495 99.2066 88.5887 99.0726 88.3722 98.8046C88.1557 98.5366 88.0423 98.2531 88.032 97.9541C88.032 97.6242 88.1299 97.3562 88.3258 97.15C88.5217 96.9438 88.7536 96.8407 89.0216 96.8407C89.4649 96.8407 89.6866 97.0572 89.6866 97.4902C89.6866 97.6964 89.6247 97.8768 89.501 98.0314C89.3773 98.1861 89.2587 98.2891 89.1453 98.3407C89.0319 98.3922 88.9649 98.418 88.9443 98.418L88.8979 98.4335C88.8979 98.4438 88.9289 98.4644 88.9907 98.4953C89.0526 98.5263 89.135 98.5623 89.2381 98.6036C89.3412 98.6448 89.4392 98.6603 89.5319 98.65C89.9031 98.65 90.2226 98.418 90.4907 97.9541C90.5834 97.7892 90.702 97.4387 90.8463 96.9026C90.9906 96.3665 91.135 95.8098 91.2793 95.2325C91.4236 94.6552 91.5061 94.315 91.5267 94.212C91.5783 93.9336 91.604 93.7326 91.604 93.6089C91.604 93.3202 91.5267 93.1141 91.3721 92.9904C91.2174 92.8666 91.0422 92.8048 90.8463 92.8048C90.434 92.8048 90.0474 92.9697 89.6866 93.2996C89.3258 93.6295 89.0732 94.0522 88.9289 94.5676C88.9082 94.6604 88.8825 94.7119 88.8515 94.7223C88.8206 94.7326 88.7381 94.7429 88.6041 94.7532H88.3876C88.3258 94.6913 88.2949 94.6346 88.2949 94.5831Z" fill="black"/>
<path d="M97.3854 94.9759C97.7935 94.3855 98.3511 94.0903 99.0581 94.0903C99.4079 94.0903 99.7577 94.1851 100.108 94.3746C100.457 94.5641 100.742 94.8994 100.96 95.3804C101.23 95.9853 101.365 96.8162 101.365 97.873C101.365 99.0027 101.208 99.8664 100.895 100.464C100.749 100.77 100.549 101.014 100.293 101.197C100.038 101.379 99.8161 101.492 99.6266 101.535C99.4371 101.579 99.2512 101.605 99.069 101.612C98.8795 101.612 98.69 101.59 98.5005 101.546C98.311 101.503 98.0887 101.386 97.8336 101.197C97.5785 101.007 97.3781 100.763 97.2323 100.464C96.9189 99.8664 96.7622 99.0027 96.7622 97.873C96.7622 96.6049 96.9699 95.6391 97.3854 94.9759ZM99.8452 94.8447C99.6266 94.6115 99.3678 94.4949 99.069 94.4949C98.7629 94.4949 98.5005 94.6115 98.2818 94.8447C98.0996 95.0342 97.9794 95.2966 97.9211 95.6318C97.8628 95.9671 97.8336 96.6668 97.8336 97.7309C97.8336 98.8825 97.8628 99.6405 97.9211 100.005C97.9794 100.369 98.1106 100.657 98.3146 100.869C98.5187 101.087 98.7702 101.197 99.069 101.197C99.3605 101.197 99.6083 101.087 99.8124 100.869C100.024 100.65 100.155 100.344 100.206 99.9502C100.257 99.5567 100.286 98.8169 100.293 97.7309C100.293 96.6741 100.264 95.978 100.206 95.6428C100.148 95.3075 100.027 95.0415 99.8452 94.8447Z" fill="black"/>
<path d="M103.505 87.4699L103.567 87.4544C103.618 87.4544 103.67 87.4544 103.721 87.4544H103.907L104.34 87.8256C105.309 88.7018 106.015 89.7946 106.458 91.1038C106.901 92.413 107.123 93.7738 107.123 95.1861C107.123 95.8871 107.072 96.5624 106.968 97.2118C106.865 97.8613 106.747 98.4128 106.613 98.8664C106.479 99.32 106.288 99.7736 106.041 100.227C105.793 100.681 105.597 101.026 105.453 101.263C105.309 101.5 105.097 101.763 104.819 102.052C104.541 102.341 104.376 102.511 104.324 102.562C104.273 102.614 104.154 102.712 103.969 102.856C103.938 102.887 103.917 102.908 103.907 102.918H103.721C103.639 102.918 103.582 102.918 103.551 102.918C103.52 102.918 103.494 102.902 103.474 102.871C103.453 102.841 103.438 102.794 103.427 102.732C103.438 102.722 103.494 102.655 103.597 102.531C105.195 100.872 105.994 98.4231 105.994 95.1861C105.994 91.9491 105.195 89.5008 103.597 87.841C103.494 87.7173 103.438 87.6503 103.427 87.64C103.427 87.5575 103.453 87.5008 103.505 87.4699Z" fill="black"/>
<path d="M173.297 165.754C173.366 165.339 173.634 164.859 174.099 164.314C174.564 163.77 175.138 163.493 175.821 163.483C176.168 163.483 176.484 163.572 176.771 163.75C177.058 163.928 177.271 164.151 177.41 164.418C177.825 163.795 178.325 163.483 178.909 163.483C179.276 163.483 179.592 163.592 179.859 163.81C180.127 164.027 180.265 164.319 180.275 164.685C180.275 164.973 180.206 165.205 180.067 165.383C179.929 165.561 179.795 165.67 179.666 165.71C179.538 165.75 179.424 165.769 179.325 165.769C179.137 165.769 178.984 165.715 178.865 165.606C178.746 165.497 178.687 165.354 178.687 165.175C178.687 164.72 178.934 164.408 179.429 164.24C179.32 164.111 179.122 164.047 178.835 164.047C178.706 164.047 178.612 164.057 178.553 164.077C178.177 164.235 177.9 164.562 177.722 165.057C177.128 167.244 176.831 168.521 176.831 168.887C176.831 169.164 176.91 169.362 177.068 169.481C177.227 169.6 177.4 169.659 177.588 169.659C177.954 169.659 178.315 169.496 178.672 169.169C179.028 168.843 179.271 168.442 179.399 167.967C179.429 167.868 179.459 167.813 179.488 167.803C179.518 167.793 179.597 167.784 179.726 167.774H179.785C179.934 167.774 180.008 167.813 180.008 167.892C180.008 167.902 179.998 167.957 179.978 168.056C179.82 168.62 179.513 169.12 179.058 169.555C178.602 169.991 178.073 170.209 177.469 170.209C176.776 170.209 176.252 169.897 175.895 169.273C175.49 169.887 175.024 170.194 174.5 170.194H174.411C173.926 170.194 173.579 170.065 173.371 169.808C173.164 169.55 173.055 169.278 173.045 168.991C173.045 168.674 173.139 168.417 173.327 168.219C173.515 168.021 173.738 167.922 173.995 167.922C174.421 167.922 174.633 168.13 174.633 168.546C174.633 168.744 174.574 168.917 174.455 169.065C174.336 169.214 174.223 169.313 174.114 169.362C174.005 169.412 173.941 169.437 173.921 169.437L173.876 169.451C173.876 169.461 173.906 169.481 173.965 169.511C174.025 169.54 174.104 169.575 174.203 169.615C174.302 169.654 174.396 169.669 174.485 169.659C174.841 169.659 175.148 169.437 175.405 168.991C175.494 168.833 175.608 168.496 175.747 167.982C175.885 167.467 176.024 166.932 176.163 166.378C176.301 165.824 176.38 165.497 176.4 165.398C176.45 165.131 176.474 164.938 176.474 164.819C176.474 164.542 176.4 164.344 176.252 164.225C176.103 164.106 175.935 164.047 175.747 164.047C175.351 164.047 174.98 164.205 174.633 164.522C174.287 164.839 174.044 165.245 173.906 165.74C173.886 165.829 173.861 165.878 173.832 165.888C173.802 165.898 173.723 165.908 173.594 165.918H173.386C173.327 165.858 173.297 165.804 173.297 165.754Z" fill="black"/>
<path d="M182.025 166.132C182.417 165.565 182.952 165.281 183.631 165.281C183.967 165.281 184.303 165.372 184.639 165.554C184.975 165.736 185.248 166.058 185.458 166.52C185.717 167.101 185.846 167.899 185.846 168.913C185.846 169.998 185.696 170.827 185.395 171.401C185.255 171.695 185.062 171.929 184.817 172.104C184.572 172.279 184.359 172.388 184.177 172.43C183.995 172.472 183.817 172.496 183.642 172.503C183.46 172.503 183.278 172.482 183.096 172.44C182.914 172.398 182.7 172.286 182.456 172.104C182.211 171.922 182.018 171.688 181.878 171.401C181.577 170.827 181.427 169.998 181.427 168.913C181.427 167.696 181.626 166.768 182.025 166.132ZM184.387 166.006C184.177 165.782 183.929 165.67 183.642 165.67C183.348 165.67 183.096 165.782 182.886 166.006C182.711 166.188 182.596 166.44 182.54 166.761C182.484 167.083 182.456 167.755 182.456 168.777C182.456 169.883 182.484 170.61 182.54 170.96C182.596 171.31 182.721 171.587 182.917 171.789C183.113 171.999 183.355 172.104 183.642 172.104C183.922 172.104 184.16 171.999 184.355 171.789C184.558 171.58 184.684 171.286 184.733 170.908C184.782 170.53 184.81 169.82 184.817 168.777C184.817 167.762 184.789 167.094 184.733 166.772C184.677 166.45 184.562 166.195 184.387 166.006Z" fill="black"/>
</svg>
