<svg width="86" height="47" viewBox="0 0 86 47" fill="none" xmlns="http://www.w3.org/2000/svg">
<path d="M79 9.88989L76.694 9.76448L77.7384 11.8242L79 9.88989ZM8.09045 46.0683L77.485 10.8823L77.3041 10.5255L7.90955 45.7115L8.09045 46.0683Z" fill="black"/>
<path d="M48.86 2.20067e-05L48.7395 2.30628L50.797 1.25747L48.86 2.20067e-05ZM59.4043 20.245L49.8556 1.51286L49.4993 1.69452L59.0479 20.4266L59.4043 20.245Z" fill="black"/>
<path d="M5 41.9493C5 42.5048 4.84541 43.0411 4.53623 43.558C4.22705 44.0749 3.8285 44.4879 3.34058 44.7971C2.85266 45.1063 2.35266 45.2609 1.84058 45.2609C1.37198 45.2609 0.971015 45.1232 0.637681 44.8478C0.304348 44.5725 0.0942029 44.1715 0.00724638 43.6449C0.00241546 43.6063 0 43.5024 0 43.3333C0 42.8406 0.115942 42.372 0.347826 41.9275C0.57971 41.4831 0.891304 41.0894 1.28261 40.7464C1.88164 40.2488 2.48309 40 3.08696 40C3.27053 40 3.38647 40.0024 3.43478 40.0072C3.90338 40.0749 4.28019 40.2826 4.56522 40.6304C4.85024 40.9783 4.99517 41.4179 5 41.9493ZM4.25362 41.6522C4.25362 41.2222 4.14251 40.8865 3.92029 40.6449C3.69807 40.4034 3.42029 40.2826 3.08696 40.2826C2.70048 40.2826 2.3285 40.4275 1.97101 40.7174C1.58454 41.0217 1.28986 41.4493 1.08696 42C0.884058 42.5507 0.780193 43.0628 0.775362 43.5362C0.775362 43.971 0.879227 44.3164 1.08696 44.5725C1.29469 44.8285 1.57005 44.9589 1.91304 44.9638C2.34783 44.9638 2.76087 44.7729 3.15217 44.3913C3.54348 44.0097 3.84058 43.4903 4.04348 42.8333C4.18357 42.3744 4.25362 41.9807 4.25362 41.6522Z" fill="black"/>
<circle cx="8" cy="46" r="1" fill="black"/>
<path d="M31.3643 25.3186C31.2396 25.3186 31.1657 25.3163 31.1427 25.3117C31.1196 25.307 31.108 25.2816 31.108 25.2355C31.108 25.1108 31.1334 25.0346 31.1842 25.0069C31.1934 25.0023 31.5951 25 32.3892 25C33.1833 25.0046 33.6126 25.0116 33.6773 25.0208C33.9358 25.0577 34.1528 25.1224 34.3283 25.2147C34.5037 25.307 34.6283 25.4132 34.7022 25.5333C34.7761 25.6533 34.8246 25.7526 34.8476 25.831C34.8707 25.9095 34.8846 25.988 34.8892 26.0665C34.8892 26.2743 34.8223 26.4682 34.6884 26.6482C34.5545 26.8283 34.3998 26.9668 34.2244 27.0637C34.0489 27.1607 33.8943 27.2392 33.7604 27.2992C33.6265 27.3592 33.5388 27.3892 33.4972 27.3892L33.5457 27.4238C33.855 27.5993 34.0097 27.8532 34.0097 28.1856C34.0097 28.2364 33.9982 28.3772 33.9751 28.6081C33.952 28.8389 33.9404 29.0282 33.9404 29.1759V29.2382C33.9404 29.3213 33.9428 29.386 33.9474 29.4322C33.952 29.4783 33.9774 29.5199 34.0235 29.5568C34.0697 29.5937 34.1297 29.6145 34.2036 29.6191C34.3329 29.6191 34.4391 29.5683 34.5222 29.4668C34.6053 29.3652 34.6653 29.2567 34.7022 29.1413C34.7253 29.0767 34.7438 29.0374 34.7576 29.0236C34.7715 29.0097 34.8061 29.0028 34.8615 29.0028C34.9538 29.0028 35 29.0305 35 29.0859C35 29.169 34.9446 29.3006 34.8338 29.4806C34.6584 29.7438 34.4506 29.8754 34.2105 29.8754H34.1482C33.8666 29.8754 33.6334 29.8177 33.4488 29.7022C33.2641 29.5868 33.1625 29.4068 33.144 29.1621C33.144 29.0374 33.1787 28.8435 33.2479 28.5804C33.3172 28.3172 33.3518 28.1487 33.3518 28.0748C33.3518 27.8394 33.2525 27.6685 33.054 27.5623C32.9848 27.53 32.9271 27.5116 32.8809 27.5069C32.8347 27.5023 32.6708 27.4977 32.3892 27.4931H31.9114L31.6898 28.3934C31.5374 29.0028 31.4612 29.3121 31.4612 29.3213C31.4612 29.3398 31.4635 29.3514 31.4681 29.356C31.4728 29.3606 31.4889 29.3698 31.5166 29.3837C31.5443 29.3975 31.5836 29.4021 31.6343 29.3975C31.6851 29.3929 31.7613 29.3975 31.8629 29.4114H32.0776C32.1053 29.4483 32.1191 29.4691 32.1191 29.4737C32.1191 29.4783 32.1122 29.5199 32.0983 29.5984C32.0799 29.6584 32.0568 29.7022 32.0291 29.7299H31.9252C31.759 29.7207 31.4566 29.7161 31.018 29.7161C30.861 29.7161 30.7156 29.7161 30.5817 29.7161C30.4478 29.7161 30.3416 29.7161 30.2632 29.7161C30.1847 29.7161 30.1362 29.7184 30.1177 29.723C30.0392 29.723 30 29.7022 30 29.6607C30 29.6515 30.0069 29.6191 30.0208 29.5637C30.0439 29.476 30.0669 29.4275 30.09 29.4183C30.1085 29.4137 30.1431 29.4114 30.1939 29.4114H30.2355C30.3601 29.4114 30.4986 29.4045 30.651 29.3906C30.7156 29.3768 30.7595 29.3491 30.7825 29.3075C30.7964 29.289 30.9626 28.6473 31.2812 27.3823C31.5997 26.1173 31.759 25.4502 31.759 25.3809C31.759 25.3486 31.6274 25.3278 31.3643 25.3186ZM34.1343 25.8934C34.1343 25.7456 34.0859 25.621 33.9889 25.5194C33.892 25.4178 33.6934 25.3532 33.3934 25.3255C33.3841 25.3255 33.331 25.3255 33.2341 25.3255C33.1371 25.3255 33.0494 25.3232 32.9709 25.3186H32.8186C32.6016 25.3186 32.4769 25.3417 32.4446 25.3878C32.44 25.4017 32.3615 25.7087 32.2091 26.3089C32.0568 26.9091 31.9806 27.2161 31.9806 27.2299C31.9806 27.2346 32.1399 27.2369 32.4584 27.2369C32.8186 27.2322 33.0586 27.2161 33.1787 27.1884C33.4741 27.1422 33.705 27.006 33.8712 26.7798C33.9451 26.6736 34.0074 26.5351 34.0582 26.3643C34.109 26.1935 34.1343 26.0365 34.1343 25.8934Z" fill="black"/>
<path d="M50.2261 7.83582C58.9741 18.3829 61.6773 24.2938 64.2261 34.8358" stroke="#D12929" stroke-linejoin="round"/>
<path d="M67 19.7726C67.0049 19.7579 67.0098 19.7384 67.0147 19.7139C67.0196 19.6895 67.0318 19.6357 67.0513 19.5526C67.0709 19.4694 67.0954 19.3936 67.1247 19.3252C67.154 19.2567 67.1907 19.176 67.2347 19.0831C67.2787 18.9902 67.3276 18.9169 67.3814 18.8631C67.4352 18.8093 67.4988 18.7555 67.5721 18.7017C67.6455 18.6479 67.7262 18.6259 67.8142 18.6357C67.956 18.6357 68.0807 18.665 68.1883 18.7237C68.2958 18.7824 68.3716 18.8362 68.4156 18.8851C68.4597 18.934 68.4866 18.9829 68.4963 19.0318C68.5061 19.0611 68.5134 19.0758 68.5183 19.0758C68.5232 19.0758 68.5428 19.0587 68.577 19.0245C68.8117 18.7702 69.0831 18.643 69.3912 18.643H69.4132C69.6479 18.643 69.824 18.7433 69.9413 18.9438C69.9804 19.0367 70 19.1271 70 19.2152C70 19.3619 69.9682 19.4792 69.9046 19.5672C69.8411 19.6553 69.7775 19.7115 69.7139 19.7359C69.6504 19.7604 69.5892 19.7702 69.5306 19.7653C69.4328 19.7653 69.3545 19.7384 69.2958 19.6846C69.2372 19.6308 69.2078 19.5599 69.2078 19.4719C69.2078 19.2372 69.3447 19.0807 69.6186 19.0024C69.511 18.9389 69.423 18.9071 69.3545 18.9071C69.0807 18.9071 68.8289 19.088 68.599 19.4499C68.5501 19.5281 68.5134 19.6088 68.489 19.6919C68.4645 19.7751 68.3814 20.1002 68.2396 20.6675C68.0733 21.3521 67.978 21.7164 67.9535 21.7604C67.89 21.8924 67.7848 21.9584 67.6381 21.9584C67.5746 21.9584 67.5232 21.9438 67.4841 21.9144C67.445 21.8851 67.4181 21.8557 67.4034 21.8264C67.3888 21.7971 67.3839 21.7726 67.3888 21.7531C67.3888 21.6895 67.4866 21.2689 67.6822 20.4914C67.8778 19.7139 67.9756 19.2812 67.9756 19.1932C67.9756 19.0024 67.912 18.9071 67.7848 18.9071C67.6822 18.9071 67.5941 18.9756 67.5208 19.1125C67.4474 19.2494 67.3888 19.3985 67.3447 19.5599C67.3007 19.7213 67.2738 19.8093 67.2641 19.824C67.2543 19.8337 67.2152 19.8386 67.1467 19.8386H67.044C67.0147 19.8093 67 19.7873 67 19.7726Z" fill="black"/>
<path d="M67.8955 17.9828L68.9004 17L68.9591 17.0586C69.5948 17.665 69.9126 17.9731 69.9126 17.9828L69.7219 18.1956C69.7121 18.1907 69.5703 18.0684 69.2965 17.8288L68.9077 17.4914L68.5043 17.8361C68.4407 17.8899 68.3772 17.9462 68.3136 18.0048C68.25 18.0635 68.1987 18.11 68.1596 18.1442L68.1009 18.1882C68.0911 18.198 68.0544 18.1638 67.9909 18.0855L67.8955 17.9828Z" fill="black"/>
<path d="M57 11.3606C57 10.9625 57.0761 10.5429 57.2283 10.1019C57.3806 9.6608 57.5874 9.28023 57.8489 8.96017C58.1105 8.64011 58.3817 8.45666 58.6628 8.40982C58.6667 8.40982 58.6823 8.40982 58.7096 8.40982C58.7369 8.40982 58.7603 8.40787 58.7799 8.40397C58.9906 8.41958 59.1546 8.51521 59.2717 8.69085C59.4239 8.92504 59.5 9.23925 59.5 9.63347C59.5 10.0823 59.4122 10.539 59.2365 11.0035C59.0609 11.468 58.8365 11.8485 58.5632 12.1452C58.29 12.4418 58.0285 12.5901 57.7787 12.5901H57.7377C57.5972 12.5901 57.4762 12.5511 57.3747 12.4731C57.2732 12.395 57.1971 12.2916 57.1464 12.1627C57.0956 12.0339 57.0585 11.9032 57.0351 11.7705C57.0117 11.6378 57 11.5012 57 11.3606ZM59.0375 9.21778C59.0375 8.81966 58.934 8.62059 58.7272 8.62059C58.5867 8.62059 58.45 8.70842 58.3173 8.88406C58.1846 9.0597 58.0753 9.25877 57.9895 9.48125C57.9036 9.70373 57.8372 9.89889 57.7904 10.0667C57.7436 10.2346 57.7182 10.3321 57.7143 10.3595C57.9055 10.3634 58.0948 10.3653 58.2822 10.3653L58.8501 10.3595C58.854 10.3556 58.8696 10.2912 58.897 10.1663C58.9243 10.0414 58.9555 9.88523 58.9906 9.69788C59.0258 9.51052 59.0414 9.35049 59.0375 9.21778ZM57.4567 11.7588C57.4567 12.1725 57.5601 12.3794 57.767 12.3794C57.8255 12.3794 57.888 12.3599 57.9543 12.3208C58.0207 12.2818 58.1007 12.2076 58.1944 12.0983C58.2881 11.9891 58.3817 11.8193 58.4754 11.589C58.5691 11.3587 58.6628 11.0738 58.7564 10.7342L58.7857 10.6346H57.644C57.644 10.6464 57.6265 10.7205 57.5913 10.8571C57.5562 10.9937 57.525 11.146 57.4977 11.3138C57.4703 11.4816 57.4567 11.63 57.4567 11.7588Z" fill="black"/>
<path d="M57.8478 7.88288L58.6499 7.09834L58.6967 7.14518C59.2041 7.62918 59.4578 7.87508 59.4578 7.88288L59.3056 8.05267C59.2978 8.04877 59.1846 7.95119 58.966 7.75993L58.6557 7.49061L58.3337 7.76579C58.283 7.80872 58.2322 7.85361 58.1815 7.90045C58.1308 7.94729 58.0898 7.98437 58.0586 8.01169L58.0117 8.04682C58.0039 8.05462 57.9746 8.0273 57.9239 7.96485L57.8478 7.88288Z" fill="black"/>
<line x1="8" y1="46.1" x2="86" y2="46.1" stroke="black" stroke-width="0.4"/>
<path d="M23 42.9566C23 42.5585 23.0761 42.1389 23.2283 41.6979C23.3806 41.2568 23.5874 40.8762 23.8489 40.5562C24.1105 40.2361 24.3817 40.0527 24.6628 40.0058C24.6667 40.0058 24.6823 40.0058 24.7096 40.0058C24.7369 40.0058 24.7603 40.0039 24.7799 40C24.9906 40.0156 25.1546 40.1112 25.2717 40.2869C25.4239 40.5211 25.5 40.8353 25.5 41.2295C25.5 41.6784 25.4122 42.135 25.2365 42.5995C25.0609 43.064 24.8365 43.4445 24.5632 43.7412C24.29 44.0378 24.0285 44.1862 23.7787 44.1862H23.7377C23.5972 44.1862 23.4762 44.1471 23.3747 44.0691C23.2732 43.991 23.1971 43.8876 23.1464 43.7588C23.0956 43.63 23.0585 43.4992 23.0351 43.3665C23.0117 43.2338 23 43.0972 23 42.9566ZM25.0375 40.8138C25.0375 40.4157 24.934 40.2166 24.7272 40.2166C24.5867 40.2166 24.45 40.3044 24.3173 40.4801C24.1846 40.6557 24.0753 40.8548 23.9895 41.0773C23.9036 41.2997 23.8372 41.4949 23.7904 41.6627C23.7436 41.8306 23.7182 41.9282 23.7143 41.9555C23.9055 41.9594 24.0948 41.9613 24.2822 41.9613L24.8501 41.9555C24.854 41.9516 24.8696 41.8872 24.897 41.7623C24.9243 41.6374 24.9555 41.4812 24.9906 41.2939C25.0258 41.1065 25.0414 40.9465 25.0375 40.8138ZM23.4567 43.3548C23.4567 43.7685 23.5601 43.9754 23.767 43.9754C23.8255 43.9754 23.888 43.9559 23.9543 43.9168C24.0207 43.8778 24.1007 43.8036 24.1944 43.6944C24.2881 43.5851 24.3817 43.4153 24.4754 43.185C24.5691 42.9547 24.6628 42.6698 24.7564 42.3302L24.7857 42.2307H23.644C23.644 42.2424 23.6265 42.3165 23.5913 42.4531C23.5562 42.5897 23.525 42.742 23.4977 42.9098C23.4703 43.0776 23.4567 43.226 23.4567 43.3548Z" fill="black"/>
</svg>
