<svg width="180" height="183" viewBox="0 0 180 183" fill="none" xmlns="http://www.w3.org/2000/svg">
<path d="M91 68L85.4337 69.5327L89.5442 73.5869L91 68ZM19.356 141.351L88.196 71.555L87.4841 70.8527L18.644 140.649L19.356 141.351Z" fill="black"/>
<path d="M63 68L64.4943 73.5768L68.5768 69.4943L63 68ZM77.3536 81.6464L66.5355 70.8284L65.8284 71.5355L76.6464 82.3536L77.3536 81.6464Z" fill="black"/>
<path d="M79.306 95.675C79.102 95.675 79 95.607 79 95.471C79 94.9157 79.476 94.2527 80.428 93.482C81.38 92.7113 82.6493 92.2693 84.236 92.156C84.2587 92.156 84.355 92.156 84.525 92.156C84.695 92.156 84.899 92.156 85.137 92.156C85.375 92.156 85.6073 92.1504 85.834 92.139H86.548C88.384 92.139 89.6986 92.5243 90.492 93.295C90.7526 93.567 90.9283 93.856 91.019 94.162C91.0983 94.3547 91.138 94.5757 91.138 94.825C91.138 96.1057 90.424 97.3127 88.996 98.446C87.568 99.5793 85.9473 100.186 84.134 100.265H83.981C83.7657 100.265 83.658 100.197 83.658 100.061C83.658 99.9817 83.709 99.874 83.811 99.738C83.913 99.602 84.0887 99.466 84.338 99.33C84.5873 99.194 84.882 99.1147 85.222 99.092C87.1827 98.9447 88.4803 98.191 89.115 96.831C89.3303 96.4003 89.438 96.0037 89.438 95.641C89.438 95.2103 89.319 94.8363 89.081 94.519C88.843 94.2017 88.5256 93.9637 88.129 93.805C87.7323 93.6463 87.3073 93.5217 86.854 93.431C86.4007 93.3403 85.936 93.3007 85.46 93.312H84.967L84.933 93.499C84.7517 95.0857 84.4343 96.7347 83.981 98.446C83.5277 100.157 83.131 101.461 82.791 102.356C82.451 103.251 82.2243 103.79 82.111 103.971C81.975 104.198 81.7597 104.379 81.465 104.515C81.1703 104.651 80.9267 104.719 80.734 104.719C80.5867 104.719 80.513 104.651 80.513 104.515C80.513 104.458 80.581 104.26 80.717 103.92C80.853 103.58 81.0287 103.11 81.244 102.509C81.4593 101.908 81.6917 101.245 81.941 100.52C82.1903 99.7947 82.4227 98.8937 82.638 97.817C82.8533 96.7403 83.0403 95.6637 83.199 94.587C83.2103 94.5077 83.2273 94.3603 83.25 94.145C83.2727 93.9297 83.2897 93.7427 83.301 93.584C83.3123 93.4253 83.3237 93.3403 83.335 93.329H83.267C82.5757 93.329 81.9693 93.4707 81.448 93.754C81.0853 93.9353 80.802 94.332 80.598 94.944C80.4733 95.1253 80.2863 95.284 80.037 95.42C79.7877 95.556 79.544 95.641 79.306 95.675Z" fill="black"/>
<path d="M92.736 99.5C92.736 98.718 92.7926 97.9757 92.906 97.273C93.0193 96.5704 93.1496 95.964 93.297 95.454C93.4443 94.944 93.654 94.4454 93.926 93.958C94.198 93.4707 94.4133 93.091 94.572 92.819C94.7306 92.547 94.9686 92.2524 95.286 91.935C95.6033 91.6177 95.7903 91.425 95.847 91.357C95.9036 91.289 96.0453 91.17 96.272 91H96.493H96.561C96.7196 91 96.799 91.051 96.799 91.153C96.799 91.187 96.7026 91.306 96.51 91.51C96.3173 91.714 96.085 92.0144 95.813 92.411C95.541 92.8077 95.2633 93.295 94.98 93.873C94.6966 94.451 94.4586 95.233 94.266 96.219C94.0733 97.205 93.977 98.2987 93.977 99.5C93.977 100.701 94.0733 101.789 94.266 102.764C94.4586 103.739 94.691 104.526 94.963 105.127C95.235 105.728 95.5126 106.215 95.796 106.589C96.0793 106.963 96.3173 107.263 96.51 107.49C96.7026 107.717 96.799 107.836 96.799 107.847C96.799 107.949 96.714 108 96.544 108H96.493H96.272L95.796 107.592C94.7306 106.629 93.9543 105.427 93.467 103.988C92.9796 102.549 92.736 101.053 92.736 99.5Z" fill="black"/>
<path d="M98.108 98.8709C98.1193 98.8369 98.1306 98.7916 98.142 98.7349C98.1533 98.6782 98.1816 98.5536 98.227 98.3609C98.2723 98.1682 98.329 97.9926 98.397 97.8339C98.465 97.6752 98.55 97.4882 98.652 97.2729C98.754 97.0576 98.8673 96.8876 98.992 96.7629C99.1166 96.6382 99.264 96.5136 99.434 96.3889C99.604 96.2642 99.791 96.2132 99.995 96.2359C100.324 96.2359 100.613 96.3039 100.862 96.4399C101.111 96.5759 101.287 96.7006 101.389 96.8139C101.491 96.9272 101.553 97.0406 101.576 97.1539C101.599 97.2219 101.616 97.2559 101.627 97.2559C101.638 97.2559 101.684 97.2162 101.763 97.1369C102.307 96.5476 102.936 96.2529 103.65 96.2529H103.701C104.245 96.2529 104.653 96.4852 104.925 96.9499C105.016 97.1652 105.061 97.3749 105.061 97.5789C105.061 97.9189 104.987 98.1909 104.84 98.3949C104.693 98.5989 104.545 98.7292 104.398 98.7859C104.251 98.8426 104.109 98.8652 103.973 98.8539C103.746 98.8539 103.565 98.7916 103.429 98.6669C103.293 98.5422 103.225 98.3779 103.225 98.1739C103.225 97.6299 103.542 97.2672 104.177 97.0859C103.928 96.9386 103.724 96.8649 103.565 96.8649C102.93 96.8649 102.347 97.2842 101.814 98.1229C101.701 98.3042 101.616 98.4912 101.559 98.6839C101.502 98.8766 101.31 99.6302 100.981 100.945C100.596 102.532 100.375 103.376 100.318 103.478C100.171 103.784 99.927 103.937 99.587 103.937C99.4396 103.937 99.3206 103.903 99.23 103.835C99.1393 103.767 99.077 103.699 99.043 103.631C99.009 103.563 98.9976 103.506 99.009 103.461C99.009 103.314 99.2356 102.339 99.689 100.537C100.142 98.7349 100.369 97.7319 100.369 97.5279C100.369 97.0859 100.222 96.8649 99.927 96.8649C99.689 96.8649 99.485 97.0236 99.315 97.3409C99.145 97.6582 99.009 98.0039 98.907 98.3779C98.805 98.7519 98.7426 98.9559 98.72 98.9899C98.6973 99.0126 98.6066 99.0239 98.448 99.0239H98.21C98.142 98.9559 98.108 98.9049 98.108 98.8709Z" fill="black"/>
<path d="M106.744 103.155C106.744 103.155 106.744 103.013 106.744 102.73C106.744 102.447 106.835 102.203 107.016 101.999C107.197 101.795 107.441 101.693 107.747 101.693C108.064 101.693 108.348 101.835 108.597 102.118C108.846 102.401 108.977 102.9 108.988 103.614C108.988 104.011 108.937 104.396 108.835 104.77C108.733 105.144 108.614 105.467 108.478 105.739C108.342 106.011 108.195 106.243 108.036 106.436C107.877 106.629 107.741 106.782 107.628 106.895C107.515 107.008 107.441 107.059 107.407 107.048C107.362 107.048 107.288 106.997 107.186 106.895C107.084 106.793 107.033 106.719 107.033 106.674C107.033 106.629 107.095 106.538 107.22 106.402C107.345 106.266 107.486 106.096 107.645 105.892C107.804 105.688 107.951 105.405 108.087 105.042C108.223 104.679 108.314 104.266 108.359 103.801V103.597L108.342 103.614C108.319 103.625 108.291 103.637 108.257 103.648C108.223 103.659 108.189 103.676 108.155 103.699C108.121 103.722 108.07 103.733 108.002 103.733C107.934 103.733 107.866 103.739 107.798 103.75C107.492 103.75 107.243 103.654 107.05 103.461L106.744 103.155Z" fill="black"/>
<path d="M113.573 100.35C113.573 99.1941 113.794 97.9757 114.236 96.6951C114.678 95.4144 115.279 94.3094 116.038 93.3801C116.797 92.4507 117.585 91.9181 118.401 91.7821C118.412 91.7821 118.458 91.7821 118.537 91.7821C118.616 91.7821 118.684 91.7764 118.741 91.7651C119.353 91.8104 119.829 92.0881 120.169 92.5981C120.611 93.2781 120.832 94.1904 120.832 95.3351C120.832 96.6384 120.577 97.9644 120.067 99.3131C119.557 100.662 118.905 101.767 118.112 102.628C117.319 103.489 116.559 103.92 115.834 103.92H115.715C115.307 103.92 114.956 103.807 114.661 103.58C114.366 103.353 114.145 103.053 113.998 102.679C113.851 102.305 113.743 101.925 113.675 101.54C113.607 101.155 113.573 100.758 113.573 100.35ZM119.489 94.1281C119.489 92.9721 119.189 92.3941 118.588 92.3941C118.18 92.3941 117.783 92.6491 117.398 93.1591C117.013 93.6691 116.695 94.2471 116.446 94.8931C116.197 95.5391 116.004 96.1057 115.868 96.5931C115.732 97.0804 115.658 97.3637 115.647 97.4431C116.202 97.4544 116.752 97.4601 117.296 97.4601L118.945 97.4431C118.956 97.4317 119.002 97.2447 119.081 96.8821C119.16 96.5194 119.251 96.0661 119.353 95.5221C119.455 94.9781 119.5 94.5134 119.489 94.1281ZM114.899 101.506C114.899 102.707 115.199 103.308 115.8 103.308C115.97 103.308 116.151 103.251 116.344 103.138C116.537 103.025 116.769 102.809 117.041 102.492C117.313 102.175 117.585 101.682 117.857 101.013C118.129 100.344 118.401 99.5171 118.673 98.5311L118.758 98.2421H115.443C115.443 98.2761 115.392 98.4914 115.29 98.8881C115.188 99.2847 115.097 99.7267 115.018 100.214C114.939 100.701 114.899 101.132 114.899 101.506Z" fill="black"/>
<path d="M121.971 91.017L122.039 91C122.096 91 122.152 91 122.209 91H122.413L122.889 91.408C123.954 92.3714 124.731 93.5727 125.218 95.012C125.705 96.4514 125.949 97.9474 125.949 99.5C125.949 100.271 125.892 101.013 125.779 101.727C125.666 102.441 125.535 103.047 125.388 103.546C125.241 104.045 125.031 104.543 124.759 105.042C124.487 105.541 124.272 105.92 124.113 106.181C123.954 106.442 123.722 106.731 123.416 107.048C123.11 107.365 122.929 107.552 122.872 107.609C122.815 107.666 122.685 107.773 122.481 107.932C122.447 107.966 122.424 107.989 122.413 108H122.209C122.118 108 122.056 108 122.022 108C121.988 108 121.96 107.983 121.937 107.949C121.914 107.915 121.897 107.864 121.886 107.796C121.897 107.785 121.96 107.711 122.073 107.575C123.83 105.75 124.708 103.059 124.708 99.5C124.708 95.9414 123.83 93.2497 122.073 91.425C121.96 91.289 121.897 91.2154 121.886 91.204C121.886 91.1134 121.914 91.051 121.971 91.017Z" fill="black"/>
<path d="M30 99.0378C30.013 98.9987 30.0261 98.9466 30.0391 98.8814C30.0522 98.8162 30.0848 98.6727 30.1369 98.4511C30.1891 98.2294 30.2543 98.0273 30.3325 97.8447C30.4108 97.6621 30.5086 97.447 30.6259 97.1992C30.7433 96.9515 30.8737 96.7559 31.0171 96.6124C31.1606 96.469 31.3301 96.3255 31.5257 96.1821C31.7213 96.0387 31.9364 95.98 32.1711 96.0061C32.5493 96.0061 32.8818 96.0843 33.1687 96.2408C33.4556 96.3973 33.6577 96.5407 33.7751 96.6711C33.8924 96.8015 33.9641 96.9319 33.9902 97.0623C34.0163 97.1405 34.0359 97.1797 34.0489 97.1797C34.0619 97.1797 34.1141 97.134 34.2054 97.0427C34.8313 96.3647 35.555 96.0256 36.3765 96.0256H36.4352C37.0611 96.0256 37.5306 96.2929 37.8435 96.8276C37.9478 97.0753 38 97.3166 38 97.5513C38 97.9425 37.9152 98.2555 37.7457 98.4902C37.5762 98.7249 37.4067 98.8748 37.2372 98.94C37.0676 99.0052 36.9046 99.0313 36.7482 99.0183C36.4874 99.0183 36.2787 98.9466 36.1222 98.8031C35.9658 98.6597 35.8875 98.4706 35.8875 98.2359C35.8875 97.61 36.2526 97.1927 36.9829 96.9841C36.696 96.8145 36.4613 96.7298 36.2787 96.7298C35.5485 96.7298 34.8769 97.2123 34.2641 98.1772C34.1337 98.3859 34.0359 98.601 33.9707 98.8227C33.9055 99.0444 33.6838 99.9115 33.3056 101.424C32.8623 103.25 32.608 104.221 32.5428 104.339C32.3733 104.691 32.0929 104.867 31.7017 104.867C31.5322 104.867 31.3953 104.828 31.291 104.749C31.1866 104.671 31.1149 104.593 31.0758 104.515C31.0367 104.436 31.0236 104.371 31.0367 104.319C31.0367 104.15 31.2975 103.028 31.8191 100.955C32.3407 98.8814 32.6015 97.7273 32.6015 97.4926C32.6015 96.9841 32.4319 96.7298 32.0929 96.7298C31.8191 96.7298 31.5844 96.9123 31.3888 97.2775C31.1932 97.6426 31.0367 98.0403 30.9193 98.4706C30.802 98.9009 30.7302 99.1356 30.7042 99.1748C30.6781 99.2008 30.5738 99.2139 30.3912 99.2139H30.1174C30.0391 99.1356 30 99.077 30 99.0378Z" fill="black"/>
<path d="M44 129.811C44 128.617 44.2283 127.358 44.685 126.035C45.1417 124.712 45.7623 123.57 46.5468 122.61C47.3314 121.65 48.1452 121.1 48.9883 120.959C49 120.959 49.0468 120.959 49.1288 120.959C49.2108 120.959 49.281 120.953 49.3396 120.941C49.9719 120.988 50.4637 121.275 50.815 121.802C51.2717 122.505 51.5 123.447 51.5 124.63C51.5 125.977 51.2365 127.347 50.7096 128.74C50.1827 130.133 49.5094 131.275 48.6897 132.165C47.87 133.055 47.0855 133.5 46.3361 133.5H46.2131C45.7916 133.5 45.4286 133.383 45.1241 133.149C44.8197 132.915 44.5913 132.604 44.4391 132.218C44.2869 131.831 44.1756 131.439 44.1054 131.041C44.0351 130.643 44 130.233 44 129.811ZM50.1124 123.383C50.1124 122.189 49.8021 121.591 49.1815 121.591C48.76 121.591 48.3501 121.855 47.952 122.382C47.5539 122.909 47.226 123.506 46.9684 124.173C46.7108 124.841 46.5117 125.426 46.3712 125.93C46.2307 126.433 46.1546 126.726 46.1429 126.808C46.7166 126.82 47.2845 126.826 47.8466 126.826L49.5504 126.808C49.5621 126.796 49.6089 126.603 49.6909 126.228C49.7728 125.854 49.8665 125.385 49.9719 124.823C50.0773 124.261 50.1241 123.781 50.1124 123.383ZM45.37 131.006C45.37 132.247 45.6803 132.868 46.3009 132.868C46.4766 132.868 46.6639 132.809 46.863 132.692C47.0621 132.575 47.3021 132.352 47.5831 132.025C47.8642 131.697 48.1452 131.187 48.4262 130.496C48.7073 129.806 48.9883 128.951 49.2693 127.932L49.3571 127.633H45.9321C45.9321 127.669 45.8794 127.891 45.774 128.301C45.6686 128.711 45.5749 129.167 45.493 129.671C45.411 130.174 45.37 130.619 45.37 131.006Z" fill="black"/>
<path d="M98 59.7409C98.013 59.7017 98.0261 59.6496 98.0391 59.5844C98.0522 59.5192 98.0848 59.3757 98.1369 59.1541C98.1891 58.9324 98.2543 58.7303 98.3325 58.5477C98.4108 58.3651 98.5086 58.15 98.6259 57.9022C98.7433 57.6545 98.8737 57.4589 99.0171 57.3154C99.1606 57.172 99.3301 57.0285 99.5257 56.8851C99.7213 56.7417 99.9364 56.683 100.171 56.7091C100.549 56.7091 100.882 56.7873 101.169 56.9438C101.456 57.1003 101.658 57.2437 101.775 57.3741C101.892 57.5045 101.964 57.6349 101.99 57.7653C102.016 57.8435 102.036 57.8827 102.049 57.8827C102.062 57.8827 102.114 57.837 102.205 57.7457C102.831 57.0677 103.555 56.7286 104.377 56.7286H104.435C105.061 56.7286 105.531 56.9959 105.844 57.5306C105.948 57.7783 106 58.0196 106 58.2543C106 58.6455 105.915 58.9585 105.746 59.1932C105.576 59.4279 105.407 59.5779 105.237 59.6431C105.068 59.7083 104.905 59.7343 104.748 59.7213C104.487 59.7213 104.279 59.6496 104.122 59.5061C103.966 59.3627 103.888 59.1736 103.888 58.9389C103.888 58.313 104.253 57.8957 104.983 57.6871C104.696 57.5175 104.461 57.4328 104.279 57.4328C103.548 57.4328 102.877 57.9153 102.264 58.8802C102.134 59.0889 102.036 59.304 101.971 59.5257C101.905 59.7474 101.684 60.6145 101.306 62.1272C100.862 63.9528 100.608 64.9242 100.543 65.0416C100.373 65.3937 100.093 65.5697 99.7017 65.5697C99.5322 65.5697 99.3953 65.5306 99.291 65.4523C99.1866 65.3741 99.1149 65.2959 99.0758 65.2176C99.0367 65.1394 99.0236 65.0742 99.0367 65.022C99.0367 64.8525 99.2975 63.7311 99.8191 61.6577C100.341 59.5844 100.601 58.4303 100.601 58.1956C100.601 57.6871 100.432 57.4328 100.093 57.4328C99.8191 57.4328 99.5844 57.6153 99.3888 57.9805C99.1932 58.3456 99.0367 58.7433 98.9193 59.1736C98.802 59.6039 98.7302 59.8387 98.7042 59.8778C98.6781 59.9039 98.5738 59.9169 98.3912 59.9169H98.1174C98.0391 59.8387 98 59.78 98 59.7409Z" fill="black"/>
<path d="M100.388 54.968L103.068 52.347L103.225 52.5035C104.92 54.1204 105.767 54.942 105.767 54.968L105.259 55.5353C105.233 55.5222 104.855 55.1962 104.124 54.5573L103.088 53.6575L102.012 54.5768C101.842 54.7203 101.673 54.8702 101.503 55.0267C101.334 55.1832 101.197 55.3071 101.093 55.3984L100.936 55.5157C100.91 55.5418 100.812 55.4505 100.643 55.2419L100.388 54.968Z" fill="black"/>
<path d="M52 63.6393C52 62.3653 52.2436 61.0226 52.7307 59.6112C53.2178 58.1998 53.8798 56.982 54.7166 55.9578C55.5535 54.9336 56.4215 54.3466 57.3208 54.1967C57.3333 54.1967 57.3833 54.1967 57.4707 54.1967C57.5582 54.1967 57.6331 54.1904 57.6956 54.1779C58.37 54.2279 58.8946 54.5339 59.2693 55.096C59.7564 55.8454 60 56.8509 60 58.1124C60 59.5487 59.719 61.0101 59.1569 62.4964C58.5948 63.9828 57.8767 65.2006 57.0023 66.1498C56.128 67.0991 55.2912 67.5737 54.4918 67.5737H54.3607C53.911 67.5737 53.5238 67.4488 53.1991 67.199C52.8743 66.9492 52.6308 66.6182 52.4684 66.206C52.306 65.7939 52.1874 65.3754 52.1124 64.9508C52.0375 64.5261 52 64.089 52 63.6393ZM58.5199 56.7822C58.5199 55.5082 58.1889 54.8712 57.5269 54.8712C57.0773 54.8712 56.6401 55.1522 56.2155 55.7142C55.7908 56.2763 55.4411 56.9133 55.1663 57.6253C54.8915 58.3372 54.6792 58.9617 54.5293 59.4988C54.3794 60.0359 54.2982 60.3481 54.2857 60.4356C54.8977 60.448 55.5035 60.4543 56.103 60.4543L57.9204 60.4356C57.9329 60.4231 57.9828 60.217 58.0703 59.8173C58.1577 59.4176 58.2576 58.918 58.37 58.3185C58.4824 57.7189 58.5324 57.2068 58.5199 56.7822ZM53.4614 64.9133C53.4614 66.2373 53.7923 66.8993 54.4543 66.8993C54.6417 66.8993 54.8415 66.8368 55.0539 66.7119C55.2662 66.587 55.5222 66.3497 55.822 66C56.1218 65.6502 56.4215 65.1069 56.7213 64.37C57.0211 63.6331 57.3208 62.7213 57.6206 61.6346L57.7143 61.3161H54.0609C54.0609 61.3536 54.0047 61.5909 53.8923 62.0281C53.7799 62.4652 53.6799 62.9523 53.5925 63.4894C53.5051 64.0265 53.4614 64.5011 53.4614 64.9133Z" fill="black"/>
<path d="M54.7128 52.5106L57.2795 50.0001L57.4294 50.15C59.0531 51.6988 59.865 52.4856 59.865 52.5106L59.3779 53.054C59.3529 53.0415 58.9907 52.7292 58.2912 52.1172L57.2982 51.2554L56.2678 52.1359C56.1054 52.2733 55.9431 52.417 55.7807 52.5668C55.6183 52.7167 55.4872 52.8354 55.3872 52.9228L55.2374 53.0352C55.2124 53.0602 55.1187 52.9728 54.9563 52.7729L54.7128 52.5106Z" fill="black"/>
<circle cx="19" cy="141" r="2" fill="black"/>
<circle cx="77" cy="82" r="2" fill="black"/>
<path d="M4.52017 144.008C4.29115 144.008 4.17663 143.948 4.17663 143.828C4.17663 143.599 4.35141 143.177 4.70097 142.562C5.05053 141.947 5.41215 141.435 5.78581 141.025C6.25591 140.483 6.84052 140.013 7.53964 139.615C8.23876 139.217 8.98609 139.012 9.78164 139C10.8544 139 11.656 139.374 12.1864 140.121C12.7167 140.868 12.9879 141.833 13 143.014C13 144.255 12.7348 145.449 12.2045 146.594C11.6741 147.739 10.993 148.715 10.1613 149.523C9.32962 150.331 8.38943 150.963 7.34075 151.421C6.29207 151.879 5.26147 152.121 4.24896 152.145C2.98331 152.145 1.95874 151.705 1.17524 150.825C0.391748 149.945 0 148.776 0 147.317C0 146.329 0.17478 145.376 0.524339 144.46C0.873899 143.544 1.30784 142.761 1.82615 142.11C2.34446 141.459 2.88688 140.898 3.45341 140.428C4.01994 139.958 4.52619 139.603 4.97218 139.362C5.41817 139.121 5.74965 139 5.96662 139C6.15948 139 6.25591 139.072 6.25591 139.217C6.25591 139.446 6.00881 139.711 5.5146 140.013C5.15299 140.217 4.7974 140.477 4.44784 140.79C4.09828 141.103 3.70654 141.519 3.2726 142.038C2.83866 142.556 2.48911 143.207 2.22392 143.99C1.95874 144.774 1.82012 145.612 1.80807 146.503C1.80807 147.841 2.14557 148.902 2.82058 149.686C3.4956 150.469 4.39963 150.867 5.53268 150.879C7.03941 150.879 8.3593 150.174 9.49235 148.764C10.6254 147.353 11.1919 145.708 11.1919 143.828C11.1919 143.406 11.1497 143.002 11.0654 142.616C10.981 142.23 10.8484 141.851 10.6676 141.477C10.4868 141.103 10.2035 140.808 9.8178 140.591C9.43208 140.374 8.99212 140.26 8.49791 140.248C8.37738 140.248 8.28697 140.254 8.2267 140.266C7.90125 140.338 7.58183 140.549 7.26843 140.898C6.95503 141.248 6.70793 141.586 6.52712 141.911C6.34631 142.236 6.18359 142.562 6.03894 142.887C5.93046 143.128 5.80992 143.315 5.67733 143.448C5.30366 143.797 4.91794 143.984 4.52017 144.008Z" fill="black"/>
<path d="M19 141H105" stroke="black"/>
</svg>
