<svg width="103" height="82" viewBox="0 0 103 82" fill="none" xmlns="http://www.w3.org/2000/svg">
<line x1="13.25" y1="16" x2="13.25" y2="55" stroke="black" stroke-width="0.5"/>
<line x1="13" y1="54.75" x2="84" y2="54.75" stroke="black" stroke-width="0.5"/>
<path d="M13.5 54.5L26.6773 36.1458C27.0793 35.586 27.9137 35.591 28.3089 36.1556L40.6808 53.8297C41.0789 54.3984 41.9211 54.3984 42.3192 53.8297L54.6808 36.1703C55.0789 35.6016 55.9211 35.6016 56.3192 36.1703L68.6911 53.8444C69.0863 54.409 69.9207 54.414 70.3227 53.8542L83.5 35.5" stroke="black" stroke-width="0.5" stroke-linecap="round"/>
<line x1="13" y1="41.75" x2="27" y2="41.75" stroke="black" stroke-width="0.5" stroke-dasharray="2 2"/>
<line x1="41" y1="41.75" x2="55" y2="41.75" stroke="black" stroke-width="0.5" stroke-dasharray="2 2"/>
<line x1="69" y1="41.75" x2="83" y2="41.75" stroke="black" stroke-width="0.5" stroke-dasharray="2 2"/>
<line x1="27" y1="67.75" x2="41" y2="67.75" stroke="black" stroke-width="0.5" stroke-dasharray="2 2"/>
<line x1="55" y1="67.75" x2="69" y2="67.75" stroke="black" stroke-width="0.5" stroke-dasharray="2 2"/>
<path d="M95.045 52.5498C95.015 52.5198 95 52.4984 95 52.4855C95 52.4684 95.0064 52.4341 95.0193 52.3826C95.0322 52.3312 95.0429 52.3012 95.0514 52.2926C95.06 52.2712 95.0793 52.2605 95.1093 52.2605C95.1393 52.2605 95.2487 52.2583 95.4373 52.254H95.7781L95.9003 51.7396C95.9132 51.6924 95.9282 51.6302 95.9453 51.5531C95.9625 51.4759 95.9775 51.4202 95.9904 51.3859C96.0032 51.3516 96.0161 51.3087 96.0289 51.2572C96.0418 51.2058 96.0589 51.1693 96.0804 51.1479C96.1018 51.1265 96.1233 51.1008 96.1447 51.0707C96.1661 51.0407 96.1961 51.0214 96.2347 51.0129C96.2733 51.0043 96.3119 51 96.3505 51C96.4277 51.0043 96.4812 51.0279 96.5113 51.0707C96.5413 51.1136 96.5563 51.1543 96.5563 51.1929C96.5563 51.2229 96.537 51.3237 96.4984 51.4952C96.4598 51.6667 96.4169 51.836 96.3698 52.0032L96.3055 52.2412C96.3055 52.2497 96.4126 52.254 96.627 52.254H96.955C96.985 52.284 97 52.3076 97 52.3248C97 52.4191 96.9721 52.4941 96.9164 52.5498H96.2283L95.9968 53.4823C95.8296 54.1683 95.746 54.537 95.746 54.5884C95.746 54.7685 95.8039 54.8585 95.9196 54.8585C96.0697 54.8585 96.2154 54.7856 96.3569 54.6399C96.4984 54.4941 96.612 54.314 96.6977 54.0997C96.7063 54.074 96.717 54.059 96.7299 54.0547C96.7428 54.0504 96.7749 54.0461 96.8264 54.0418H96.8521C96.9164 54.0418 96.9486 54.059 96.9486 54.0933C96.9486 54.1061 96.9421 54.1318 96.9293 54.1704C96.9078 54.239 96.8692 54.3205 96.8135 54.4148C96.7578 54.5091 96.6849 54.6099 96.5949 54.717C96.5048 54.8242 96.3955 54.9143 96.2669 54.9871C96.1383 55.06 96.0075 55.0965 95.8746 55.0965C95.746 55.0965 95.6238 55.0643 95.508 55C95.3923 54.9357 95.3087 54.8242 95.2572 54.6656C95.2487 54.6313 95.2444 54.5734 95.2444 54.492V54.3762L95.4695 53.4759C95.6195 52.8714 95.6967 52.567 95.701 52.5627C95.701 52.5541 95.5916 52.5498 95.373 52.5498H95.045Z" fill="black"/>
</svg>
